<svg width="42" height="42" viewBox="0 0 42 42" fill="none" xmlns="http://www.w3.org/2000/svg">
<g clip-path="url(#clip0_609_3689)">
<path d="M11.877 13.5677C14.5308 19.945 17.2857 26.5672 20.0817 33.2875C21.9424 33.7251 22.3519 34.1495 22.612 36.2357C22.7353 37.2214 22.8036 38.2131 22.8165 39.2061C22.8383 41.008 22.0827 41.8433 20.2896 41.8223C17.2082 41.7859 14.1282 41.6236 11.0469 41.5518C9.81673 41.5233 8.58244 41.5625 7.3535 41.6321C6.43558 41.6841 5.91346 41.4452 5.83962 40.5498C5.67231 38.8472 5.61363 37.1355 5.66391 35.4255C5.72872 34.0006 6.64169 33.3054 8.14755 33.2073C8.62522 33.1759 9.1064 33.1916 9.58592 33.1891C10.0616 33.1869 10.5372 33.1891 11.1821 33.1891C10.8383 31.9529 10.5578 30.8114 10.2031 29.6934C8.93135 25.6849 7.63449 21.6844 6.34669 17.6809C6.30557 17.5507 6.24733 17.4248 6.2142 17.2927C5.98176 16.3643 5.97743 15.2734 5.4582 14.5529C4.98238 13.8928 3.91777 13.6838 3.17205 13.1868C-0.722592 10.5908 -0.969449 4.36147 2.68677 1.42855C5.00767 -0.433399 9.13787 -0.22975 11.6561 1.90046C12.1627 2.30852 12.6074 2.78798 12.9762 3.32382C13.1056 3.56175 13.3049 3.75423 13.5472 3.87531C13.7894 3.99642 14.063 4.0403 14.331 4.00105C18.3594 3.71881 22.3919 3.48881 26.4167 3.16399C28.8487 2.96774 28.8442 2.90478 29.7134 5.16787C30.9156 5.02924 32.1275 4.91117 33.3305 4.73157C33.5599 4.69722 33.7925 4.45136 33.9561 4.24854C34.6218 3.42277 35.2675 2.58015 35.9104 1.73547C36.7475 0.634262 37.4923 0.42361 38.7686 0.980076C39.4343 1.25189 40.0831 1.5633 40.7115 1.91261C41.4493 2.34565 41.6944 3.03769 41.4243 3.64064C41.1569 4.23723 40.4689 4.51885 39.6634 4.29418C39.2321 4.18322 38.8212 4.00472 38.4457 3.76529C37.858 3.36867 37.4584 3.51081 37.06 4.02942C36.7779 4.37426 36.4749 4.70123 36.1526 5.00846C35.0926 6.08209 35.0346 7.07962 35.9342 8.29994C36.5842 9.18163 37.2152 10.077 37.827 10.986C38.1458 11.4592 38.5028 11.563 39.0475 11.3855C39.6261 11.1754 40.2326 11.0536 40.8476 11.0241C41.1767 11.021 41.7305 11.3242 41.7838 11.5742C41.8556 11.9113 41.6531 12.5067 41.3741 12.6817C40.4686 13.2335 39.522 13.7146 38.5423 14.1205C37.7195 14.4735 37.0516 14.0588 36.5817 13.4077C35.7405 12.2431 34.9036 11.0685 34.1749 9.83379C33.8436 9.27318 33.4822 9.06829 32.8788 9.06582C32.194 9.07942 31.5091 9.03817 30.8308 8.94239C30.1052 8.82165 29.7697 9.14812 29.5099 9.7527C28.9656 11.0204 28.9211 10.9788 27.5132 10.9891C25.5967 11.0033 23.6801 11.1755 21.7648 11.1537C19.5079 11.1277 17.2506 10.9948 14.9967 10.8451C14.3888 10.804 13.9943 10.8657 13.6301 11.4238C13.1673 12.1343 12.5577 12.75 11.877 13.5677ZM12.395 7.90474C12.3273 4.61595 9.91816 2.2905 6.68695 2.39542C4.08402 2.47997 2.23727 4.53489 2.27369 7.30448C2.31174 10.1874 4.36112 12.2462 7.23539 12.1493C10.438 12.0417 12.6626 9.67228 12.395 7.90474ZM7.65301 14.4902C7.6527 14.6411 7.66834 14.7915 7.69971 14.9391C8.23293 16.4534 8.79187 17.9586 9.31007 19.4778C10.797 23.8374 12.2609 28.2048 13.762 32.5591C13.8648 32.8547 14.1782 33.2565 14.4318 33.2866C15.2284 33.3809 16.0434 33.3211 16.9465 33.3211L9.79514 14.0923L7.65301 14.4902ZM14.7817 9.2199L27.6264 8.85908C27.5344 8.41124 27.464 8.0864 27.4015 7.76012C27.3307 7.39108 27.2622 7.02142 27.2009 6.65069C27.0199 5.55524 27.0215 5.55443 25.9049 5.55831C22.5188 5.57054 19.1327 5.58282 15.7468 5.59517C15.3183 5.5968 14.8895 5.59517 14.4534 5.59517C14.56 6.77497 14.6581 7.8564 14.7817 9.2199ZM8.05847 39.0302H19.8383V35.7818H8.25267C8.18375 36.9293 8.12144 37.974 8.05847 39.0302Z" fill="black"/>
<path d="M6.94857 9.58561C5.81033 9.56975 4.82863 8.96846 4.57437 8.12871C4.2732 7.13528 4.68875 6.02874 5.62353 5.33693C7.30673 4.09006 9.04543 4.53357 9.59842 6.35088C10.1141 8.04909 8.83458 9.61193 6.94857 9.58561Z" fill="black"/>
</g>
<defs>
<clipPath id="clip0_609_3689">
<rect width="42" height="42" fill="white"/>
</clipPath>
</defs>
</svg>
