<svg width="40" height="40" viewBox="0 0 40 40" fill="none" xmlns="http://www.w3.org/2000/svg">
<circle cx="20" cy="20" r="20" fill="url(#paint0_linear_14_27)"/>
<path fill-rule="evenodd" clip-rule="evenodd" d="M26.7169 10H12.283V11.4277H8V16.5031C8 17.8492 8.53475 19.1401 9.48649 20.092C10.2626 20.868 11.2641 21.3668 12.3371 21.5245C12.4948 22.5975 12.9935 23.599 13.7696 24.375C14.7029 25.3083 15.9623 25.8407 17.2799 25.861V27.9245C17.2799 28.0931 17.2131 28.2547 17.0939 28.3738C16.9747 28.493 16.8131 28.5599 16.6446 28.5599C15.8665 28.5599 15.1203 28.869 14.5701 29.4192C14.0199 29.9694 13.7107 30.7157 13.7107 31.4937V33H25.2893V31.4937C25.2893 30.7157 24.9801 29.9694 24.4299 29.4192C23.8797 28.869 23.1335 28.5599 22.3554 28.5599C22.1869 28.5599 22.0253 28.493 21.9061 28.3738C21.787 28.2547 21.7201 28.0931 21.7201 27.9245V25.861C23.0377 25.8407 24.2971 25.3083 25.2304 24.375C26.0064 23.599 26.5052 22.5975 26.663 21.5245C27.736 21.3668 28.7374 20.868 29.5134 20.092C30.4653 19.1401 31 17.8492 31 16.5031V11.4277H26.7169V10ZM26.7169 13.0124H29.4153V16.5031C29.4153 17.4289 29.0475 18.3168 28.3929 18.9714C27.9284 19.4359 27.3465 19.7559 26.7169 19.9027V13.0124ZM12.283 19.9027V13.0124H9.58472V16.5031C9.58472 17.4289 9.95249 18.3168 10.6071 18.9714C11.0716 19.4359 11.6535 19.7559 12.283 19.9027ZM19.5096 13.8333L18.6065 16.7588H15.6667L18.0493 18.5746L17.1078 21.5L19.4904 19.6842L21.873 21.5L20.9507 18.5544L23.3333 16.7386H20.3935L19.5096 13.8333Z" fill="white"/>
<defs>
<linearGradient id="paint0_linear_14_27" x1="1.49965e-07" y1="24.6" x2="40" y2="24.6" gradientUnits="userSpaceOnUse">
<stop stop-color="#85C5D3"/>
<stop offset="1" stop-color="#2CACC8"/>
</linearGradient>
</defs>
</svg>
