<svg width="57" height="42" viewBox="0 0 57 42" fill="none" xmlns="http://www.w3.org/2000/svg">
<path d="M56.3681 29.2999C56.3681 25.5688 53.3434 22.5441 49.6124 22.5441C45.8192 22.5441 42.463 19.3279 43.5697 15.6998C44.7077 11.9692 46.8308 11.3512 49.3056 11.1262C50.0873 11.0292 50.6744 10.365 50.6744 9.57722L50.6744 1.58C50.6744 0.721413 49.954 0.0386053 49.0966 0.0845496C44.4616 0.345327 39.3372 1.18088 35.9184 5.40137C32.9215 9.10117 31.6003 15.1457 31.6003 24.4245L31.6003 29.2343C31.6003 36.0737 37.1448 41.6182 43.9842 41.6182L46.8311 41.6182C52.0982 41.6182 56.3681 37.3483 56.3681 32.0811L56.3681 29.2999Z" fill="#2CACC8"/>
<path d="M15.2308 41.6182C20.498 41.6182 24.7678 37.3483 24.7678 32.0811L24.7678 29.2097C24.7678 25.5284 21.7835 22.5441 18.1022 22.5441C14.3597 22.5441 11.0637 19.3786 12.107 15.7844C13.2118 11.9785 15.3031 11.3529 17.7964 11.1262C18.5277 11.029 19.0741 10.4053 19.0741 9.66758L19.0741 1.48904C19.0741 0.68071 18.3945 0.0386511 17.5874 0.0845496C12.9524 0.345327 7.78223 1.18088 4.36342 5.40137C1.3668 9.10117 1.29445e-05 15.1457 1.37557e-05 24.4245L1.41762e-05 29.2343C1.47741e-05 36.0737 5.54448 41.6182 12.3839 41.6182L15.2308 41.6182Z" fill="#2CACC8"/>
</svg>
