<svg width="57" height="42" viewBox="0 0 57 42" fill="none" xmlns="http://www.w3.org/2000/svg">
<path d="M0 12.3183C0 16.0494 3.02465 19.0741 6.75575 19.0741V19.0741C10.5489 19.0741 13.9051 22.2903 12.7984 25.9183C11.6604 29.649 9.53727 30.2669 7.06253 30.492V30.492C6.28076 30.5889 5.69375 31.2532 5.69375 32.0409V40.0382C5.69375 40.8968 6.41413 41.5796 7.27149 41.5336V41.5336C11.9065 41.2728 17.0309 40.4373 20.4497 36.2168C23.4466 32.517 24.7678 26.4725 24.7678 17.1937V12.3839C24.7678 5.54446 19.2233 0 12.3839 0H9.53702C4.26987 0 0 4.26987 0 9.53703V12.3183Z" fill="#2CACC8"/>
<path d="M41.1374 0C35.8702 0 31.6003 4.26987 31.6003 9.53703V12.4085C31.6003 16.0898 34.5846 19.0741 38.2659 19.0741V19.0741C42.0084 19.0741 45.3045 22.2396 44.2612 25.8337C43.1564 29.6396 41.0651 30.2652 38.5718 30.492V30.492C37.8404 30.5891 37.2941 31.2128 37.2941 31.9506V40.1291C37.2941 40.9375 37.9737 41.5795 38.7807 41.5336V41.5336C43.4157 41.2728 48.5859 40.4373 52.0047 36.2168C55.0014 32.517 56.3681 26.4725 56.3681 17.1937V12.3839C56.3681 5.54446 50.8237 0 43.9842 0H41.1374Z" fill="#2CACC8"/>
</svg>
