<svg width="1852" height="848" viewBox="0 0 1852 848" fill="none" xmlns="http://www.w3.org/2000/svg">
<path d="M969.467 3.16764C916.531 -1.18537 186.607 2.23196 30.3211 3.0168C13.8156 3.09968 1 16.5014 1 33.0071V817C1 833.569 14.4315 847 31 847H1821C1837.57 847 1851 833.569 1851 817V95.8178C1851 79.2283 1837.64 65.7876 1821.05 65.815C1684.64 66.0405 1126.41 66.8883 1069.4 65.7641C1004.4 64.4822 1028.78 8.04483 969.467 3.16764Z" fill="#151516" stroke="#151516"/>
<mask id="mask0_534_63" style="mask-type:alpha" maskUnits="userSpaceOnUse" x="0" y="0" width="1852" height="848">
<path d="M969.467 3.16764C910.157 -1.70955 1 3.16764 1 3.16764V847H1851V65.7641C1851 65.7641 1134.4 67.0459 1069.4 65.7641C1004.4 64.4822 1028.78 8.04483 969.467 3.16764Z" fill="#975BF1" stroke="#975BF1"/>
</mask>
<g mask="url(#mask0_534_63)">
<g opacity="0.48">
<mask id="mask1_534_63" style="mask-type:alpha" maskUnits="userSpaceOnUse" x="-44" y="72" width="1940" height="775">
<path d="M-44 72H1896V847H-44V72Z" fill="white"/>
</mask>
<g mask="url(#mask1_534_63)">
<path d="M1164.11 1018.36C1111.26 710.897 1096.28 589.559 1202.53 490.982C1228.53 466.868 1255.52 443.236 1284.97 417.444C1371.4 341.761 1479.1 247.437 1644.78 68.2313L1644.99 68.6116C1479.33 247.79 1371.63 342.102 1285.21 417.787C1255.74 443.592 1228.74 467.237 1202.79 491.316C1096.69 589.738 1111.65 710.986 1164.44 1018.16L1164.11 1018.36Z" fill="white"/>
<path d="M1163.69 1018.62L1162.8 1014.32C1102.84 724.882 1076.34 596.975 1210.78 500.921C1306.87 432.264 1382.39 365.056 1495.1 240.745C1538.46 192.927 1587.33 136.649 1644.98 68.5983L1645.19 68.9826C1587.57 137.007 1538.71 193.256 1495.37 241.059C1382.65 365.399 1307.11 432.614 1211 501.281C1076.75 597.201 1103.23 725.018 1163.16 1014.26L1164.02 1018.42L1163.69 1018.62Z" fill="white"/>
<path d="M1162.52 1019.34C1160.73 1012.03 1158.96 1004.82 1157.21 997.707C1092.36 733.779 1060.2 602.865 1219.03 510.864C1371.47 422.557 1440.71 332.702 1603.39 121.593C1616.52 104.558 1630.28 86.7127 1644.69 68.0563L1644.9 68.4468C1630.49 87.082 1616.75 104.895 1603.67 121.885C1440.97 333.03 1371.71 422.902 1219.21 511.232C1060.62 603.107 1092.76 733.915 1157.56 997.636C1159.3 1004.7 1161.06 1011.87 1162.84 1019.14L1162.52 1019.34Z" fill="white"/>
<path d="M1160.58 1020.55C1158.19 1012.2 1155.84 1003.98 1153.51 995.876C1081.92 746.198 1042.98 610.34 1227.27 520.806C1388.28 442.572 1444.16 359.94 1556.86 193.274C1582.32 155.608 1610.7 113.647 1643.84 66.4805L1644.05 66.875C1610.95 113.992 1582.6 155.917 1557.15 193.549C1444.43 360.267 1388.53 442.926 1227.44 521.193C1043.43 610.595 1082.34 746.326 1153.86 995.785C1156.17 1003.86 1158.52 1012.04 1160.89 1020.35L1160.58 1020.55Z" fill="white"/>
<path d="M1157.84 1022.25C1155.55 1015.29 1153.29 1008.4 1151.05 1001.6C1071.67 760.693 1024.89 618.678 1235.51 530.755C1412.66 456.804 1459.11 375.971 1546.31 224.226C1572.91 177.933 1603.31 125.033 1642.36 63.7233L1642.58 64.13C1603.58 125.376 1573.2 178.228 1546.62 224.487C1459.39 376.298 1412.92 457.162 1235.66 531.153C1025.36 618.939 1072.09 760.823 1151.39 1001.49C1153.62 1008.27 1155.88 1015.13 1158.16 1022.06L1157.84 1022.25Z" fill="white"/>
<path d="M1154.32 1024.43C1152.73 1020.18 1151.15 1015.96 1149.59 1011.77C1061.69 776.614 1005.96 627.53 1243.74 540.702C1439.63 469.174 1477.71 388.364 1546.01 243.406C1570.57 191.289 1599.05 130.874 1640.16 59.6255L1640.38 60.0323C1599.32 131.201 1570.88 191.557 1546.34 243.63C1477.98 388.672 1439.89 469.522 1243.89 541.093C1006.45 627.795 1062.12 776.728 1149.92 1011.64C1151.48 1015.8 1153.05 1020 1154.63 1024.23L1154.32 1024.43Z" fill="white"/>
<path d="M1150.02 1027.1L1149.07 1024.84C1125.77 969.328 1104.28 918.094 1088.74 871.097C1039.58 722.382 1050.07 616.056 1251.98 550.65C1467.87 480.718 1497.86 399.109 1549.87 257.595C1570.84 200.533 1595.41 133.729 1637.15 54.0286L1637.38 54.4496C1595.69 134.044 1571.16 200.775 1550.21 257.781C1498.16 399.392 1468.14 481.06 1252.11 551.04C1050.48 616.366 1040 722.52 1089.08 870.987C1104.61 917.973 1126.11 969.195 1149.4 1024.71L1150.32 1026.91L1150.02 1027.1Z" fill="white"/>
<path d="M1144.95 1030.25C1114.67 965.365 1087.18 905.657 1070.59 851.507C1030.07 719.389 1054.26 620.447 1260.22 560.599C1496.88 491.814 1518.78 408.96 1555.69 269.202C1572.01 207.423 1591.27 134.521 1633.29 46.8364L1633.52 47.2675C1591.59 134.842 1572.34 207.651 1556.04 269.361C1519.09 409.241 1497.19 492.18 1260.34 561.003C1054.66 620.771 1030.48 719.519 1070.93 851.408C1087.52 905.51 1114.99 965.199 1145.26 1030.06L1144.95 1030.25Z" fill="white"/>
<path d="M1139.14 1033.85C1104.05 965.612 1072.68 902.309 1056.26 845.04C1020.96 721.952 1054.62 626.795 1268.45 570.548C1526.47 502.678 1540.08 418.266 1562.49 279.277C1573.23 212.721 1585.97 133.661 1628.51 37.9317L1628.74 38.3709C1586.31 133.972 1573.57 212.934 1562.85 279.408C1540.42 418.528 1526.79 503.03 1268.57 570.953C1055.01 627.128 1021.37 722.11 1056.6 844.947C1073.01 902.174 1104.37 965.45 1139.44 1033.66L1139.14 1033.85Z" fill="white"/>
<path d="M1132.62 1037.9C1093.74 968.675 1059.48 903.676 1043.58 844.794C1011.83 727.258 1053.17 634.13 1276.69 580.502C1556.5 513.366 1561.58 427.203 1569.77 288.384C1573.98 216.869 1579.05 131.384 1622.83 27.357L1623.06 27.7942C1579.39 131.661 1574.34 217.025 1570.13 288.449C1561.94 427.435 1556.84 513.711 1276.79 580.903C1053.55 634.47 1012.24 727.416 1043.92 844.704C1059.81 903.54 1094.06 968.512 1132.92 1037.71L1132.62 1037.9Z" fill="white"/>
<path d="M1125.41 1042.37C1083.46 973.415 1047.03 907.76 1031.76 848.09C1002.61 734.134 1050.66 642.042 1284.92 590.448C1586.9 523.938 1583.15 435.863 1577.22 296.796C1573.95 220.081 1570.04 127.856 1616.31 15.2229L1616.55 15.6744C1570.43 128.136 1574.32 220.222 1577.59 296.829C1583.53 436.091 1587.29 524.295 1285.03 590.864C1051.04 642.392 1003.03 734.307 1032.11 848.012C1047.36 907.628 1083.79 973.248 1125.72 1042.18L1125.41 1042.37Z" fill="white"/>
<path d="M1117.57 1047.24C1073.12 979.241 1035.06 913.579 1020.47 853.645C993.303 742.046 1047.48 650.337 1293.15 600.398C1617.66 534.434 1604.72 444.319 1584.68 304.724C1572.88 222.568 1558.66 123.305 1609.09 1.78095L1609.33 2.2385C1559.05 123.563 1573.26 222.673 1585.04 304.701C1605.11 444.523 1618.07 534.783 1293.25 600.811C1047.85 650.693 993.718 742.231 1020.82 853.575C1035.39 913.451 1073.44 979.078 1117.87 1047.05L1117.57 1047.24Z" fill="white"/>
<path d="M1109.12 1052.48C1062.65 985.831 1023.42 920.579 1009.5 860.727C983.895 750.661 1043.81 658.901 1301.39 610.347C1648.74 544.881 1626.24 452.609 1592.02 312.271C1570.64 224.52 1544.7 117.992 1601.43 -12.4768L1601.67 -12.0376C1545.12 118.225 1571.01 224.579 1592.37 312.197C1626.66 452.793 1649.19 545.215 1301.48 610.759C1044.18 659.272 984.303 750.836 1009.85 860.66C1023.76 920.449 1062.97 985.666 1109.43 1052.29L1109.12 1052.48Z" fill="white"/>
<path d="M1100.11 1058.07C1052.02 992.977 1012.02 928.419 998.746 868.898C974.403 759.784 1039.81 667.654 1309.62 620.296C1608 567.924 1645.05 496.458 1622.83 396.881C1617.46 372.782 1608.61 347.034 1599.16 319.514C1567.07 226.065 1528.01 112.175 1593.58 -27.104L1593.81 -26.6648C1528.46 112.383 1567.46 226.088 1599.49 319.401C1608.95 346.938 1617.8 372.701 1623.18 396.82C1645.45 496.653 1608.38 568.288 1309.71 620.715C1040.17 668.025 974.799 759.956 999.091 868.838C1012.37 928.286 1052.35 992.814 1100.42 1057.88L1100.11 1058.07Z" fill="white"/>
<path d="M1090.59 1063.98C1041.26 1000.55 1000.81 936.876 988.148 877.872C964.84 769.284 1035.55 676.551 1317.85 630.249C1611.61 582.06 1662.53 515.988 1643.33 426.547C1636.78 396.011 1622.05 362.732 1606.03 326.511C1563.25 229.814 1511.2 112.165 1580.26 -30.5513L1580.9 -30.9493C1511.47 111.899 1563.55 229.622 1606.35 326.349C1622.38 362.592 1637.12 395.892 1643.69 426.483C1662.94 516.178 1612 582.418 1317.94 630.655C1035.91 676.923 965.243 769.465 988.5 877.813C1001.15 936.741 1041.58 1000.38 1090.9 1063.79L1090.59 1063.98Z" fill="white"/>
<path d="M990.329 928.415C984.746 914.575 980.443 900.902 977.658 887.457C955.214 779.076 1031.1 685.558 1326.09 640.199C1620.52 594.919 1680.78 532.271 1663.54 449.066C1656.32 414.187 1635.48 375.668 1612.57 333.302C1560.56 237.151 1497.88 121.188 1558.9 -17.2945L1559.51 -17.6707C1498.14 120.908 1560.86 236.929 1612.88 333.104C1635.82 375.504 1656.67 414.052 1663.9 449.005C1681.19 532.47 1620.89 595.286 1326.17 640.611C1031.46 685.935 955.619 779.264 978.013 887.402C981.003 901.842 985.742 916.55 991.952 931.437L990.329 928.415ZM1080.59 1070.19C1061.71 1046.99 1044.2 1023.67 1029.05 1000.5L1026.97 996.635C1042.66 1021.01 1061.02 1045.57 1080.9 1070L1080.59 1070.19Z" fill="white"/>
<path d="M964.737 880.769C954.56 779.441 1042.45 692.361 1334.32 650.147C1632 607.106 1699.63 546.898 1683.83 468.007C1676.17 429.773 1648.92 387.119 1618.76 339.901C1557.72 244.34 1484.78 130.109 1537.78 -4.18779L1538.37 -4.55156C1485.02 129.823 1557.99 244.109 1619.04 339.681C1649.23 386.94 1676.51 429.629 1684.18 467.959C1700.03 547.106 1632.36 607.489 1334.39 650.566C1041.98 692.839 954.465 780.121 965.177 881.588L964.737 880.769ZM1070.15 1076.67L1069.62 1076.04L1068.78 1074.48C1069.34 1075.15 1069.9 1075.81 1070.46 1076.47L1070.15 1076.67Z" fill="white"/>
<path d="M954.806 862.28C965.183 773.058 1067.59 697.572 1342.55 660.098C1645.01 618.874 1718.94 560.505 1704.24 484.796C1696.27 443.776 1662.3 397.619 1624.54 346.34C1554.66 251.412 1471.87 138.933 1516.93 8.75282L1517.47 8.41501C1472.1 138.649 1554.93 251.162 1624.81 346.092C1662.6 397.418 1696.61 443.615 1704.6 484.751C1719.35 560.713 1645.37 619.253 1342.63 660.515C1067.38 698.027 965.166 773.588 955.108 862.843L954.806 862.28Z" fill="white"/>
<path d="M949.511 852.423C974.571 771.662 1086.57 704.07 1350.78 670.047C1659.04 630.351 1738.61 573.42 1724.79 500.148C1716.59 456.698 1675.56 407.444 1629.9 352.634C1551.36 258.368 1459.18 147.66 1496.39 21.5L1496.92 21.1716C1459.4 147.36 1551.61 258.102 1630.15 352.365C1675.86 407.226 1716.93 456.524 1725.15 500.102C1739.02 573.629 1659.39 630.733 1350.86 670.465C1086.45 704.511 974.589 772.133 949.763 852.891L949.511 852.423Z" fill="white"/>
<path d="M946.676 847.144C983.276 772.883 1102.46 711.277 1359.01 680C1673.79 641.62 1758.56 585.834 1745.46 514.466C1737.09 468.826 1688.68 416.751 1634.79 358.784C1599.21 320.51 1561.24 279.668 1530.81 236.391C1486.86 173.893 1458.66 106.326 1476.05 34.1203L1476.53 33.8231C1458.95 106.061 1487.14 173.658 1531.08 236.159C1561.5 279.407 1599.45 320.241 1635.02 358.504C1688.97 416.525 1737.42 468.648 1745.82 514.432C1758.97 586.047 1674.14 642.004 1359.09 680.413C1102.4 711.708 983.321 773.324 946.907 847.575L946.676 847.144Z" fill="white"/>
<path d="M945.111 844.23C991.638 775.497 1116.75 718.917 1367.25 689.948C1689.06 652.734 1778.75 597.873 1766.26 528.038C1757.74 480.375 1701.61 425.665 1639.2 364.819C1591.65 318.464 1540.45 268.551 1503.82 215.447C1467.11 162.224 1445.06 105.806 1455.97 46.5797L1456.43 46.298C1445.37 105.55 1467.38 161.987 1504.09 215.209C1540.69 268.276 1591.88 318.175 1639.42 364.517C1701.89 425.419 1758.06 480.179 1766.62 528.001C1779.15 598.089 1689.41 653.115 1367.32 690.363C1116.66 719.351 991.701 776.022 945.44 844.844L945.111 844.23Z" fill="white"/>
</g>
</g>
<g opacity="0.48">
<mask id="mask2_534_63" style="mask-type:alpha" maskUnits="userSpaceOnUse" x="-162" y="-118" width="1260" height="1260">
<path d="M448.121 -117.739L-161.308 489.053L488.244 1141.43L1097.67 534.635L448.121 -117.739Z" fill="white"/>
</mask>
<g mask="url(#mask2_534_63)">
<path d="M861.783 1056.75C620.688 781.41 523.699 674.583 407.699 624.839C379.322 612.671 351.038 601.219 320.167 588.72C229.586 552.045 116.696 506.332 -85.5492 407.305L-85.2947 407.689C116.92 506.702 229.799 552.405 320.379 589.085C351.264 601.589 379.564 613.048 407.899 625.199C523.718 674.864 620.643 781.604 861.508 1056.68L861.783 1056.75Z" fill="white"/>
<path d="M862.127 1056.84L858.805 1052.94C635.056 790.547 536.178 674.589 413.438 635.785C325.709 608.045 245.655 575.094 106.059 505.705C52.3621 479.015 -10.1573 446.927 -85.3031 407.675L-85.0458 408.063C-9.93209 447.302 52.5583 479.371 106.239 506.053C245.864 575.461 325.929 608.413 413.672 636.155C536.237 674.909 635.047 790.784 858.648 1053.01L861.856 1056.77L862.127 1056.84Z" fill="white"/>
<path d="M863.103 1057.08C857.54 1050.37 852.052 1043.75 846.638 1037.21C645.804 794.76 546.184 674.5 419.182 646.733C297.28 620.08 200.219 566.1 -27.8222 439.277C-46.2227 429.043 -65.5039 418.327 -85.666 407.128L-85.4046 407.523C-65.261 418.704 -46.0148 429.4 -27.6664 439.611C200.414 566.456 297.493 620.446 419.431 647.102C546.254 674.836 645.792 795 846.469 1037.26C851.848 1043.75 857.304 1050.34 862.837 1057.02L863.103 1057.08Z" fill="white"/>
<path d="M864.727 1057.49C858.481 1049.72 852.328 1042.06 846.266 1034.51C659.491 801.948 557.858 675.406 424.926 657.679C308.774 642.187 221.964 590.107 46.8738 485.062C7.30466 461.321 -36.7779 434.874 -86.7212 405.537L-86.4571 405.935C-36.5665 435.242 7.47711 461.667 47.0116 485.386C222.154 590.465 308.992 642.563 425.196 658.059C557.932 675.76 659.468 802.186 846.082 1034.54C852.118 1042.06 858.246 1049.69 864.464 1057.43L864.727 1057.49Z" fill="white"/>
<path d="M867.008 1058.06C861.892 1051.49 856.836 1044.99 851.837 1038.56C674.861 810.941 570.529 676.766 430.675 668.631C313.043 661.793 230.704 608.276 76.1298 507.815C28.9742 477.167 -24.914 442.146 -88.5673 402.753L-88.2951 403.163C-24.7098 442.519 29.13 477.506 76.2496 508.133C230.891 608.64 313.262 662.175 430.959 669.016C570.601 677.132 674.838 811.184 851.641 1038.58C856.619 1044.98 861.655 1051.46 866.751 1058.01L867.008 1058.06Z" fill="white"/>
<path d="M869.947 1058.8C866.879 1054.72 863.837 1050.68 860.821 1046.66C691.342 821.222 583.894 678.298 436.426 679.581C314.941 680.64 235.249 624.526 92.2974 523.869C40.9016 487.681 -18.6793 445.732 -91.3093 398.615L-91.037 399.026C-18.4916 446.092 41.0311 488.001 92.384 524.16C235.42 624.872 315.15 681.015 436.707 679.957C583.964 678.673 691.302 821.452 860.602 1046.66C863.606 1050.65 866.633 1054.68 869.682 1058.73L869.947 1058.8Z" fill="white"/>
<path d="M873.536 1059.7L871.94 1057.51C832.729 1003.49 796.542 953.637 762.033 909.216C652.833 768.655 560.423 682.434 442.176 690.531C315.745 699.189 237.923 639.875 102.978 537.019C48.564 495.546 -15.142 446.995 -95.0564 392.963L-94.7746 393.388C-14.9683 447.35 48.6686 495.847 103.028 537.28C238.068 640.205 315.946 699.563 442.462 690.898C560.552 682.824 652.817 768.902 761.833 909.23C796.334 953.639 832.513 1003.48 871.721 1057.49L873.28 1059.64L873.536 1059.7Z" fill="white"/>
<path d="M877.764 1060.77C832.897 996.678 791.487 937.822 751.316 887.048C653.311 763.162 562.787 687.441 447.926 701.483C315.93 717.606 239.61 654.709 110.878 548.611C53.9728 501.711 -13.1787 446.368 -99.8707 385.701L-99.5821 386.136C-13.0095 446.737 54.0593 502.006 110.9 548.854C239.746 655.044 316.142 718.009 448.226 701.861C562.933 687.838 653.292 763.4 751.125 887.072C791.258 937.804 832.657 996.638 877.508 1060.7L877.764 1060.77Z" fill="white"/>
<path d="M882.611 1061.98C836.439 993.565 793.236 930.467 750.397 877.122C658.322 762.47 567.993 692.898 453.678 712.433C315.741 736.004 240.717 669.205 117.187 559.216C58.03 506.551 -12.2362 443.987 -105.831 376.708L-105.537 377.152C-12.081 444.353 58.1026 506.836 117.182 559.441C240.831 669.532 315.935 736.4 453.982 712.808C568.15 693.299 658.326 762.729 750.212 877.151C793.019 930.457 836.204 993.528 882.357 1061.92L882.611 1061.98Z" fill="white"/>
<path d="M888.052 1063.35C842.244 992.919 798.529 927.488 754.174 872.949C665.636 764.082 574.597 698.618 459.434 723.388C315.266 754.394 241.453 683.453 122.533 569.16C61.2696 510.279 -11.9697 439.905 -112.911 366.031L-112.618 366.473C-11.8463 440.246 61.2884 510.521 122.475 569.327C241.536 683.76 315.447 754.791 459.736 723.759C574.762 699.024 665.639 764.343 753.99 872.982C798.311 927.478 842.008 992.882 887.798 1063.29L888.052 1063.35Z" fill="white"/>
<path d="M894.062 1064.86C849.445 993.695 805.864 927.031 760.648 872.029C674.295 766.987 582.016 704.494 465.184 734.335C314.575 772.803 241.935 697.49 127.243 578.572C63.9721 512.972 -12.097 434.119 -121.033 353.778L-120.731 354.234C-11.9837 434.474 63.9727 513.208 127.154 578.716C242.009 697.799 314.754 773.223 465.499 734.719C582.191 704.906 674.309 767.263 760.473 872.073C805.648 927.025 849.203 993.656 893.808 1064.8L894.062 1064.86Z" fill="white"/>
<path d="M900.608 1066.51C857.578 995.365 814.502 928.186 768.852 873.171C683.851 770.735 589.969 710.481 470.937 745.285C313.711 791.257 242.247 711.355 131.543 587.58C66.3914 514.733 -12.3345 426.726 -130.029 340.203L-129.723 340.665C-12.2434 427.067 66.3604 514.939 131.412 587.672C242.295 711.648 313.874 791.68 471.252 745.664C590.151 710.896 683.876 771.02 768.684 873.222C814.29 928.183 857.34 995.327 900.352 1066.44L900.608 1066.51Z" fill="white"/>
<path d="M907.653 1068.28C866.391 997.635 824.025 930.439 778.234 875.701C694.027 775.044 598.297 716.544 476.689 756.235C312.701 809.774 242.435 725.064 135.561 596.229C68.7337 515.672 -12.4041 417.889 -139.575 325.808L-139.281 326.251C-12.3408 418.217 68.6655 515.84 135.39 596.276C242.458 725.349 312.841 810.194 477.004 756.612C598.493 716.97 694.045 775.319 778.067 875.755C823.81 930.434 866.151 997.597 907.398 1068.21L907.653 1068.28Z" fill="white"/>
<path d="M915.169 1070.17C875.717 1000.33 834.175 933.473 788.46 879.217C704.655 779.754 606.889 722.661 482.441 767.186C344.815 816.426 273.278 767.857 196.798 677.087C178.288 655.12 159.486 630.681 139.39 604.559C71.1499 515.857 -12.0348 407.77 -149.367 311.038L-149.073 311.481C-12.0021 408.086 71.0457 515.999 139.192 604.567C159.3 630.704 178.113 655.158 196.638 677.144C273.314 768.147 344.998 816.854 482.765 767.565C607.09 723.083 704.674 780.023 788.301 879.275C833.956 933.468 875.477 1000.29 914.91 1070.1L915.169 1070.17Z" fill="white"/>
<path d="M923.115 1072.16C885.443 1003.33 844.785 937.086 799.311 883.457C715.622 784.76 615.686 728.816 488.197 778.139C355.527 829.458 284.154 789.766 215.222 708.472C191.687 680.718 168.422 648.099 143.097 612.596C75.4925 517.817 -6.76166 402.504 -148.073 303.971L-148.608 303.837C-7.07054 402.365 75.2355 517.751 142.861 612.56C168.2 648.084 191.481 680.724 215.057 708.528C284.186 790.053 355.706 829.879 488.509 778.508C615.885 729.243 715.647 785.039 799.151 883.517C844.567 937.077 885.203 1003.29 922.856 1072.1L923.115 1072.16Z" fill="white"/>
<path d="M840.987 926.685C831.141 913.289 821.033 900.433 810.639 888.244C726.852 789.992 624.632 735.007 493.95 789.09C363.507 843.067 292.068 809.181 227.748 733.748C200.784 702.129 175.045 663.188 146.736 620.358C82.4857 523.154 4.98417 405.934 -130.252 308.449L-130.757 308.322C4.66576 405.782 82.2053 523.061 146.47 620.289C174.803 663.154 200.561 702.124 227.583 733.811C292.107 809.476 363.697 843.493 494.268 789.464C624.838 735.436 726.882 790.277 810.481 888.309C821.644 901.399 832.483 915.262 843.01 929.736L840.987 926.685ZM931.46 1074.26C917.947 1048.83 903.901 1023.72 889.24 999.473L886.654 995.572C902.156 1021 916.973 1047.42 931.199 1074.19L931.46 1074.26Z" fill="white"/>
<path d="M809.093 878.573C727.364 790.095 626.769 744.283 499.702 800.039C370.115 856.916 298.407 827.389 237.25 756.038C207.611 721.458 180.42 677.03 150.321 627.849C89.4038 528.316 16.5743 409.347 -112.632 312.876L-113.121 312.753C16.2589 409.182 89.1252 528.207 150.049 627.752C180.174 676.975 207.384 721.442 237.1 756.106C298.455 827.689 370.323 857.351 500.028 800.415C627.316 744.54 727.963 790.637 809.641 879.4L809.093 878.573ZM940.167 1076.45L939.81 1075.76L938.764 1074.18C939.145 1074.91 939.527 1075.65 939.906 1076.38L940.167 1076.45Z" fill="white"/>
<path d="M796.716 859.903C718.676 788.044 623.238 756.534 505.456 810.99C375.89 870.892 303.745 844.883 244.91 776.555C213.031 739.534 185.02 690.053 153.901 635.079C96.292 533.312 28.0261 412.738 -95.2356 317.247L-95.6897 317.133C27.715 412.571 95.9984 533.186 153.608 634.954C184.756 689.978 212.792 739.503 244.759 776.629C303.792 845.185 376.094 871.324 505.78 811.367C623.688 756.849 719.126 788.485 797.093 860.472L796.716 859.903Z" fill="white"/>
<path d="M790.118 849.95C714.557 789.805 622.724 767.94 511.209 821.94C381.101 884.943 308.39 861.906 251.321 795.905C217.478 756.767 189.087 702.472 157.494 642.052C103.157 538.137 39.3277 416.113 -78.0993 321.553L-78.5408 321.442C39.0057 415.931 102.858 537.99 157.189 641.904C188.812 702.381 217.228 756.725 251.17 795.978C308.438 862.209 381.311 885.374 511.535 822.315C623.13 768.275 714.946 790.208 790.431 850.422L790.118 849.95Z" fill="white"/>
<path d="M786.584 844.619C712.846 793.556 623.773 778.975 516.964 832.893C385.913 899.041 312.527 878.598 256.826 814.424C221.205 773.385 192.768 714.408 161.112 648.758C140.211 605.41 117.907 559.155 91.1945 513.208C52.6183 446.854 4.84797 381.156 -61.1335 325.816L-61.5331 325.715C4.53329 381.025 52.3356 446.742 90.9131 513.099C117.608 559.017 139.908 605.262 160.803 648.596C192.487 714.309 220.952 773.341 256.684 814.508C312.578 878.904 386.126 899.473 517.286 833.265C624.154 779.319 713.202 793.942 786.873 845.055L786.584 844.619Z" fill="white"/>
<path d="M784.633 841.677C712.41 798.372 625.687 789.877 522.716 843.842C390.432 913.173 316.276 895.045 261.668 832.354C224.398 789.566 196.174 725.959 164.784 655.219C140.87 601.325 115.12 543.295 82.1202 487.136C49.0426 430.854 8.68308 376.467 -44.3842 330.024L-44.7628 329.929C8.37237 376.346 48.76 430.738 81.8333 487.023C114.813 543.14 140.556 601.154 164.463 655.032C195.882 725.838 224.132 789.503 261.525 832.433C316.33 895.353 390.642 913.602 523.04 844.214C626.077 790.216 712.83 798.834 785.044 842.297L784.633 841.677Z" fill="white"/>
</g>
</g>
</g>
</svg>
