<svg width="1065" height="645" viewBox="0 0 1065 645" fill="none" xmlns="http://www.w3.org/2000/svg">
<path d="M520.067 631.739H466.087L461.724 630.922C455.926 620.686 449.278 610.955 441.849 601.833C427.106 583.451 406.321 560.753 416.935 553.475C426.873 546.686 429.766 546.08 414.859 525.855C399.953 505.629 394.891 489.86 402.635 485.428C410.38 480.995 421.671 485.708 421.018 474.324C420.364 462.94 399.02 446.984 390.015 426.082C381.011 405.181 392.651 399.722 396.15 400.235C399.65 400.748 415.862 409.17 414.813 395.873C413.763 382.576 411.92 351.854 423.187 347.841C434.454 343.829 452.067 364.171 453.793 388.735C455.519 413.299 464.734 418.011 472.618 414.138C480.503 410.266 485.425 413.812 488.948 423.143C492.47 432.474 475.628 481.835 481.95 485.754C488.271 489.673 496.623 467.395 506.793 470.428C513.792 472.504 512.229 489.557 508.17 506.539C506.387 514.009 504.175 521.369 501.545 528.584C494.033 548.622 501.218 561.826 512.975 557.044C524.732 552.261 527.228 562.316 528.208 572.23C529.071 581.188 521.163 602.019 520.067 631.739Z" fill="url(#paint0_linear_430_8059)"/>
<path d="M432.354 379.754C432.354 379.451 432.354 379.124 432.354 378.844C432.326 379.147 432.326 379.451 432.354 379.754Z" fill="url(#paint1_linear_430_8059)"/>
<path d="M447.75 401.215C447.633 400.469 447.517 399.745 447.354 399.069C447.354 399.046 447.517 399.839 447.75 401.215Z" fill="url(#paint2_linear_430_8059)"/>
<path opacity="0.51" d="M494.851 631.739H484.143C483.537 627.796 482.767 623.411 481.811 618.745C464.921 603.769 450.435 577.082 449.549 575.426C457.27 587.699 467.328 598.336 479.151 606.732C476.171 594.355 472.216 582.233 467.324 570.48C456.524 545.007 450.202 528.957 447.262 514.494C433.779 507.496 428.157 484.448 427.924 483.538C431.534 493.428 437.876 502.091 446.213 508.522C445.385 502.698 445.065 496.813 445.256 490.933C445.653 476.936 447.892 464.876 448.056 453.096C435.692 441.175 428.507 419.177 428.087 417.801C432.184 428.878 438.994 438.751 447.892 446.517C447.552 440.723 446.365 435.009 444.37 429.558C437.185 410.219 431.68 389.901 432.356 379.753C432.356 382.669 432.916 393.097 444.02 416.751C445.07 419.084 446.003 420.997 446.843 422.886C448.042 415.72 448.332 408.431 447.706 401.192C448.872 407.677 452.185 427.015 451.135 433.71C455.194 446.284 453.841 455.382 452.465 487.247C452.289 499.058 454.095 510.815 457.807 522.029C462.145 515.684 468.724 505.186 470.403 497.278C469.042 508.086 465.375 518.476 459.649 527.744C466.181 547.036 475.676 566.141 481.951 582.797C483.897 575.429 484.978 567.858 485.17 560.24C486.286 571.147 486.387 582.135 485.473 593.062C489.411 605.744 492.543 618.662 494.851 631.739Z" fill="#2CACC8"/>
<path d="M470.635 616.319L470.425 631.716H400.652C394.445 628.229 388.713 623.955 383.6 619.002C381.241 616.956 379.756 614.084 379.447 610.977C379.611 607.245 383.46 603.816 386.609 600.573C390.178 596.887 392.837 593.412 388.358 589.982C387.305 589.209 386.171 588.552 384.976 588.023C369.556 580.908 357.846 577.782 360.458 568.638C362.791 560.333 372.309 553.125 360.855 550.442C343.849 546.5 331.975 533.436 334.355 523.942C336.081 516.943 352.55 519.999 346.229 509.315C339.907 498.631 312.59 489.86 312.987 476.073C313.383 462.287 330.786 472.131 331.182 464.62C331.579 457.108 313.383 447.217 319.705 432.964C326.027 418.711 345.366 428.298 355.326 440.872C365.287 453.446 367.177 450.763 372.332 446.027C377.488 441.292 385.372 441.665 388.148 463.826C390.924 485.988 393.677 496.648 404.758 494.666C415.838 492.683 419.407 508.126 416.235 523.545C413.062 538.965 417.821 552.028 429.298 548.482C430.804 547.978 432.377 547.702 433.964 547.666C441.289 547.666 442.479 555.317 443.832 563.692C445.394 573.583 441.499 592.968 455.682 594.158C469.865 595.348 470.635 616.319 470.635 616.319Z" fill="url(#paint3_linear_430_8059)"/>
<path d="M429.951 604.493C434.385 593.759 434.385 581.705 429.951 570.971C429.951 570.971 435.293 583.521 426.895 601.297C426.102 600.457 425.262 599.617 424.399 598.754C408.07 582.681 399.299 565.396 393.024 542.768C403.381 535.489 404.221 520.513 404.221 520.513C401.898 527.758 397.725 534.271 392.114 539.409C391.017 535.21 389.991 530.847 388.988 526.252C385.839 511.555 378.794 500.848 370.746 490.607C374.711 477.964 366.803 462.124 366.803 462.124C370.022 470.202 370.642 479.082 368.576 487.528C360.085 476.984 350.824 466.533 343.919 452.373C344.082 452.793 349.704 466.206 365.474 487.784C375.435 501.408 380.17 510.226 383.226 519.137C379.937 518.577 364.564 515.428 358.545 503.787C360.911 508.867 364.519 513.269 369.037 516.584C373.555 519.899 378.837 522.021 384.392 522.753C386.539 530.054 387.915 537.822 390.388 548.693C395.053 568.801 413.132 592.409 420.27 600.317C425.636 606.289 433.94 614.734 436.833 631.763H444.018C443.038 626.491 440.029 616.297 429.951 604.493Z" fill="#2CACC8"/>
<path d="M513.675 631.739H567.655L572.017 630.923C577.816 620.686 584.464 610.956 591.892 601.833C606.612 583.451 627.42 560.753 616.783 553.475C606.869 546.686 603.976 546.08 618.883 525.855C633.789 505.63 638.851 489.907 631.106 485.381C623.361 480.856 612.071 485.661 612.724 474.277C613.377 462.893 634.722 446.937 643.703 426.036C652.684 405.134 641.09 399.675 637.591 400.189C634.092 400.702 617.879 409.123 618.929 395.826C619.979 382.53 621.845 351.807 610.578 347.795C599.311 343.782 581.698 364.124 579.972 388.688C578.246 413.252 569.031 417.964 561.123 414.092C553.215 410.22 548.34 413.765 544.794 423.096C541.248 432.428 558.091 481.789 551.792 485.708C545.494 489.627 537.119 467.349 526.948 470.382C519.95 472.458 521.49 489.51 525.572 506.493C527.351 513.966 529.571 521.327 532.22 528.537C539.708 548.576 532.547 561.779 520.79 556.997C509.033 552.215 506.537 562.269 505.533 572.184C504.67 581.188 512.578 602.02 513.675 631.739Z" fill="url(#paint4_linear_430_8059)"/>
<path d="M601.364 379.754V378.844C601.381 379.147 601.381 379.451 601.364 379.754Z" fill="url(#paint5_linear_430_8059)"/>
<path d="M585.991 401.215C586.083 400.493 586.216 399.776 586.388 399.069C586.388 399.069 586.224 399.839 585.991 401.215Z" fill="url(#paint6_linear_430_8059)"/>
<path opacity="0.51" d="M538.868 631.739H549.576C550.182 627.797 550.952 623.411 551.908 618.745C568.798 603.769 583.284 577.082 584.17 575.426C576.449 587.699 566.391 598.336 554.568 606.732C557.527 594.349 561.482 582.226 566.395 570.48C577.196 545.007 583.517 528.957 586.457 514.494C599.917 507.496 605.562 484.448 605.772 483.538C602.185 493.435 595.848 502.102 587.506 508.522C588.353 502.7 588.681 496.814 588.486 490.933C588.09 476.937 585.827 464.876 585.687 453.096C598.05 441.175 605.235 419.177 605.655 417.801C601.548 428.853 594.739 438.701 585.85 446.447C586.19 440.653 587.377 434.939 589.373 429.488C596.557 410.149 602.039 389.831 601.363 379.684C601.363 382.6 600.826 393.027 589.699 416.681L586.876 422.816C585.688 415.649 585.398 408.361 586.013 401.122C584.87 407.607 581.558 426.945 582.608 433.64C578.525 446.214 579.901 455.312 581.278 487.177C581.457 498.99 579.643 510.749 575.912 521.959C571.597 515.614 565.018 505.116 563.339 497.208C564.7 508.017 568.368 518.406 574.093 527.674C567.538 546.966 558.067 566.072 551.792 582.728C549.836 575.36 548.748 567.79 548.549 560.17C547.446 571.078 547.353 582.066 548.269 592.992C544.321 605.696 541.181 618.638 538.868 631.739Z" fill="#2CACC8"/>
<path d="M563.105 616.319L563.315 631.716H633.088C639.296 628.229 645.027 623.955 650.141 619.002C652.49 616.948 653.973 614.081 654.293 610.977C654.13 607.245 650.281 603.816 647.108 600.573C643.563 596.887 640.903 593.412 645.382 589.982C646.427 589.208 647.553 588.551 648.741 588.023C664.184 580.908 675.895 577.782 673.282 568.638C670.949 560.333 661.432 553.125 672.885 550.442C689.891 546.5 701.765 533.436 699.386 523.942C697.636 516.943 681.19 519.999 687.512 509.315C693.834 498.631 721.15 489.86 720.824 476.073C720.497 462.287 703.025 472.131 702.628 464.62C702.232 457.108 720.427 447.217 714.082 432.964C707.737 418.711 688.422 428.298 678.484 440.872C668.547 453.446 666.61 450.763 661.478 446.027C656.346 441.292 648.415 441.665 645.662 463.826C642.909 485.988 640.11 496.648 629.053 494.666C617.995 492.683 614.403 508.126 617.576 523.545C620.748 538.965 615.989 552.028 604.512 548.482C603.006 547.979 601.434 547.704 599.847 547.666C592.522 547.666 591.332 555.317 589.979 563.692C588.393 573.583 592.312 592.968 578.128 594.158C563.945 595.348 563.105 616.319 563.105 616.319Z" fill="url(#paint7_linear_430_8059)"/>
<path d="M603.788 604.492C599.359 593.757 599.359 581.705 603.788 570.97C603.788 570.97 598.469 583.52 606.867 601.296C607.66 600.456 608.477 599.617 609.363 598.753C625.692 582.681 634.464 565.395 640.739 542.767C630.381 535.489 629.518 520.512 629.518 520.512C631.856 527.755 636.036 534.267 641.649 539.408C642.745 535.209 643.771 530.847 644.751 526.251C647.924 511.555 654.969 500.847 663.017 490.606C659.074 477.963 666.982 462.123 666.982 462.123C663.834 470.249 663.304 479.155 665.466 487.597C673.934 477.053 683.218 466.602 690.123 452.442C689.937 452.862 684.338 466.276 668.569 487.854C658.584 501.477 653.849 510.295 650.793 519.206C654.106 518.646 669.455 515.497 675.497 503.857C673.132 508.937 669.523 513.338 665.005 516.653C660.487 519.968 655.206 522.09 649.65 522.822C647.48 530.123 646.104 537.892 643.631 548.762C638.966 568.871 620.887 592.478 613.772 600.386C608.407 606.358 600.102 614.803 597.209 631.832H590.024C590.701 626.49 593.71 616.296 603.788 604.492Z" fill="#2CACC8"/>
<path d="M287.607 630.269C287.607 630.269 151.187 648.091 138.706 625.86C126.226 603.629 233.277 588.163 287.607 630.269Z" fill="url(#paint8_linear_430_8059)"/>
<path d="M287.607 630.269C287.607 630.269 246.247 562.268 173.838 548.622C101.429 534.975 110.644 598.426 171.506 597.027C232.367 595.627 287.607 630.269 287.607 630.269Z" fill="url(#paint9_linear_430_8059)"/>
<path d="M299.503 610.044C299.503 610.044 238.851 511.555 202.53 477.963C166.208 444.371 140.455 433.29 123.869 446.774C107.283 460.257 116.171 495.972 160.563 521.002C204.956 546.033 251.541 585.55 287.606 630.269L299.503 610.044Z" fill="url(#paint10_linear_430_8059)"/>
<path d="M287.607 630.27C287.607 630.27 252.406 528.095 195.813 443.859C142.719 364.824 165.907 316.909 201.341 334.032C243.704 354.56 282.755 464.2 298.594 613.264L287.607 630.27Z" fill="url(#paint11_linear_430_8059)"/>
<g opacity="0.63">
<path d="M274.705 630.805C275.583 630.69 276.391 630.269 276.988 629.616C277.585 628.963 277.932 628.12 277.969 627.236C278.005 626.352 277.728 625.483 277.186 624.783C276.645 624.083 275.874 623.597 275.009 623.411C238.136 614.831 200.028 612.895 162.476 617.695C161.987 617.77 161.518 617.941 161.096 618.197C160.673 618.454 160.305 618.791 160.012 619.189C159.72 619.588 159.509 620.04 159.391 620.52C159.274 621 159.252 621.499 159.327 621.988C159.402 622.476 159.572 622.945 159.829 623.368C160.085 623.791 160.422 624.159 160.821 624.451C161.219 624.744 161.672 624.955 162.152 625.072C162.632 625.19 163.131 625.212 163.619 625.137C200.214 620.602 237.32 622.505 273.259 630.759C273.735 630.861 274.224 630.877 274.705 630.805Z" fill="#2CACC8"/>
<path d="M278.927 630.198C279.692 630.076 280.404 629.736 280.98 629.218C281.343 628.878 281.634 628.47 281.838 628.016C282.041 627.563 282.153 627.073 282.166 626.577C282.179 626.08 282.093 625.585 281.914 625.122C281.734 624.658 281.464 624.235 281.12 623.876C257.011 598.47 226.847 579.6 193.455 569.033C179.17 564.27 164.325 561.392 149.295 560.472C148.344 560.523 147.447 560.932 146.784 561.616C146.121 562.301 145.741 563.211 145.721 564.163C145.7 565.116 146.04 566.041 146.673 566.754C147.305 567.467 148.184 567.914 149.132 568.007C149.995 568.007 220.211 570.339 275.615 629.055C276.032 629.5 276.552 629.837 277.129 630.037C277.707 630.236 278.324 630.291 278.927 630.198Z" fill="#2CACC8"/>
<path d="M285.528 622.337C285.981 622.29 286.419 622.146 286.811 621.917C287.686 621.43 288.332 620.617 288.607 619.654C288.883 618.692 288.766 617.66 288.281 616.785C254.269 556.133 216.945 519.835 191.285 500.053C163.501 478.498 143.906 471.453 143.066 471.197C142.193 471.049 141.295 471.214 140.531 471.661C139.766 472.108 139.183 472.81 138.883 473.643C138.583 474.477 138.585 475.389 138.889 476.221C139.193 477.053 139.78 477.752 140.547 478.195C140.757 478.195 160.096 485.193 187.016 506.188C211.883 525.527 248.507 561.031 281.679 620.494C282.061 621.153 282.632 621.681 283.319 622.01C284.006 622.339 284.776 622.453 285.528 622.337Z" fill="#2CACC8"/>
<path d="M290.38 579.111C290.87 579.044 291.341 578.88 291.766 578.627C292.191 578.375 292.56 578.039 292.853 577.641L294.859 574.982L294.159 573.069C265.396 493.288 234.044 425.638 195.46 360.134C195.246 359.649 194.932 359.214 194.538 358.858C194.145 358.502 193.681 358.233 193.177 358.068C192.672 357.903 192.139 357.846 191.611 357.901C191.084 357.956 190.573 358.122 190.114 358.387C189.654 358.652 189.256 359.011 188.944 359.44C188.633 359.87 188.415 360.36 188.305 360.879C188.196 361.398 188.196 361.935 188.308 362.453C188.419 362.972 188.639 363.461 188.952 363.89C226.999 428.484 257.978 495.225 286.415 573.839C286.033 574.63 285.94 575.53 286.153 576.383C286.366 577.235 286.871 577.986 287.581 578.504C288.4 579.061 289.404 579.279 290.38 579.111Z" fill="#2CACC8"/>
</g>
<path d="M750.194 630.269C750.194 630.269 886.591 648.091 899.071 625.86C911.552 603.629 804.454 588.163 750.194 630.269Z" fill="url(#paint12_linear_430_8059)"/>
<path d="M750.194 630.269C750.194 630.269 791.531 562.268 863.94 548.622C936.349 534.975 927.135 598.426 866.273 597.027C805.411 595.627 750.194 630.269 750.194 630.269Z" fill="url(#paint13_linear_430_8059)"/>
<path d="M738.298 610.044C738.298 610.044 798.95 511.555 835.271 477.963C871.592 444.371 897.322 433.29 913.908 446.774C930.494 460.257 921.607 495.972 877.214 521.002C832.822 546.033 786.236 585.55 750.195 630.269L738.298 610.044Z" fill="url(#paint14_linear_430_8059)"/>
<path d="M750.194 630.27C750.194 630.27 785.372 528.095 841.965 443.859C895.059 364.824 871.871 316.909 836.436 334.032C794.073 354.56 755.046 464.2 739.09 613.264L750.194 630.27Z" fill="url(#paint15_linear_430_8059)"/>
<g opacity="0.63">
<path d="M763.07 630.807C762.32 630.703 761.618 630.372 761.06 629.86C760.502 629.347 760.113 628.677 759.944 627.937C759.721 626.963 759.892 625.94 760.421 625.092C760.95 624.244 761.794 623.64 762.767 623.412C799.648 614.832 837.763 612.897 875.323 617.697C875.812 617.773 876.28 617.945 876.703 618.203C877.125 618.461 877.492 618.799 877.783 619.199C878.075 619.598 878.284 620.052 878.401 620.532C878.517 621.013 878.537 621.512 878.461 622.001C878.384 622.489 878.212 622.958 877.954 623.38C877.697 623.802 877.358 624.169 876.959 624.461C876.559 624.752 876.106 624.962 875.625 625.078C875.144 625.194 874.645 625.215 874.157 625.138C837.562 620.603 800.456 622.506 764.517 630.76C764.041 630.863 763.551 630.879 763.07 630.807Z" fill="#2CACC8"/>
<path d="M758.85 630.199C758.091 630.082 757.384 629.741 756.821 629.219C756.459 628.879 756.168 628.472 755.964 628.019C755.761 627.567 755.648 627.078 755.633 626.582C755.617 626.086 755.7 625.592 755.876 625.128C756.052 624.664 756.317 624.239 756.657 623.878C780.767 598.472 810.93 579.601 844.323 569.034C858.6 564.273 873.437 561.395 888.459 560.473C888.976 560.422 889.499 560.479 889.994 560.64C890.489 560.801 890.945 561.062 891.334 561.408C891.723 561.753 892.037 562.175 892.255 562.648C892.474 563.12 892.592 563.632 892.604 564.152C892.615 564.672 892.519 565.189 892.321 565.671C892.123 566.152 891.828 566.587 891.454 566.949C891.081 567.311 890.636 567.592 890.149 567.774C889.661 567.956 889.141 568.036 888.622 568.008C887.759 568.008 817.543 570.341 762.139 629.056C761.724 629.498 761.208 629.833 760.635 630.032C760.062 630.231 759.45 630.288 758.85 630.199Z" fill="#2CACC8"/>
<path d="M752.247 622.338C751.794 622.291 751.356 622.148 750.964 621.918C750.089 621.431 749.443 620.618 749.168 619.656C748.892 618.694 749.009 617.661 749.494 616.786C783.412 556.134 820.946 519.836 846.467 500.147C874.274 478.593 893.892 471.548 894.709 471.245C895.637 470.97 896.635 471.061 897.498 471.501C898.36 471.94 899.021 472.694 899.344 473.607C899.668 474.519 899.628 475.521 899.234 476.405C898.841 477.29 898.122 477.989 897.228 478.359C897.041 478.359 877.679 485.358 850.759 506.353C825.892 525.691 789.268 561.196 756.096 620.658C755.692 621.287 755.111 621.783 754.426 622.082C753.741 622.381 752.982 622.47 752.247 622.338Z" fill="#2CACC8"/>
<path d="M747.395 579.112C746.906 579.043 746.436 578.877 746.011 578.625C745.587 578.373 745.217 578.039 744.922 577.642L742.916 574.983L743.616 573.07C772.379 493.289 803.731 425.639 842.315 360.135C842.826 359.272 843.656 358.646 844.626 358.393C845.596 358.14 846.627 358.279 847.494 358.782C847.921 359.032 848.294 359.365 848.592 359.76C848.89 360.155 849.107 360.604 849.23 361.083C849.354 361.563 849.381 362.061 849.312 362.551C849.242 363.041 849.076 363.512 848.824 363.938C810.776 428.532 779.797 495.272 751.384 573.886C751.663 574.504 751.771 575.186 751.696 575.86C751.621 576.533 751.366 577.175 750.958 577.716C750.551 578.258 750.005 578.679 749.378 578.937C748.751 579.195 748.066 579.28 747.395 579.182V579.112Z" fill="#2CACC8"/>
</g>
<path d="M1028.14 302.387C1032.18 285.284 1021.58 268.147 1004.48 264.11C987.378 260.073 970.24 270.666 966.204 287.769C962.167 304.872 972.759 322.009 989.863 326.046C1006.97 330.083 1024.1 319.49 1028.14 302.387Z" fill="#9AD7E4"/>
<path d="M991.24 325.283C988.934 319.046 987.535 312.51 987.087 305.875C987.087 305.175 986.947 304.452 986.924 303.729C986.714 300.999 986.598 298.107 986.598 295.097C986.598 292.088 986.714 289.196 986.924 286.466C986.924 285.743 986.924 285.043 987.087 284.343C987.533 277.708 988.931 271.172 991.24 264.935C991.403 264.538 991.566 264.142 991.753 263.768C991.94 263.395 992.126 262.975 992.313 262.602C991.41 262.724 990.514 262.895 989.63 263.115C989.444 263.512 989.28 263.908 989.117 264.328C988.954 264.748 988.79 265.145 988.65 265.565C986.646 271.712 985.4 278.081 984.941 284.53C984.941 285.23 984.825 285.93 984.778 286.653C984.591 289.429 984.498 292.275 984.498 295.097C984.498 297.92 984.498 300.766 984.778 303.565C984.778 304.289 984.778 304.988 984.941 305.688C985.398 312.13 986.644 318.492 988.65 324.63C988.79 325.074 988.954 325.47 989.117 325.867C989.28 326.263 989.444 326.706 989.63 327.08C990.514 327.308 991.409 327.487 992.313 327.616L991.753 326.45C991.566 326.077 991.426 325.68 991.24 325.283ZM1009.65 286.653C1009.65 285.93 1009.65 285.23 1009.48 284.53C1009.02 278.081 1007.78 271.712 1005.77 265.565C1005.63 265.145 1005.47 264.748 1005.31 264.328C1005.14 263.908 1004.98 263.512 1004.82 263.115C1003.92 262.897 1003.02 262.726 1002.11 262.602L1002.69 263.768L1003.18 264.935C1005.49 271.172 1006.89 277.708 1007.34 284.343C1007.34 285.043 1007.48 285.743 1007.52 286.466C1007.71 289.196 1007.83 292.088 1007.83 295.097C1007.83 298.107 1007.83 300.999 1007.52 303.729C1007.52 304.452 1007.52 305.175 1007.34 305.875C1006.89 312.51 1005.49 319.046 1003.18 325.283L1002.69 326.45L1002.11 327.616C1003.02 327.485 1003.92 327.306 1004.82 327.08C1004.98 326.706 1005.17 326.287 1005.31 325.867C1005.45 325.447 1005.63 325.074 1005.77 324.63C1007.78 318.492 1009.02 312.13 1009.48 305.688C1009.48 304.988 1009.6 304.289 1009.65 303.565C1009.86 300.766 1009.95 297.92 1009.95 295.097C1009.95 292.275 1009.86 289.429 1009.65 286.653Z" fill="#2CACC8"/>
<path d="M1029.47 288.752L1028.28 288.262L1027.09 287.842C1021.37 286.085 1015.46 284.973 1009.48 284.53L1007.34 284.343C1004.02 284.086 1000.59 283.97 997.212 283.97C993.829 283.97 990.423 284.086 987.087 284.343L984.941 284.53C978.966 284.976 973.058 286.087 967.329 287.842L966.139 288.262L964.949 288.752C964.786 289.545 964.669 290.385 964.576 291.085L965.696 290.595L966.839 290.152C972.641 288.19 978.669 286.975 984.778 286.536L986.924 286.349C990.12 286.116 993.596 285.976 997.212 285.976C1000.83 285.976 1004.21 286.116 1007.52 286.349L1009.65 286.536C1015.75 286.973 1021.78 288.188 1027.58 290.152L1028.73 290.595L1029.85 291.085C1029.75 290.385 1029.64 289.545 1029.47 288.752ZM1028.75 299.506L1027.61 299.949C1021.8 301.902 1015.78 303.117 1009.67 303.565L1007.55 303.728C1004.33 303.985 1000.87 304.125 997.235 304.125C993.596 304.125 990.237 303.985 986.947 303.728L984.801 303.565C978.694 303.114 972.667 301.9 966.862 299.949L965.719 299.506L964.6 298.993C964.6 299.833 964.809 300.649 964.973 301.465L966.163 301.955L967.352 302.352C973.081 304.116 978.988 305.235 984.965 305.688L987.111 305.874C990.447 306.108 993.852 306.248 997.235 306.248C1000.62 306.248 1004.05 306.108 1007.36 305.874L1009.51 305.688C1015.48 305.237 1021.39 304.118 1027.12 302.352L1028.31 301.955L1029.5 301.465C1029.66 300.649 1029.78 299.833 1029.87 298.993L1028.75 299.506Z" fill="#2CACC8"/>
<path d="M1029.85 291.202C1029.85 290.385 1029.64 289.546 1029.47 288.869C1028.25 282.681 1025.27 276.974 1020.9 272.425C1016.53 267.877 1010.95 264.678 1004.81 263.209C1003.92 262.991 1003.02 262.819 1002.11 262.696C998.862 262.198 995.558 262.198 992.311 262.696C991.408 262.817 990.512 262.988 989.628 263.209C983.49 264.674 977.9 267.871 973.525 272.42C969.15 276.969 966.173 282.678 964.948 288.869C964.784 289.662 964.668 290.502 964.574 291.202C964.415 292.494 964.337 293.795 964.341 295.098C964.335 296.4 964.413 297.701 964.574 298.993C964.574 299.833 964.784 300.65 964.948 301.466C966.17 307.658 969.147 313.369 973.522 317.918C977.898 322.467 983.488 325.664 989.628 327.127C990.512 327.355 991.408 327.534 992.311 327.663C995.558 328.161 998.862 328.161 1002.11 327.663C1003.02 327.531 1003.92 327.352 1004.81 327.127C1010.95 325.66 1016.54 322.462 1020.91 317.913C1025.28 313.364 1028.25 307.655 1029.47 301.466C1029.64 300.65 1029.75 299.833 1029.85 298.993C1030.01 297.701 1030.08 296.4 1030.08 295.098C1030.08 293.795 1030 292.494 1029.85 291.202ZM1027.98 295.098C1027.98 296.723 1027.84 298.346 1027.58 299.95C1027.47 300.736 1027.3 301.515 1027.09 302.283C1025.81 307.54 1023.16 312.367 1019.42 316.278C1015.67 320.188 1010.97 323.045 1005.77 324.56C1004.93 324.817 1004.07 325.027 1003.18 325.214C999.238 325.991 995.181 325.991 991.238 325.214C990.351 325.027 989.488 324.817 988.649 324.56C983.452 323.045 978.746 320.188 975.003 316.278C971.261 312.367 968.613 307.54 967.327 302.283C967.117 301.515 966.954 300.736 966.837 299.95C966.583 298.345 966.458 296.722 966.464 295.098C966.457 293.481 966.582 291.866 966.837 290.269C966.955 289.482 967.118 288.703 967.327 287.936C968.615 282.679 971.264 277.854 975.006 273.943C978.748 270.033 983.453 267.176 988.649 265.658C989.499 265.399 990.364 265.189 991.238 265.028C995.181 264.251 999.238 264.251 1003.18 265.028C1004.06 265.189 1004.92 265.399 1005.77 265.658C1010.97 267.176 1015.67 270.033 1019.41 273.943C1023.16 277.854 1025.8 282.679 1027.09 287.936C1027.3 288.703 1027.46 289.482 1027.58 290.269C1027.85 291.865 1027.98 293.48 1027.98 295.098Z" fill="#2CACC8"/>
<path d="M747.301 212.097C765.763 212.097 780.729 197.131 780.729 178.669C780.729 160.207 765.763 145.24 747.301 145.24C728.839 145.24 713.872 160.207 713.872 178.669C713.872 197.131 728.839 212.097 747.301 212.097Z" fill="#9AD7E4"/>
<path d="M755.07 169.337C755.07 169.337 749.938 171.274 748.655 167.401C747.372 163.529 753.787 153.918 757.006 154.548C760.225 155.177 764.727 163.879 764.727 168.054C764.727 172.557 757.729 193.715 748.655 199.547C739.58 205.379 728.709 202.766 729.992 196.981C731.275 191.195 735.778 184.127 737.691 184.757C739.603 185.387 744.689 191.755 744.689 191.755C744.689 191.755 756.353 180.908 755.07 169.337Z" fill="#2CACC8"/>
<path d="M94.3837 270.766V321.341C94.3837 322.683 93.8504 323.971 92.901 324.92C91.9517 325.869 90.6642 326.403 89.3216 326.403H5.0621C3.71955 326.403 2.43198 325.869 1.48266 324.92C0.533328 323.971 8.59976e-07 322.683 8.59976e-07 321.341V270.766C-0.000478967 269.953 0.199839 269.151 0.583192 268.434C1.0104 267.616 1.65401 266.931 2.44383 266.454C3.23364 265.976 4.13933 265.725 5.0621 265.728H89.3216C90.2881 265.701 91.2419 265.953 92.0692 266.453C92.8965 266.954 93.5623 267.682 93.9871 268.55C94.2982 269.245 94.4344 270.006 94.3837 270.766Z" fill="#2CACC8"/>
<path d="M93.8702 268.551L47.2149 300.556L0.55957 268.434C0.986777 267.616 1.63039 266.931 2.42021 266.454C3.21002 265.977 4.11571 265.726 5.03848 265.728H89.3213C90.2682 265.724 91.1971 265.986 92.0016 266.485C92.8062 266.985 93.4538 267.7 93.8702 268.551Z" fill="#9AD7E4"/>
<path d="M79.5241 67.0464L78.9643 53.3531C78.9534 53.1317 78.8743 52.9192 78.7378 52.7447C78.6013 52.5701 78.4141 52.4421 78.202 52.3782C77.9898 52.3143 77.7631 52.3177 77.5529 52.3878C77.3427 52.4579 77.1594 52.5914 77.0281 52.7699L68.6535 64.1538C68.5258 64.3289 68.349 64.4623 68.1456 64.537C67.9421 64.6117 67.7211 64.6245 67.5104 64.5737L47.402 59.115C47.2243 59.073 47.0608 58.9854 46.9273 58.8609C46.7939 58.7364 46.6952 58.5793 46.6411 58.405C46.5869 58.2307 46.5791 58.0453 46.6184 57.8671C46.6578 57.6889 46.7429 57.524 46.8654 57.3887L95.3403 0.352615C95.482 0.196239 95.6666 0.0851005 95.8711 0.0330983C96.0756 -0.018904 96.2909 -0.00946173 96.49 0.0602442C96.6892 0.12995 96.8634 0.256826 96.9908 0.425004C97.1183 0.593182 97.1933 0.795199 97.2065 1.00579L100.939 72.1552C100.945 72.3231 100.911 72.49 100.841 72.6425C100.77 72.795 100.665 72.9288 100.533 73.0332C100.402 73.1376 100.247 73.2097 100.083 73.2435C99.9183 73.2774 99.7481 73.2722 99.5859 73.2282L80.3173 68.0262C80.0986 67.9674 79.9041 67.841 79.7617 67.665C79.6192 67.489 79.5361 67.2725 79.5241 67.0464Z" fill="#9AD7E4"/>
<path d="M1011.04 119.79L1023.71 125.039C1023.91 125.121 1024.14 125.139 1024.35 125.09C1024.57 125.041 1024.76 124.928 1024.91 124.765C1025.06 124.602 1025.15 124.398 1025.18 124.18C1025.2 123.962 1025.16 123.74 1025.06 123.546L1018.25 111.136C1018.15 110.944 1018.1 110.727 1018.13 110.511C1018.15 110.295 1018.23 110.09 1018.37 109.922L1031.78 93.9897C1031.9 93.851 1032.05 93.7437 1032.21 93.6779C1032.38 93.612 1032.56 93.5897 1032.74 93.6129C1032.92 93.6362 1033.09 93.7043 1033.24 93.8109C1033.38 93.9176 1033.5 94.0593 1033.58 94.223L1064.84 162.246C1064.93 162.442 1064.96 162.66 1064.92 162.872C1064.89 163.085 1064.79 163.282 1064.64 163.438C1064.49 163.594 1064.3 163.702 1064.09 163.747C1063.88 163.793 1063.66 163.774 1063.46 163.693L997.396 137.029C997.24 136.966 997.101 136.866 996.991 136.739C996.88 136.611 996.801 136.459 996.761 136.296C996.72 136.132 996.718 135.961 996.755 135.797C996.793 135.633 996.869 135.479 996.976 135.35L1009.83 120.093C1009.97 119.919 1010.17 119.796 1010.39 119.741C1010.6 119.687 1010.84 119.704 1011.04 119.79Z" fill="#9AD7E4"/>
<path d="M745.598 362.398C741.329 362.291 737.07 361.956 732.838 361.395C732.583 361.37 732.335 361.293 732.111 361.169C731.886 361.046 731.689 360.878 731.532 360.676C731.374 360.474 731.26 360.242 731.195 359.994C731.13 359.746 731.116 359.487 731.154 359.234C731.192 358.981 731.281 358.738 731.416 358.52C731.551 358.302 731.728 358.114 731.938 357.967C732.148 357.82 732.386 357.717 732.637 357.665C732.887 357.612 733.146 357.611 733.397 357.662C733.397 357.662 738.063 358.362 745.714 358.642C746.176 358.694 746.603 358.914 746.913 359.26C747.223 359.607 747.394 360.055 747.394 360.52C747.394 360.985 747.223 361.433 746.913 361.78C746.603 362.126 746.176 362.346 745.714 362.398H745.598ZM768.226 361.721C767.755 361.713 767.303 361.533 766.955 361.215C766.607 360.897 766.387 360.463 766.336 359.995C766.291 359.497 766.444 359.002 766.763 358.617C767.083 358.232 767.541 357.99 768.039 357.942C772.215 357.546 776.367 356.962 780.379 356.263C780.623 356.219 780.873 356.225 781.115 356.279C781.356 356.333 781.585 356.435 781.787 356.578C781.988 356.721 782.16 356.903 782.291 357.114C782.422 357.324 782.509 357.558 782.549 357.802C782.596 358.045 782.593 358.294 782.542 358.536C782.491 358.777 782.391 359.006 782.25 359.208C782.109 359.41 781.928 359.582 781.719 359.713C781.51 359.845 781.276 359.933 781.032 359.972C776.927 360.718 772.681 361.278 768.412 361.698L768.226 361.721ZM802.611 354.303C802.169 354.298 801.743 354.138 801.407 353.851C801.071 353.564 800.847 353.169 800.772 352.734C800.697 352.299 800.777 351.851 800.998 351.469C801.219 351.086 801.566 350.793 801.981 350.641C805.871 349.289 809.686 347.732 813.411 345.975C813.866 345.759 814.388 345.732 814.863 345.9C815.337 346.068 815.726 346.419 815.942 346.873C816.159 347.328 816.186 347.85 816.017 348.325C815.849 348.799 815.499 349.188 815.044 349.404C811.196 351.231 807.256 352.859 803.24 354.28C803.033 354.322 802.82 354.329 802.611 354.303ZM833.45 337.624C833.165 337.627 832.884 337.563 832.629 337.437C832.374 337.311 832.151 337.128 831.98 336.901C831.826 336.708 831.711 336.487 831.642 336.25C831.574 336.013 831.553 335.765 831.582 335.519C831.61 335.274 831.686 335.037 831.807 334.822C831.927 334.606 832.089 334.417 832.283 334.265C835.517 331.725 838.58 328.974 841.451 326.03C841.805 325.68 842.283 325.483 842.781 325.483C843.279 325.483 843.757 325.68 844.11 326.03C844.287 326.204 844.427 326.411 844.522 326.639C844.618 326.867 844.667 327.112 844.667 327.36C844.667 327.607 844.618 327.852 844.522 328.08C844.427 328.309 844.287 328.516 844.11 328.689C841.126 331.762 837.939 334.63 834.569 337.274C834.242 337.505 833.85 337.627 833.45 337.624ZM856.357 311.17C856.04 311.165 855.729 311.085 855.448 310.937C855.228 310.82 855.034 310.66 854.877 310.467C854.72 310.273 854.603 310.051 854.533 309.811C854.464 309.572 854.443 309.322 854.472 309.074C854.501 308.827 854.579 308.588 854.701 308.371C856.66 304.774 858.336 301.03 859.717 297.174C859.781 296.919 859.899 296.68 860.061 296.474C860.223 296.267 860.426 296.096 860.658 295.972C860.89 295.848 861.145 295.774 861.407 295.755C861.67 295.735 861.933 295.771 862.181 295.859C862.428 295.947 862.655 296.085 862.846 296.266C863.037 296.446 863.188 296.665 863.29 296.907C863.392 297.149 863.442 297.41 863.437 297.673C863.432 297.936 863.373 298.195 863.262 298.433C861.819 302.452 860.064 306.352 858.014 310.097C857.857 310.407 857.622 310.669 857.331 310.857C857.04 311.046 856.704 311.154 856.357 311.17ZM866.365 277.578H866.155C865.906 277.552 865.665 277.477 865.446 277.357C865.226 277.237 865.033 277.075 864.877 276.88C864.72 276.684 864.605 276.46 864.536 276.22C864.467 275.979 864.446 275.727 864.475 275.479C864.919 271.63 865.175 267.571 865.292 263.092C865.304 262.599 865.509 262.13 865.862 261.786C866.215 261.442 866.688 261.249 867.181 261.249C867.681 261.267 868.153 261.48 868.497 261.842C868.842 262.204 869.031 262.686 869.024 263.185C868.908 267.851 868.628 271.933 868.185 275.899C868.144 276.355 867.935 276.779 867.599 277.09C867.263 277.4 866.823 277.574 866.365 277.578ZM866.785 242.377C866.302 242.377 865.837 242.19 865.489 241.855C865.141 241.52 864.937 241.064 864.919 240.581C864.755 237.385 864.592 234.166 864.429 230.9L864.266 228.031C864.253 227.782 864.29 227.534 864.373 227.3C864.457 227.066 864.585 226.851 864.752 226.666C864.919 226.482 865.121 226.333 865.345 226.227C865.57 226.12 865.814 226.06 866.062 226.048C866.562 226.028 867.049 226.206 867.419 226.541C867.79 226.877 868.014 227.345 868.045 227.844L868.185 230.69C868.371 233.956 868.535 237.198 868.674 240.418C868.687 240.665 868.65 240.912 868.566 241.144C868.483 241.377 868.353 241.591 868.186 241.773C868.019 241.955 867.818 242.103 867.593 242.206C867.368 242.31 867.125 242.368 866.878 242.377H866.785ZM865.292 207.199C864.797 207.193 864.323 206.995 863.971 206.647C863.618 206.299 863.414 205.828 863.402 205.333C863.402 203.863 863.402 202.393 863.402 200.924C863.402 198.078 863.402 195.302 863.519 192.666C863.519 192.165 863.718 191.684 864.073 191.33C864.427 190.975 864.908 190.776 865.409 190.776C865.91 190.776 866.39 190.975 866.745 191.33C867.099 191.684 867.298 192.165 867.298 192.666C867.298 195.255 867.298 198.008 867.298 200.807C867.298 202.253 867.298 203.723 867.298 205.169C867.304 205.667 867.114 206.146 866.77 206.504C866.425 206.862 865.952 207.07 865.455 207.082L865.292 207.199ZM867.298 172.044H867.018C866.774 172.01 866.54 171.928 866.327 171.802C866.115 171.677 865.93 171.511 865.783 171.313C865.635 171.116 865.528 170.891 865.468 170.652C865.408 170.413 865.396 170.165 865.432 169.921C866.038 165.652 866.808 161.453 867.765 157.394C867.876 156.906 868.177 156.481 868.601 156.214C869.026 155.947 869.539 155.86 870.027 155.971C870.516 156.083 870.941 156.384 871.208 156.808C871.474 157.232 871.562 157.745 871.45 158.234C870.564 162.177 869.818 166.306 869.118 170.458C869.057 170.902 868.841 171.309 868.508 171.608C868.174 171.907 867.746 172.078 867.298 172.091V172.044ZM876.139 138.009C875.908 138.054 875.671 138.054 875.439 138.009C875.003 137.823 874.652 137.481 874.453 137.05C874.255 136.618 874.224 136.129 874.366 135.676C875.276 133.344 876.256 131.011 877.306 128.678C878.006 127.092 878.752 125.529 879.498 124.012C879.724 123.564 880.119 123.223 880.596 123.066C881.073 122.908 881.593 122.947 882.041 123.173C882.49 123.399 882.83 123.793 882.988 124.27C883.145 124.747 883.107 125.267 882.881 125.715C882.135 127.162 881.435 128.678 880.758 130.194C879.732 132.527 878.775 134.743 877.889 137.053C877.724 137.37 877.471 137.633 877.161 137.811C876.851 137.989 876.496 138.074 876.139 138.056V138.009ZM1003.09 110.692C1002.73 110.694 1002.39 110.597 1002.09 110.412C998.656 108.313 995.087 106.26 991.215 104.324C990.787 104.085 990.469 103.69 990.328 103.221C990.186 102.752 990.232 102.246 990.456 101.811C990.68 101.375 991.064 101.044 991.527 100.886C991.991 100.728 992.498 100.756 992.941 100.965C996.813 102.948 1000.55 105.047 1004.07 107.193C1004.5 107.458 1004.8 107.881 1004.92 108.37C1005.04 108.859 1004.96 109.375 1004.7 109.806C1004.53 110.078 1004.29 110.303 1004.01 110.458C1003.73 110.613 1003.41 110.694 1003.09 110.692ZM894.008 107.963C893.639 107.961 893.279 107.85 892.972 107.645C892.665 107.44 892.424 107.15 892.28 106.81C892.137 106.47 892.095 106.096 892.162 105.733C892.229 105.369 892.4 105.034 892.655 104.767C895.622 101.623 898.905 98.7928 902.453 96.3226C902.865 96.0722 903.357 95.9887 903.828 96.089C904.299 96.1893 904.714 96.4659 904.988 96.8622C905.263 97.2585 905.375 97.7446 905.303 98.221C905.23 98.6974 904.979 99.1282 904.599 99.4251C901.244 101.712 898.139 104.347 895.338 107.287C895.167 107.487 894.956 107.651 894.72 107.767C894.483 107.883 894.225 107.95 893.962 107.963H894.008ZM971.223 95.6227C971.014 95.6567 970.802 95.6567 970.593 95.6227C966.581 94.2464 962.568 93.08 958.696 92.1702C958.433 92.1389 958.179 92.0525 957.951 91.9167C957.723 91.7808 957.527 91.5986 957.374 91.3818C957.222 91.165 957.116 90.9185 957.065 90.6583C957.014 90.3981 957.018 90.1301 957.077 89.8716C957.137 89.6132 957.25 89.3701 957.409 89.1582C957.568 88.9463 957.771 88.7703 958.003 88.6417C958.234 88.513 958.491 88.4346 958.755 88.4116C959.019 88.3885 959.285 88.4213 959.536 88.5078C963.691 89.4814 967.794 90.6649 971.829 92.0536C972.242 92.2054 972.589 92.4964 972.81 92.8765C973.032 93.2565 973.113 93.7019 973.041 94.1358C972.97 94.5696 972.749 94.9649 972.417 95.2533C972.085 95.5418 971.663 95.7054 971.223 95.7161V95.6227ZM924.171 90.9572C923.737 90.9508 923.319 90.7972 922.984 90.5217C922.649 90.2462 922.418 89.8651 922.328 89.4409C922.263 89.1909 922.249 88.9301 922.289 88.6747C922.328 88.4194 922.42 88.1748 922.558 87.9562C922.695 87.7375 922.876 87.5495 923.09 87.4036C923.303 87.2577 923.544 87.1572 923.798 87.1081C928.021 86.2354 932.316 85.759 936.628 85.6852C936.875 85.679 937.121 85.7219 937.351 85.8114C937.581 85.901 937.792 86.0354 937.97 86.2068C938.148 86.3783 938.29 86.5833 938.388 86.8101C938.486 87.0369 938.538 87.281 938.541 87.528C938.547 87.7762 938.504 88.0231 938.415 88.2548C938.326 88.4864 938.192 88.6982 938.021 88.878C937.849 89.0578 937.644 89.2021 937.418 89.3027C937.191 89.4033 936.946 89.4582 936.698 89.4642C932.621 89.5186 928.559 89.9638 924.568 90.7939L924.171 90.9572Z" fill="#2CACC8"/>
<path d="M274.963 336.248C274.715 336.242 274.471 336.187 274.244 336.086C274.017 335.986 273.812 335.841 273.641 335.661C273.47 335.482 273.336 335.27 273.246 335.038C273.157 334.807 273.114 334.56 273.121 334.312V333.145C273.121 331.232 273.12 327.22 272.607 321.901C272.569 321.404 272.728 320.911 273.052 320.53C273.375 320.15 273.836 319.913 274.334 319.872C274.579 319.846 274.828 319.87 275.064 319.943C275.301 320.015 275.52 320.134 275.709 320.293C275.899 320.452 276.054 320.647 276.166 320.867C276.279 321.088 276.346 321.328 276.363 321.575C276.83 327.033 276.9 331.162 276.9 333.238V334.498C276.864 334.983 276.643 335.435 276.282 335.761C275.921 336.087 275.449 336.261 274.963 336.248ZM270.858 301.256C270.434 301.254 270.023 301.11 269.689 300.848C269.355 300.586 269.118 300.221 269.015 299.81C268.049 295.793 266.873 291.83 265.492 287.936C265.354 287.475 265.395 286.978 265.607 286.546C265.819 286.114 266.186 285.777 266.635 285.603C267.097 285.46 267.596 285.498 268.029 285.71C268.463 285.923 268.799 286.294 268.968 286.746C270.403 290.77 271.626 294.865 272.631 299.017C272.697 299.262 272.713 299.518 272.678 299.77C272.642 300.021 272.557 300.263 272.426 300.481C272.296 300.698 272.123 300.888 271.917 301.037C271.712 301.186 271.478 301.293 271.231 301.35L270.858 301.256ZM257.048 269.041C256.746 269.045 256.447 268.975 256.179 268.836C255.91 268.698 255.68 268.496 255.508 268.248C253.165 264.924 250.483 261.851 247.507 259.08C247.33 258.906 247.19 258.699 247.095 258.471C246.999 258.243 246.95 257.998 246.95 257.75C246.95 257.503 246.999 257.258 247.095 257.029C247.19 256.801 247.33 256.594 247.507 256.421C247.861 256.07 248.338 255.874 248.836 255.874C249.334 255.874 249.812 256.07 250.166 256.421C253.332 259.37 256.185 262.637 258.681 266.171C258.824 266.375 258.925 266.605 258.979 266.848C259.033 267.09 259.038 267.341 258.995 267.586C258.951 267.831 258.86 268.065 258.726 268.275C258.592 268.484 258.418 268.665 258.214 268.808C257.859 269.004 257.449 269.078 257.048 269.017V269.041ZM229.428 248.302C229.235 248.338 229.037 248.338 228.845 248.302C224.973 247.103 220.985 246.321 216.948 245.97C216.472 245.896 216.043 245.643 215.747 245.264C215.451 244.884 215.311 244.406 215.356 243.927C215.401 243.448 215.626 243.004 215.987 242.686C216.348 242.367 216.817 242.199 217.297 242.214C221.605 242.586 225.86 243.423 229.988 244.71C230.413 244.849 230.775 245.134 231.01 245.515C231.245 245.896 231.337 246.348 231.27 246.79C231.203 247.233 230.981 247.637 230.643 247.931C230.306 248.225 229.875 248.39 229.428 248.396V248.302ZM194.436 245.83C190.167 245.83 185.898 245.596 181.769 245.34C181.521 245.325 181.278 245.261 181.055 245.152C180.831 245.043 180.631 244.891 180.466 244.705C180.302 244.519 180.175 244.301 180.095 244.066C180.014 243.831 179.981 243.582 179.996 243.334C180.032 242.834 180.263 242.369 180.638 242.038C181.013 241.706 181.503 241.535 182.003 241.561C186.062 241.841 190.284 242.004 194.483 242.051C194.984 242.051 195.465 242.25 195.819 242.604C196.173 242.958 196.373 243.439 196.373 243.94C196.373 244.441 196.173 244.922 195.819 245.276C195.465 245.631 194.984 245.83 194.483 245.83H194.436ZM159.445 242.774H159.118C154.849 242.051 150.674 241.211 146.661 240.254C146.419 240.196 146.191 240.091 145.99 239.945C145.788 239.798 145.618 239.614 145.488 239.401C145.358 239.189 145.271 238.953 145.232 238.707C145.193 238.461 145.203 238.21 145.262 237.968C145.32 237.726 145.425 237.498 145.572 237.297C145.718 237.096 145.902 236.925 146.115 236.795C146.327 236.665 146.563 236.578 146.809 236.539C147.055 236.501 147.306 236.51 147.548 236.569C151.467 237.525 155.572 238.342 159.748 239.065C160.195 239.163 160.59 239.419 160.862 239.787C161.134 240.154 161.263 240.608 161.226 241.063C161.189 241.519 160.988 241.946 160.661 242.265C160.333 242.583 159.901 242.773 159.445 242.797V242.774ZM125.526 233.443C125.279 233.442 125.033 233.394 124.803 233.303C120.791 231.647 116.895 229.827 113.139 227.891C112.697 227.653 112.367 227.248 112.223 226.767C112.079 226.286 112.131 225.767 112.37 225.325C112.608 224.882 113.012 224.553 113.493 224.408C113.974 224.264 114.493 224.317 114.936 224.555C118.596 226.489 122.357 228.226 126.203 229.757C126.609 229.923 126.945 230.225 127.153 230.611C127.361 230.998 127.428 231.444 127.343 231.875C127.257 232.305 127.024 232.693 126.684 232.97C126.345 233.248 125.919 233.398 125.48 233.396L125.526 233.443ZM95.4104 215.341C94.9582 215.347 94.5188 215.19 94.174 214.897C90.9357 212.094 87.8959 209.07 85.0763 205.846C84.7879 205.464 84.6553 204.987 84.7052 204.511C84.7551 204.035 84.9838 203.595 85.3451 203.281C85.7064 202.968 86.1735 202.802 86.6518 202.82C87.1301 202.837 87.5842 203.035 87.9222 203.373C90.6297 206.454 93.5446 209.345 96.6468 212.028C97.0012 212.35 97.2182 212.796 97.2529 213.274C97.2877 213.751 97.1375 214.224 96.8334 214.594C96.6692 214.819 96.4555 215.003 96.2088 215.133C95.962 215.262 95.6889 215.333 95.4104 215.341ZM73.9723 187.744C73.6158 187.732 73.2704 187.617 72.9769 187.415C72.6833 187.212 72.454 186.93 72.316 186.601C70.41 182.824 68.7502 178.928 67.3472 174.937C67.2569 174.701 67.215 174.448 67.224 174.195C67.233 173.942 67.2928 173.694 67.3997 173.464C67.5067 173.235 67.6586 173.029 67.8466 172.86C68.0345 172.69 68.2546 172.56 68.4938 172.477C68.733 172.394 68.9864 172.36 69.239 172.377C69.4916 172.394 69.7382 172.462 69.9641 172.576C70.1901 172.69 70.3908 172.848 70.5544 173.042C70.718 173.235 70.8411 173.459 70.9164 173.701C72.2194 177.586 73.778 181.381 75.5819 185.061C75.6942 185.283 75.7616 185.525 75.7802 185.773C75.7988 186.021 75.7682 186.271 75.6902 186.507C75.6121 186.743 75.4882 186.962 75.3255 187.15C75.1628 187.338 74.9646 187.493 74.7421 187.604C74.496 187.696 74.2352 187.744 73.9723 187.744ZM64.058 154.152C63.6023 154.151 63.1625 153.985 62.8196 153.685C62.4766 153.384 62.2537 152.971 62.1918 152.519C61.6553 148.437 61.3054 144.168 61.1421 139.829C61.1046 139.567 61.1226 139.3 61.195 139.045C61.2674 138.79 61.3925 138.554 61.5622 138.35C61.732 138.147 61.9425 137.982 62.1803 137.865C62.418 137.748 62.6776 137.683 62.9422 137.673C63.2068 137.663 63.4706 137.709 63.7163 137.808C63.9621 137.906 64.1844 138.056 64.3688 138.246C64.5532 138.436 64.6955 138.662 64.7867 138.911C64.8778 139.16 64.9157 139.425 64.8978 139.689C65.0611 143.888 65.411 148.04 65.9476 152.029C66.0074 152.526 65.8699 153.027 65.5646 153.424C65.2593 153.821 64.8105 154.082 64.3146 154.152H64.058ZM63.6615 118.951H63.4982C62.9987 118.903 62.5379 118.661 62.215 118.277C61.8921 117.893 61.733 117.398 61.7719 116.898C62.1452 112.792 62.6584 108.547 63.2882 104.278C63.3844 103.803 63.6593 103.383 64.0561 103.105C64.4529 102.827 64.9413 102.712 65.4205 102.784C65.8996 102.856 66.3328 103.109 66.6306 103.491C66.9284 103.873 67.068 104.355 67.0206 104.837C66.4141 109.036 65.9009 113.212 65.5277 117.224C65.4871 117.693 65.2734 118.129 64.9283 118.448C64.5832 118.767 64.1315 118.947 63.6615 118.951ZM69.4934 84.2391C69.3465 84.2615 69.197 84.2615 69.0501 84.2391C68.8027 84.182 68.5693 84.0756 68.3639 83.9263C68.1585 83.777 67.9853 83.5878 67.8547 83.3701C67.724 83.1523 67.6386 82.9105 67.6035 82.659C67.5685 82.4075 67.5844 82.1515 67.6505 81.9063C68.6069 77.894 69.6567 73.7883 70.8231 69.6593C70.8889 69.4219 71.0009 69.1998 71.1526 69.0056C71.3043 68.8115 71.4928 68.6491 71.7072 68.5278C71.9217 68.4065 72.1579 68.3286 72.4025 68.2986C72.647 68.2686 72.8951 68.2871 73.1325 68.3529C73.3699 68.4188 73.592 68.5308 73.7862 68.6825C73.9803 68.8342 74.1427 69.0227 74.264 69.2371C74.3853 69.4516 74.4631 69.6878 74.4931 69.9324C74.5232 70.1769 74.5047 70.425 74.4388 70.6624C73.3191 74.7447 72.2694 78.8271 71.3129 82.7694C71.2326 83.196 71.0079 83.582 70.6765 83.8623C70.3452 84.1427 69.9274 84.3005 69.4934 84.3091V84.2391Z" fill="#2CACC8"/>
<path d="M345.74 595.44V611.77L345.577 644.032H271.162C270.882 636.404 270.882 629.615 271.022 624.11C271.208 615.292 271.698 609.857 271.698 609.857C274.388 606.92 277.465 604.362 280.843 602.252C294.419 593.761 311.915 592.384 325.328 592.921C332.192 593.179 339.02 594.022 345.74 595.44Z" fill="url(#paint16_linear_430_8059)"/>
<path d="M400.792 643.939H321.361C321.46 633.498 322.137 623.07 323.391 612.704C330.513 606.537 337.974 600.774 345.739 595.441C364.797 582.401 390.061 569.781 396.546 588.443C397.623 591.562 398.488 594.749 399.136 597.984C402.332 613.1 401.958 630.456 400.792 643.939Z" fill="url(#paint17_linear_430_8059)"/>
<path d="M271.159 509.712C271.159 509.712 247.832 531.243 233.579 534.812C219.325 538.382 155.058 487.224 133.643 462.24C125.826 457.908 118.278 453.11 111.038 447.87C101.521 440.732 103.9 413.369 107.469 413.369C111.038 413.369 132.453 438.539 136.022 438.539C139.591 438.539 133.689 420.694 136.022 420.694C138.355 420.694 149.109 436.16 150.299 449.247C150.299 449.247 208.618 492.076 228.82 500.404C228.82 500.404 240.717 489.697 246.665 480.179C246.665 480.086 267.1 488.18 271.159 509.712Z" fill="url(#paint18_linear_430_8059)"/>
<path d="M306.129 399.186C306.129 399.186 303.797 403.851 291.853 408.703C279.909 413.555 268.082 426.549 259.754 443.205C251.426 459.861 240.719 486.034 240.719 486.034C240.719 486.034 256.185 512.208 277.6 509.829C299.015 507.449 306.129 399.186 306.129 399.186Z" fill="url(#paint19_linear_430_8059)"/>
<path d="M390.598 553.848C391.788 574.073 407.254 584.781 400.116 596.678C392.978 608.575 310.888 620.448 287.094 606.195C263.299 591.942 266.892 587.16 276.41 572.883C285.927 558.607 288.283 533.623 272.84 512.231C257.398 490.84 266.892 468.212 278.789 440.849C285.476 424.931 295.629 410.706 308.508 399.209L334.682 394.543C339.348 401.682 345.389 401.682 365.615 408.82C385.84 415.958 395.94 427.016 395.94 427.016L390.598 553.848Z" fill="url(#paint20_linear_430_8059)"/>
<path d="M332.465 292.788C332.465 292.788 329.596 275.292 346.462 271.793C364.307 268.224 379.774 295.587 370.256 332.445C360.738 369.303 370.256 375.275 370.256 375.275C370.256 375.275 346.788 374.855 344.082 324.117L332.465 292.788Z" fill="url(#paint21_linear_430_8059)"/>
<path d="M330.95 294.071L334.683 290.945C334.683 290.945 348.959 296.894 350.149 321.854L341.821 326.52L330.95 294.071Z" fill="#FFF6EE"/>
<path d="M277.598 359.924C277.598 359.924 262.108 333.587 269.27 313.526C275.218 296.893 287.092 306.527 287.092 306.527C287.092 306.527 291.758 288.682 315.645 288.682C338.296 288.682 347.767 318.401 345.388 336.247C342.239 359.948 327.542 376.697 329.922 387.404C332.301 398.112 277.598 359.924 277.598 359.924Z" fill="url(#paint22_linear_430_8059)"/>
<path d="M327.543 357.545C327.543 357.545 327.543 390.857 341.82 401.564C340.576 407.817 337.131 413.417 332.11 417.347C327.089 421.276 320.825 423.275 314.456 422.979C290.662 422.979 295.421 413.461 301.369 406.323C307.318 399.185 304.939 394.426 304.939 387.288C304.939 380.149 327.543 357.545 327.543 357.545Z" fill="url(#paint23_linear_430_8059)"/>
<path d="M275.266 345.648C275.266 345.648 278.158 384.745 294.278 394.426C306.175 401.564 326.4 370.632 327.59 358.735C327.59 358.735 335.918 357.545 334.728 345.648C333.538 333.751 324.02 337.32 322.831 355.166C318.798 351.431 316.261 346.356 315.692 340.889C315.692 340.889 295.467 337.32 290.709 320.664C290.662 320.664 288.282 338.51 275.266 345.648Z" fill="url(#paint24_linear_430_8059)"/>
<path d="M414.393 515.777C414.393 515.777 411.127 555.177 407.254 559.843C400.116 568.171 300.18 601.483 300.18 601.483C300.18 601.483 295.515 611 285.904 613.356C276.293 615.713 266.892 631.202 262.133 628.823C257.374 626.443 258.564 620.495 259.8 609.811C261.037 599.127 269.318 590.775 275.266 589.586C281.215 588.396 290.709 587.253 290.709 587.253C290.709 587.253 364.471 543.234 372.799 537.285C374.37 531.062 375.153 524.667 375.132 518.25L414.393 515.777Z" fill="url(#paint25_linear_430_8059)"/>
<path d="M416.772 515.777C416.772 515.777 415.582 434.877 391.788 424.169C367.994 413.462 367.994 453.912 370.373 472.948C372.146 487.154 371.563 518.157 371.563 518.157C371.563 518.157 391.905 528.864 416.772 515.777Z" fill="url(#paint26_linear_430_8059)"/>
<path d="M761.763 407.186C761.763 407.186 760.574 372.685 759.43 336.994C758.287 301.302 753.482 289.428 738.016 291.808C738.016 291.808 733.35 269.203 702.324 283.48C671.299 297.756 673.725 347.701 672.582 370.305C671.753 385.188 669.361 399.943 665.443 414.325C665.443 414.325 739.159 450.016 761.763 407.186Z" fill="url(#paint27_linear_430_8059)"/>
<path d="M787.331 643.939H641.16C642.486 631.152 645.184 618.545 649.208 606.335C650.61 601.976 652.562 597.813 655.017 593.948C655.275 593.538 655.563 593.148 655.88 592.782L659.892 592.455L774.851 583.171C775.481 584.594 776.087 586.04 776.647 587.533C783.575 605.589 786.282 627.867 787.331 643.939Z" fill="url(#paint28_linear_430_8059)"/>
<path d="M825.287 452.84C825.287 452.84 865.271 408.377 881.927 381.014C881.927 381.014 886.592 358.409 891.421 353.65C896.25 348.891 894.99 367.927 894.99 367.927C899.083 361.063 902.662 353.905 905.698 346.512C909.267 336.994 918.784 345.322 919.974 361.978C921.164 378.634 896.18 391.721 896.18 391.721C896.18 391.721 864.921 455.499 846.655 481.323L825.287 452.84Z" fill="url(#paint29_linear_430_8059)"/>
<path d="M849.804 477.38C849.804 477.38 833.148 499.984 818.871 501.174C812.946 501.664 805.015 498.678 797.713 495.039C791.238 491.722 785.002 487.957 779.051 483.772L778.421 483.328C778.421 483.328 778.258 485.031 777.675 488.297C775.625 498.768 772.691 509.045 768.903 519.02C760.575 541.624 768.903 559.47 774.852 572.557C780.801 585.644 781.99 591.592 745.109 603.489C708.228 615.386 659.45 598.824 653.502 592.782C647.553 586.74 661.83 546.383 664.209 533.296C665.492 526.298 662.693 512.885 659.8 501.897C657.281 492.286 654.691 484.518 654.691 484.518C654.691 484.518 650.842 488.741 646.06 494.153C638.432 502.784 628.518 514.448 628.518 516.64C628.518 520.21 632.087 529.727 632.087 529.727C624.948 536.865 602.344 542.814 602.344 542.814C586.878 522.589 594.016 510.692 601.807 492.24C609.599 473.787 635.656 417.894 647.553 409.566C655.656 404.366 664.974 401.367 674.59 400.865C715.903 414.862 739.161 403.618 751.268 402.358C763.375 401.099 773.662 405.997 784.37 417.894C795.077 429.792 814.136 457.202 817.682 457.202C821.227 457.202 828.389 450.063 828.389 450.063C843.855 459.534 849.804 477.38 849.804 477.38Z" fill="url(#paint30_linear_430_8059)"/>
<path d="M696.33 351.27C696.33 351.27 698.663 378.633 691.664 389.341C689.476 392.522 686.657 395.22 683.382 397.267C680.108 399.313 676.448 400.665 672.629 401.238C672.629 401.238 679.767 404.807 696.423 415.514C713.079 426.222 739.253 434.55 757.075 402.428C757.075 402.428 734.471 403.617 728.522 392.91C721.01 379.403 726.189 369.116 726.189 369.116L696.33 351.27Z" fill="url(#paint31_linear_430_8059)"/>
<path d="M746.881 329.762C746.881 329.762 746.881 378.517 731.881 381.083C725.466 382.156 714.176 378.4 707.037 371.565C701.739 366.158 697.679 359.662 695.14 352.53C691.77 349.466 688.953 345.844 686.812 341.823C684.969 337.857 686.649 334.171 688.002 333.495C697.566 328.829 698.15 346.068 698.15 346.068C700.868 343.03 702.935 339.468 704.222 335.6C705.51 331.732 705.992 327.641 705.638 323.58C705.638 323.58 724.3 322.321 730.645 306.085C730.645 306.015 735.637 324.747 746.881 329.762Z" fill="url(#paint32_linear_430_8059)"/>
<path d="M779.143 483.771C779.726 479.292 779.306 471.011 773.754 457.154C764.236 433.36 771.421 422.653 771.421 422.653C771.421 422.653 770.232 440.498 785.698 460.724C793.076 470.693 797.293 482.647 797.805 495.039C791.33 491.722 785.094 487.957 779.143 483.771Z" fill="#1F1C1C"/>
<path d="M672.536 460.723L659.8 501.896C657.28 492.285 654.691 484.517 654.691 484.517C654.691 484.517 650.842 488.74 646.06 494.152L672.536 460.723Z" fill="#1F1C1C"/>
<path d="M600.944 540.901C600.944 540.901 624.949 574.937 638.035 591.592C651.122 608.248 655.881 617.766 663.019 616.576C670.158 615.387 674.916 609.438 677.296 608.248C679.675 607.059 692.762 618.956 698.711 618.956C704.659 618.956 697.521 595.162 690.383 591.592C683.244 588.023 664.209 602.3 664.209 602.3L631.34 527.651C627.783 532.222 623.137 535.829 617.828 538.144C612.519 540.458 606.714 541.406 600.944 540.901Z" fill="url(#paint33_linear_430_8059)"/>
<path d="M439.376 597.167C436.977 608.903 436.192 620.911 437.044 632.859H508.426C509.172 620.973 509.172 609.053 508.426 597.167H439.376Z" fill="url(#paint34_linear_430_8059)"/>
<path d="M570.244 590.169C572.584 604.318 573.475 618.669 572.903 632.998H501.544C500.798 621.113 500.798 609.193 501.544 597.307L570.244 590.169Z" fill="url(#paint35_linear_430_8059)"/>
<path d="M494.103 362.84C494.103 362.84 482.206 368.789 466.74 374.737C451.273 380.686 426.289 392.583 419.151 410.405C412.013 428.228 412.013 472.27 408.444 479.408C404.875 486.547 402.495 488.926 406.111 492.495C409.727 496.064 397.783 507.378 410.287 513.024C417.274 516.293 424.675 518.592 432.285 519.859L445.371 516.289C446.001 529.422 445.219 542.584 443.039 555.55C439.469 573.396 433.521 590.052 439.469 597.19C445.418 604.328 470.402 607.897 513.232 606.707C556.061 605.518 575.096 592.431 571.551 582.913C568.005 573.396 562.033 532.945 563.223 494.875L598.774 496.881C598.774 496.881 606.029 487.736 602.46 481.788C598.891 475.839 607.125 475.839 604.793 468.701C600.742 457.546 597.949 445.974 596.465 434.199C594.132 416.354 586.947 392.583 572.694 384.255C558.441 375.927 521.583 367.599 517.99 362.84C514.398 358.081 494.103 362.84 494.103 362.84Z" fill="url(#paint36_linear_430_8059)"/>
<path d="M447.706 472.271L444.136 419.877C444.136 419.877 435.808 476.983 436.998 487.69C438.188 498.398 567.866 484.121 567.866 484.121C567.866 484.121 567.866 442.481 561.918 419.877L557.252 476.983L447.706 472.271Z" fill="#EF3C6B"/>
<path d="M450.62 482.279C450.62 482.279 421.531 485.358 412.013 504.393C402.495 523.429 429.859 529.377 465.55 513.911C501.241 498.445 515.518 488.927 528.535 486.548C541.552 484.168 498.862 478.196 498.862 478.196C482.698 478.265 466.566 479.63 450.62 482.279Z" fill="url(#paint37_linear_430_8059)"/>
<path d="M482.275 352.087C482.275 352.087 490.533 361.651 489.274 378.307C488.014 394.963 508.309 402.101 520.206 393.773C532.103 385.445 522.539 378.307 523.775 349.754L482.275 352.087Z" fill="url(#paint38_linear_430_8059)"/>
<path d="M477.307 331.816C477.307 331.816 476.398 327.36 469.726 328.153C463.054 328.946 472.059 349.148 484.212 349.801L526.855 351.737C526.855 351.737 539.662 344.576 538.006 332.352C536.35 320.128 521.373 333.798 521.373 333.798L477.307 331.816Z" fill="url(#paint39_linear_430_8059)"/>
<path d="M474.299 325.05C474.299 325.05 483.117 374.039 505.161 375.042C527.206 376.045 532.851 324.397 532.851 324.397L523.94 301.886L517.665 293.908L484.61 292.415L479.757 302.119L474.299 325.05Z" fill="url(#paint40_linear_430_8059)"/>
<path d="M485.214 305.571C485.214 305.571 480.759 330.765 475.347 328.316C469.935 325.866 464.266 304.615 464.569 297.99C464.873 291.365 467.322 285.953 474.833 290.712C474.833 290.712 467.462 282.664 473.317 275.199C479.172 267.734 488.107 265.868 505.626 268.924C523.145 271.979 537.958 262.648 541.247 262.812C544.537 262.975 538.448 275.922 538.448 275.922C538.448 275.922 546.473 269.67 548.665 269.763C550.858 269.857 547.779 289.592 540.897 294.817C540.897 294.817 537.818 330.299 531.706 327.476C526.294 325.027 521.769 302.725 521.769 302.725C521.769 302.725 510.268 311.217 485.214 305.571Z" fill="url(#paint41_linear_430_8059)"/>
<path d="M599.964 491.305C601.901 501.92 579.763 511.53 541.645 498.444C503.528 485.357 469.073 474.649 469.073 474.649C469.073 474.649 460.745 481.788 439.33 484.167C439.33 484.167 439.33 467.511 448.848 462.752C458.365 457.994 469.073 460.42 475.021 460.42C480.97 460.42 538.006 462.752 559.491 467.558C580.976 472.363 597.585 478.195 599.964 491.305Z" fill="url(#paint42_linear_430_8059)"/>
<path d="M922.866 644.009H101.499C99.9478 644.003 98.462 643.384 97.3653 642.288C96.2686 641.191 95.6497 639.705 95.6436 638.154C95.6435 637.383 95.7958 636.62 96.0915 635.908C96.3872 635.196 96.8206 634.55 97.3668 634.006C97.9129 633.462 98.5612 633.031 99.2743 632.738C99.9873 632.445 100.751 632.296 101.522 632.299H922.889C923.66 632.296 924.424 632.445 925.137 632.738C925.85 633.031 926.498 633.462 927.044 634.006C927.591 634.55 928.024 635.196 928.32 635.908C928.615 636.62 928.768 637.383 928.768 638.154C928.765 638.926 928.609 639.69 928.311 640.402C928.013 641.114 927.577 641.76 927.029 642.304C926.481 642.848 925.832 643.278 925.117 643.571C924.403 643.863 923.638 644.012 922.866 644.009Z" fill="#9AD7E4"/>
<path d="M273.586 175.917C291.159 175.917 305.404 161.671 305.404 144.098C305.404 126.525 291.159 112.279 273.586 112.279C256.012 112.279 241.767 126.525 241.767 144.098C241.767 161.671 256.012 175.917 273.586 175.917Z" fill="#9AD7E4"/>
<path d="M267.614 174.26C265.327 168.016 263.93 161.483 263.461 154.851C263.461 154.151 263.461 153.451 263.298 152.728C263.088 149.975 262.995 147.106 262.995 144.097C262.995 141.088 262.995 138.195 263.298 135.466C263.298 134.742 263.298 134.019 263.461 133.32C263.93 126.687 265.327 120.154 267.614 113.911C267.8 113.514 267.963 113.118 268.127 112.745C268.29 112.371 268.5 111.951 268.687 111.578C267.777 111.718 266.89 111.881 266.004 112.091C265.817 112.488 265.654 112.908 265.491 113.328C265.327 113.748 265.164 114.121 265.024 114.541C263.004 120.686 261.742 127.055 261.268 133.506C261.268 134.206 261.268 134.906 261.128 135.629C260.919 138.428 260.825 141.274 260.825 144.097C260.825 146.92 260.825 149.742 261.128 152.541C261.128 153.265 261.128 153.964 261.268 154.664C261.727 161.114 262.973 167.483 264.978 173.63C265.117 174.05 265.281 174.446 265.444 174.843C265.607 175.239 265.771 175.683 265.957 176.079C266.842 176.297 267.737 176.469 268.64 176.592C268.453 176.219 268.267 175.846 268.08 175.426C267.893 175.006 267.8 174.656 267.614 174.26ZM286.019 135.629C286.019 134.906 286.019 134.206 285.856 133.506C285.433 127.062 284.227 120.693 282.263 114.541C282.1 114.121 281.96 113.724 281.797 113.328C281.633 112.931 281.47 112.488 281.284 112.091C280.397 111.881 279.511 111.718 278.578 111.578C278.787 111.951 278.974 112.325 279.161 112.745L279.651 113.911C281.958 120.149 283.364 126.684 283.826 133.32C283.826 134.019 283.943 134.742 283.99 135.466C284.176 138.195 284.293 141.064 284.293 144.097C284.293 147.129 284.293 149.975 283.99 152.728C283.99 153.451 283.99 154.151 283.826 154.851C283.364 161.486 281.958 168.021 279.651 174.26L279.161 175.426C278.974 175.846 278.787 176.219 278.578 176.592C279.488 176.471 280.392 176.299 281.284 176.079C281.47 175.683 281.633 175.286 281.797 174.843C281.96 174.4 282.1 174.05 282.263 173.63C284.259 167.481 285.496 161.112 285.949 154.664C285.949 153.964 285.949 153.265 286.112 152.541C286.322 149.742 286.416 146.92 286.416 144.097C286.416 141.274 286.229 138.428 286.019 135.629Z" fill="#2CACC8"/>
<path d="M305.849 137.729L304.659 137.239L303.493 136.842C297.759 135.067 291.843 133.948 285.857 133.507L283.734 133.32C280.398 133.087 276.969 132.947 273.587 132.947C270.204 132.947 266.798 133.087 263.462 133.32L261.316 133.507C255.338 133.949 249.43 135.069 243.704 136.842L242.537 137.239L241.324 137.729C241.184 138.545 241.044 139.362 240.951 140.202C241.322 140.008 241.703 139.837 242.094 139.688L243.214 139.245C249.026 137.293 255.061 136.078 261.176 135.629L263.299 135.466C266.518 135.21 269.971 135.07 273.587 135.07C277.202 135.07 280.585 135.21 283.897 135.466L286.02 135.629C292.128 136.078 298.155 137.292 303.959 139.245L305.102 139.688C305.499 139.852 305.895 140.015 306.245 140.202C306.152 139.362 306.012 138.545 305.849 137.729ZM305.102 148.483C304.73 148.653 304.348 148.801 303.959 148.926C298.155 150.879 292.128 152.094 286.02 152.542L283.897 152.729C280.678 152.962 277.226 153.102 273.587 153.102C269.947 153.102 266.588 152.962 263.299 152.729L261.27 152.542C255.154 152.094 249.12 150.879 243.307 148.926C242.911 148.786 242.537 148.646 242.188 148.483C241.797 148.335 241.415 148.164 241.044 147.97C241.044 148.81 241.278 149.626 241.418 150.443L242.631 150.932L243.797 151.352C249.482 153.095 255.341 154.206 261.27 154.665L263.416 154.851C266.752 155.108 270.157 155.225 273.54 155.225C276.922 155.225 280.352 155.225 283.687 154.851L285.81 154.665C291.794 154.218 297.709 153.107 303.446 151.352L304.612 150.932L305.802 150.443C305.965 149.626 306.105 148.81 306.199 147.97C305.895 148.156 305.592 148.32 305.102 148.483Z" fill="#2CACC8"/>
<path d="M306.246 140.202C306.246 139.362 306.013 138.546 305.85 137.729C304.626 131.541 301.652 125.834 297.281 121.286C292.911 116.737 287.327 113.539 281.192 112.069C280.306 111.859 279.419 111.696 278.486 111.556C276.865 111.312 275.227 111.187 273.587 111.183C271.948 111.189 270.31 111.314 268.689 111.556C267.779 111.696 266.892 111.859 266.006 112.069C259.871 113.542 254.286 116.742 249.913 121.29C245.539 125.837 242.559 131.542 241.325 137.729C241.185 138.546 241.045 139.362 240.952 140.202C240.641 142.782 240.641 145.39 240.952 147.97C240.952 148.81 241.185 149.627 241.325 150.443C242.559 156.631 245.539 162.336 249.913 166.883C254.286 171.43 259.871 174.63 266.006 176.104C266.891 176.322 267.786 176.493 268.689 176.617C270.309 176.87 271.947 176.995 273.587 176.99C275.228 176.997 276.866 176.872 278.486 176.617C279.397 176.495 280.3 176.324 281.192 176.104C287.327 174.634 292.911 171.435 297.281 166.887C301.652 162.338 304.626 156.631 305.85 150.443C306.013 149.627 306.153 148.81 306.246 147.97C306.557 145.39 306.557 142.782 306.246 140.202ZM304.357 144.098C304.356 145.716 304.223 147.331 303.96 148.927C303.843 149.743 303.68 150.56 303.494 151.26C302.223 156.521 299.594 161.356 295.869 165.282C292.143 169.208 287.453 172.087 282.265 173.631C281.406 173.887 280.534 174.098 279.653 174.261C277.685 174.646 275.685 174.841 273.681 174.844C271.676 174.839 269.677 174.644 267.709 174.261C266.835 174.098 265.971 173.887 265.12 173.631C259.924 172.113 255.219 169.256 251.477 165.346C247.735 161.435 245.086 156.61 243.798 151.353C243.611 150.56 243.448 149.743 243.308 149.02C243.053 147.423 242.928 145.808 242.935 144.191C242.929 142.566 243.054 140.944 243.308 139.339C243.448 138.523 243.611 137.706 243.798 137.006C245.083 131.745 247.729 126.915 251.472 123C255.215 119.086 259.921 116.225 265.12 114.705C265.959 114.472 266.846 114.239 267.709 114.075C269.677 113.692 271.676 113.497 273.681 113.492C275.685 113.494 277.685 113.69 279.653 114.075C280.539 114.239 281.402 114.472 282.265 114.705C287.461 116.229 292.166 119.091 295.908 123.005C299.65 126.919 302.298 131.747 303.587 137.006C303.773 137.776 303.937 138.593 304.053 139.339C304.279 140.915 304.381 142.506 304.357 144.098Z" fill="#2CACC8"/>
<defs>
<linearGradient id="paint0_linear_430_8059" x1="402.216" y1="558.653" x2="500.612" y2="460.257" gradientUnits="userSpaceOnUse">
<stop stop-color="#236978"/>
<stop offset="1" stop-color="#2CACC8"/>
</linearGradient>
<linearGradient id="paint1_linear_430_8059" x1="428.409" y1="375.947" x2="428.058" y2="374.668" gradientUnits="userSpaceOnUse">
<stop stop-color="#EB2B4D"/>
<stop offset="0.18" stop-color="#EF2E51"/>
<stop offset="1" stop-color="#FC3B5F"/>
</linearGradient>
<linearGradient id="paint2_linear_430_8059" x1="443.809" y1="397.653" x2="442.929" y2="394.444" gradientUnits="userSpaceOnUse">
<stop stop-color="#EB2B4D"/>
<stop offset="0.18" stop-color="#EF2E51"/>
<stop offset="1" stop-color="#FC3B5F"/>
</linearGradient>
<linearGradient id="paint3_linear_430_8059" x1="358.242" y1="584.174" x2="409.283" y2="511.998" gradientUnits="userSpaceOnUse">
<stop stop-color="#236978"/>
<stop offset="1" stop-color="#2CACC8"/>
</linearGradient>
<linearGradient id="paint4_linear_430_8059" x1="646.852" y1="573.98" x2="548.456" y2="475.584" gradientUnits="userSpaceOnUse">
<stop stop-color="#236978"/>
<stop offset="1" stop-color="#2CACC8"/>
</linearGradient>
<linearGradient id="paint5_linear_430_8059" x1="569.574" y1="398.432" x2="569.926" y2="397.153" gradientUnits="userSpaceOnUse">
<stop stop-color="#EB2B4D"/>
<stop offset="0.18" stop-color="#EF2E51"/>
<stop offset="1" stop-color="#FC3B5F"/>
</linearGradient>
<linearGradient id="paint6_linear_430_8059" x1="554.152" y1="420.133" x2="555.032" y2="416.924" gradientUnits="userSpaceOnUse">
<stop stop-color="#EB2B4D"/>
<stop offset="0.18" stop-color="#EF2E51"/>
<stop offset="1" stop-color="#FC3B5F"/>
</linearGradient>
<linearGradient id="paint7_linear_430_8059" x1="675.498" y1="584.174" x2="624.457" y2="511.998" gradientUnits="userSpaceOnUse">
<stop stop-color="#236978"/>
<stop offset="1" stop-color="#2CACC8"/>
</linearGradient>
<linearGradient id="paint8_linear_430_8059" x1="232.048" y1="678.391" x2="111.288" y2="695.468" gradientUnits="userSpaceOnUse">
<stop stop-color="#2CACC8"/>
<stop offset="1" stop-color="#2CACC8"/>
</linearGradient>
<linearGradient id="paint9_linear_430_8059" x1="237.062" y1="652.712" x2="133.407" y2="637.831" gradientUnits="userSpaceOnUse">
<stop stop-color="#236978"/>
<stop offset="1" stop-color="#2CACC8"/>
</linearGradient>
<linearGradient id="paint10_linear_430_8059" x1="267.288" y1="631.925" x2="144.721" y2="550.274" gradientUnits="userSpaceOnUse">
<stop stop-color="#236978"/>
<stop offset="1" stop-color="#2CACC8"/>
</linearGradient>
<linearGradient id="paint11_linear_430_8059" x1="321.293" y1="571.546" x2="210.245" y2="533.707" gradientUnits="userSpaceOnUse">
<stop stop-color="#236978"/>
<stop offset="1" stop-color="#2CACC8"/>
</linearGradient>
<linearGradient id="paint12_linear_430_8059" x1="803.79" y1="637.645" x2="924.574" y2="654.726" gradientUnits="userSpaceOnUse">
<stop stop-color="#236978"/>
<stop offset="1" stop-color="#2CACC8"/>
</linearGradient>
<linearGradient id="paint13_linear_430_8059" x1="798.796" y1="611.993" x2="902.455" y2="597.088" gradientUnits="userSpaceOnUse">
<stop stop-color="#236978"/>
<stop offset="1" stop-color="#2CACC8"/>
</linearGradient>
<linearGradient id="paint14_linear_430_8059" x1="768.569" y1="591.206" x2="891.14" y2="509.532" gradientUnits="userSpaceOnUse">
<stop stop-color="#236978"/>
<stop offset="1" stop-color="#2CACC8"/>
</linearGradient>
<linearGradient id="paint15_linear_430_8059" x1="714.568" y1="530.804" x2="825.613" y2="492.988" gradientUnits="userSpaceOnUse">
<stop stop-color="#236978"/>
<stop offset="1" stop-color="#2CACC8"/>
</linearGradient>
<linearGradient id="paint16_linear_430_8059" x1="270.858" y1="618.348" x2="345.74" y2="618.348" gradientUnits="userSpaceOnUse">
<stop stop-color="#4944A8"/>
<stop offset="1" stop-color="#302B92"/>
</linearGradient>
<linearGradient id="paint17_linear_430_8059" x1="321.361" y1="611.444" x2="401.632" y2="611.444" gradientUnits="userSpaceOnUse">
<stop stop-color="#4944A8"/>
<stop offset="1" stop-color="#302B92"/>
</linearGradient>
<linearGradient id="paint18_linear_430_8059" x1="170.361" y1="528.374" x2="187.343" y2="466.719" gradientUnits="userSpaceOnUse">
<stop stop-color="#F9C795"/>
<stop offset="1" stop-color="#FEE3C2"/>
</linearGradient>
<linearGradient id="paint19_linear_430_8059" x1="298.175" y1="464.876" x2="263.79" y2="437.186" gradientUnits="userSpaceOnUse">
<stop stop-color="#8BB8F8"/>
<stop offset="1" stop-color="#CCE0FF"/>
</linearGradient>
<linearGradient id="paint20_linear_430_8059" x1="412.526" y1="540.178" x2="290.033" y2="492.356" gradientUnits="userSpaceOnUse">
<stop stop-color="#8BB8F8"/>
<stop offset="1" stop-color="#CCE0FF"/>
</linearGradient>
<linearGradient id="paint21_linear_430_8059" x1="347.675" y1="329.552" x2="380.66" y2="309.141" gradientUnits="userSpaceOnUse">
<stop stop-color="#92594F"/>
<stop offset="1" stop-color="#DB866A"/>
</linearGradient>
<linearGradient id="paint22_linear_430_8059" x1="335.1" y1="359.411" x2="268.407" y2="288.938" gradientUnits="userSpaceOnUse">
<stop stop-color="#92594F"/>
<stop offset="1" stop-color="#DB866A"/>
</linearGradient>
<linearGradient id="paint23_linear_430_8059" x1="315.786" y1="386.098" x2="323.951" y2="440.848" gradientUnits="userSpaceOnUse">
<stop stop-color="#F9C795"/>
<stop offset="1" stop-color="#FEE3C2"/>
</linearGradient>
<linearGradient id="paint24_linear_430_8059" x1="343.336" y1="398.345" x2="301.813" y2="355.562" gradientUnits="userSpaceOnUse">
<stop stop-color="#F9C795"/>
<stop offset="1" stop-color="#FEE3C2"/>
</linearGradient>
<linearGradient id="paint25_linear_430_8059" x1="348.305" y1="590.355" x2="331.323" y2="561.406" gradientUnits="userSpaceOnUse">
<stop stop-color="#F9C795"/>
<stop offset="1" stop-color="#FEE3C2"/>
</linearGradient>
<linearGradient id="paint26_linear_430_8059" x1="420.201" y1="474.744" x2="374.059" y2="471.385" gradientUnits="userSpaceOnUse">
<stop stop-color="#8BB8F8"/>
<stop offset="1" stop-color="#CCE0FF"/>
</linearGradient>
<linearGradient id="paint27_linear_430_8059" x1="706.29" y1="417.054" x2="739.859" y2="280.307" gradientUnits="userSpaceOnUse">
<stop stop-color="#494443"/>
<stop offset="1" stop-color="#66605F"/>
</linearGradient>
<linearGradient id="paint28_linear_430_8059" x1="641.16" y1="613.59" x2="787.331" y2="613.59" gradientUnits="userSpaceOnUse">
<stop stop-color="#302B92"/>
<stop offset="1" stop-color="#4944A8"/>
</linearGradient>
<linearGradient id="paint29_linear_430_8059" x1="892.354" y1="422.187" x2="867.23" y2="402.848" gradientUnits="userSpaceOnUse">
<stop stop-color="#E07288"/>
<stop offset="1" stop-color="#F49F90"/>
</linearGradient>
<linearGradient id="paint30_linear_430_8059" x1="696.354" y1="604.516" x2="738.298" y2="424.986" gradientUnits="userSpaceOnUse">
<stop/>
<stop offset="1" stop-color="#454545"/>
</linearGradient>
<linearGradient id="paint31_linear_430_8059" x1="712.216" y1="370.445" x2="717.231" y2="432.1" gradientUnits="userSpaceOnUse">
<stop stop-color="#E07288"/>
<stop offset="1" stop-color="#F49F90"/>
</linearGradient>
<linearGradient id="paint32_linear_430_8059" x1="681.377" y1="377.817" x2="724.183" y2="347.631" gradientUnits="userSpaceOnUse">
<stop stop-color="#E07288"/>
<stop offset="1" stop-color="#F49F90"/>
</linearGradient>
<linearGradient id="paint33_linear_430_8059" x1="632.787" y1="590.939" x2="660.477" y2="573.327" gradientUnits="userSpaceOnUse">
<stop stop-color="#E07288"/>
<stop offset="1" stop-color="#F49F90"/>
</linearGradient>
<linearGradient id="paint34_linear_430_8059" x1="436.764" y1="615.036" x2="508.893" y2="615.036" gradientUnits="userSpaceOnUse">
<stop stop-color="#4944A8"/>
<stop offset="1" stop-color="#302B92"/>
</linearGradient>
<linearGradient id="paint35_linear_430_8059" x1="500.984" y1="611.467" x2="573.136" y2="611.467" gradientUnits="userSpaceOnUse">
<stop stop-color="#4944A8"/>
<stop offset="1" stop-color="#302B92"/>
</linearGradient>
<linearGradient id="paint36_linear_430_8059" x1="504.74" y1="621.917" x2="504.74" y2="409.216" gradientUnits="userSpaceOnUse">
<stop stop-color="#F7376A"/>
<stop offset="1" stop-color="#F7726A"/>
</linearGradient>
<linearGradient id="paint37_linear_430_8059" x1="487.968" y1="509.735" x2="431.982" y2="482.045" gradientUnits="userSpaceOnUse">
<stop stop-color="#FAABA8"/>
<stop offset="1" stop-color="#FEE3D1"/>
</linearGradient>
<linearGradient id="paint38_linear_430_8059" x1="504.553" y1="372.918" x2="506.023" y2="405.437" gradientUnits="userSpaceOnUse">
<stop stop-color="#FAABA8"/>
<stop offset="1" stop-color="#FEE3D1"/>
</linearGradient>
<linearGradient id="paint39_linear_430_8059" x1="467.237" y1="336.642" x2="537.941" y2="339.841" gradientUnits="userSpaceOnUse">
<stop stop-color="#FAABA8"/>
<stop offset="1" stop-color="#FEE3D1"/>
</linearGradient>
<linearGradient id="paint40_linear_430_8059" x1="563.04" y1="369.371" x2="496.465" y2="325.985" gradientUnits="userSpaceOnUse">
<stop stop-color="#FAABA8"/>
<stop offset="1" stop-color="#FEE3D1"/>
</linearGradient>
<linearGradient id="paint41_linear_430_8059" x1="504.874" y1="329.518" x2="507.503" y2="271.398" gradientUnits="userSpaceOnUse">
<stop stop-color="#773D4F"/>
<stop offset="1" stop-color="#AB5656"/>
</linearGradient>
<linearGradient id="paint42_linear_430_8059" x1="514.352" y1="502.246" x2="529.445" y2="456.944" gradientUnits="userSpaceOnUse">
<stop stop-color="#FAABA8"/>
<stop offset="1" stop-color="#FEE3D1"/>
</linearGradient>
</defs>
</svg>
