<svg width="30" height="30" viewBox="0 0 30 30" fill="none" xmlns="http://www.w3.org/2000/svg">
<path d="M14.8198 0C6.63419 0 0 6.63419 0 14.8198C0 23.0055 6.63419 29.6396 14.8198 29.6396C23.0055 29.6396 29.6396 23.0055 29.6396 14.8198C29.6396 6.63419 23.0055 0 14.8198 0ZM24.0706 24.0648C22.8665 25.269 21.4714 26.2126 19.9141 26.8667C18.3048 27.5498 16.5913 27.8914 14.8198 27.8914C13.0542 27.8914 11.3406 27.544 9.72551 26.8667C8.16827 26.2068 6.76733 25.2632 5.56901 24.0648C4.3649 22.8607 3.42129 21.4656 2.76714 19.9083C2.08404 18.299 1.7367 16.5855 1.7367 14.8198C1.7367 13.0542 2.08404 11.3406 2.76135 9.72551C3.42129 8.16827 4.3649 6.76733 5.56322 5.56901C6.77312 4.3649 8.16827 3.42129 9.72551 2.76135C11.3406 2.08404 13.0542 1.7367 14.8198 1.7367C16.5855 1.7367 18.299 2.08404 19.9141 2.76135C21.4714 3.42129 22.8723 4.3649 24.0706 5.56322C25.2747 6.76733 26.2183 8.16248 26.8725 9.71972C27.5556 11.3291 27.8972 13.0426 27.8972 14.814C27.8972 16.5797 27.5498 18.2932 26.8725 19.9083C26.2126 21.4656 25.2689 22.8665 24.0706 24.0648Z" fill="#6C15F0"/>
<path d="M16.7765 9.76596C17.3727 9.76596 18.0095 9.95121 18.0095 9.95121L18.3916 7.68193C18.3916 7.68193 17.5811 7.40405 15.6476 7.40405C14.4609 7.40405 13.772 7.8556 13.2683 8.52133C12.7936 9.15233 12.7763 10.1654 12.7763 10.8196V12.3073H11.2422V14.5245H12.7763V22.2239H15.6476V14.5245H17.9227L18.0906 12.3073H15.6476V10.5764C15.6476 9.98016 16.1802 9.76596 16.7765 9.76596Z" fill="#6C15F0"/>
</svg>
