<svg width="30" height="30" viewBox="0 0 30 30" fill="none" xmlns="http://www.w3.org/2000/svg">
<path d="M15.1802 0C6.99454 0 0.360352 6.63419 0.360352 14.8198C0.360352 23.0055 6.99454 29.6396 15.1802 29.6396C23.3658 29.6396 30 23.0055 30 14.8198C30 6.63419 23.3658 0 15.1802 0ZM24.431 24.0648C23.2269 25.269 21.8317 26.2126 20.2745 26.8667C18.6651 27.5498 16.9516 27.8914 15.1802 27.8914C13.4145 27.8914 11.701 27.544 10.0859 26.8667C8.52862 26.2068 7.12768 25.2632 5.92936 24.0648C4.72525 22.8607 3.78165 21.4656 3.12749 19.9083C2.44439 18.299 2.09705 16.5855 2.09705 14.8198C2.09705 13.0542 2.44439 11.3406 3.1217 9.72551C3.78165 8.16827 4.72525 6.76733 5.92357 5.56901C7.13347 4.3649 8.52862 3.42129 10.0859 2.76135C11.701 2.08404 13.4145 1.7367 15.1802 1.7367C16.9458 1.7367 18.6594 2.08404 20.2745 2.76135C21.8317 3.42129 23.2327 4.3649 24.431 5.56322C25.6351 6.76733 26.5787 8.16248 27.2329 9.71972C27.916 11.3291 28.2575 13.0426 28.2575 14.814C28.2575 16.5797 27.9102 18.2932 27.2329 19.9083C26.5729 21.4656 25.6293 22.8665 24.431 24.0648Z" fill="#6C15F0"/>
<path d="M11.0353 11.7749H8.14661V21.0199H11.0353V11.7749Z" fill="#6C15F0"/>
<path d="M9.53017 7.40991C8.46499 7.40991 7.76453 8.0988 7.76453 9.01346C7.76453 9.91076 8.44184 10.617 9.48965 10.617H9.5128C10.6011 10.617 11.2784 9.90497 11.2727 9.01346C11.2495 8.0988 10.5953 7.40991 9.53017 7.40991Z" fill="#6C15F0"/>
<path d="M18.9256 11.688C17.2699 11.688 16.2337 12.5911 16.0427 13.2279V11.7748H12.795C12.8356 12.5448 12.795 21.0198 12.795 21.0198H16.0427V16.0239C16.0427 15.7403 16.0311 15.4624 16.1121 15.2656C16.3321 14.7098 16.8126 14.1309 17.6752 14.1309C18.804 14.1309 19.3134 14.9877 19.3134 16.2381V21.0198H22.59V15.8792C22.59 13.0195 20.9807 11.688 18.9256 11.688Z" fill="#6C15F0"/>
</svg>
