<svg width="685" height="258" viewBox="0 0 685 258" fill="none" xmlns="http://www.w3.org/2000/svg">
<path d="M174.38 0L31.76 72.48L159.07 77.77C163.53 75.03 175.64 66.77 181.56 50.87C191.14 25.16 176 2.33 174.38 0Z" fill="#5E55EC"/>
<path d="M239.53 161.4C237.84 164.31 233.78 169.68 223.23 173.23L59.94 169.71C49.8 167.43 33.71 162 20.53 147.89C8.73995 135.32 -7.00005 109.15 3.39995 91.6698C5.32586 88.4759 7.93074 85.7447 11.03 83.6698C13.5523 81.9834 16.2685 80.6068 19.12 79.5698L189.34 86.9998C190.547 87.0555 191.728 87.3728 192.8 87.9298C193.65 88.3698 194.64 88.9298 195.74 89.4798C200.817 92.0309 205.763 94.8344 210.56 97.8798C214.802 100.73 218.722 104.032 222.25 107.73C238 123.82 248 146.91 239.53 161.4Z" fill="url(#paint0_linear_638_3)"/>
<path d="M66.77 258L207.53 182L80.14 179.84C75.75 182.69 63.84 191.26 58.32 207.29C49.38 233.23 65.11 255.68 66.77 258Z" fill="#5E55EC"/>
<path d="M345.58 106H329.28V99.9999H286.92V112.68H330.21C334.22 112.626 338.088 114.163 340.968 116.953C343.848 119.743 345.506 123.56 345.58 127.57V141.9C345.509 145.911 343.852 149.731 340.971 152.523C338.091 155.316 334.221 156.853 330.21 156.8H286.21C284.222 156.834 282.247 156.476 280.398 155.745C278.549 155.014 276.862 153.925 275.435 152.541C274.008 151.156 272.868 149.503 272.081 147.677C271.294 145.851 270.876 143.888 270.85 141.9V135.16H286.94V141.1H329.3V128.42H286.19C284.202 128.454 282.227 128.096 280.378 127.365C278.529 126.634 276.842 125.545 275.415 124.161C273.988 122.776 272.848 121.123 272.061 119.297C271.274 117.471 270.856 115.508 270.83 113.52V99.2299C270.856 97.2418 271.274 95.2783 272.061 93.4523C272.848 91.6263 273.988 89.9737 275.415 88.5893C276.842 87.2048 278.529 86.1159 280.378 85.385C282.227 84.654 284.202 84.2955 286.19 84.3299H330.19C334.201 84.279 338.069 85.8176 340.948 88.6094C343.828 91.4013 345.486 95.2195 345.56 99.2299L345.58 106Z" fill="white"/>
<path d="M416.17 84.3299C424.68 84.3299 431.64 90.9799 431.64 99.2299V156.8H415.34V133.45H373V156.8H356.89V99.2299C356.916 97.2418 357.334 95.2783 358.121 93.4523C358.908 91.6263 360.048 89.9737 361.475 88.5893C362.902 87.2048 364.588 86.1159 366.438 85.385C368.287 84.654 370.262 84.2955 372.25 84.3299H416.17ZM415.34 117.75V99.9999H373V117.71L415.34 117.75Z" fill="white"/>
<path d="M517.71 106H501.41V99.9999H459.05V112.68H502.34C506.35 112.626 510.218 114.163 513.098 116.953C515.978 119.743 517.636 123.56 517.71 127.57V141.9C517.639 145.911 515.982 149.731 513.101 152.523C510.221 155.316 506.351 156.853 502.34 156.8H458.34C456.354 156.83 454.381 156.469 452.535 155.736C450.689 155.004 449.006 153.914 447.581 152.53C446.156 151.146 445.018 149.495 444.232 147.671C443.446 145.847 443.027 143.886 443 141.9V135.16H459.1V141.1H501.46V128.42H458.32C456.336 128.448 454.365 128.084 452.521 127.35C450.678 126.617 448.996 125.527 447.574 124.143C446.151 122.76 445.015 121.109 444.23 119.286C443.445 117.464 443.027 115.504 443 113.52V99.2299C443.027 97.2413 443.447 95.2776 444.235 93.4516C445.023 91.6255 446.163 89.973 447.591 88.5887C449.019 87.2044 450.706 86.1156 452.556 85.3848C454.406 84.654 456.382 84.2955 458.37 84.3299H502.37C506.381 84.279 510.249 85.8176 513.128 88.6094C516.008 91.4013 517.666 95.2195 517.74 99.2299L517.71 106Z" fill="white"/>
<path d="M601.07 84.3301V89.7701L574.39 120.57C583.11 130.73 592.39 141.3 601.07 151.36V156.8H584.25L559.75 128.42H545.11V156.8H528.92V84.3301H545.11V112.72H559.75C562.87 109.19 565.98 105.57 569.09 101.95L584.25 84.3301H601.07Z" fill="white"/>
<path d="M668.66 84.3299C677.17 84.3299 684.13 90.9799 684.13 99.2299V156.8H667.83V133.45H625.47V156.8H609.37V99.2299C609.397 97.2413 609.817 95.2776 610.605 93.4516C611.393 91.6255 612.533 89.973 613.961 88.5887C615.389 87.2044 617.076 86.1156 618.926 85.3848C620.776 84.654 622.751 84.2955 624.74 84.3299H668.66ZM667.83 117.75V99.9999H625.47V117.71L667.83 117.75Z" fill="white"/>
<path d="M363.47 172.58H359.21V171C359.205 170.775 359.112 170.562 358.951 170.405C358.79 170.248 358.575 170.16 358.35 170.16H340.23C340.004 170.157 339.785 170.244 339.622 170.401C339.459 170.558 339.365 170.774 339.36 171V176.88C339.368 177.105 339.463 177.319 339.625 177.476C339.787 177.633 340.004 177.72 340.23 177.72H358.35C359.017 177.704 359.68 177.821 360.3 178.066C360.921 178.31 361.486 178.675 361.963 179.141C362.44 179.607 362.819 180.164 363.078 180.778C363.337 181.393 363.47 182.053 363.47 182.72V188.6C363.47 189.267 363.337 189.927 363.078 190.542C362.819 191.156 362.44 191.713 361.963 192.179C361.486 192.645 360.921 193.01 360.3 193.254C359.68 193.498 359.017 193.616 358.35 193.6H340.23C339.563 193.616 338.9 193.498 338.28 193.254C337.659 193.01 337.094 192.645 336.617 192.179C336.139 191.713 335.76 191.156 335.502 190.542C335.243 189.927 335.11 189.267 335.11 188.6V187H339.36V188.6C339.365 188.826 339.459 189.041 339.622 189.199C339.785 189.356 340.004 189.443 340.23 189.44H358.35C358.575 189.44 358.79 189.352 358.951 189.195C359.112 189.038 359.205 188.825 359.21 188.6V182.72C359.205 182.495 359.112 182.282 358.951 182.125C358.79 181.968 358.575 181.88 358.35 181.88H340.23C339.563 181.896 338.9 181.778 338.28 181.534C337.659 181.29 337.094 180.925 336.617 180.459C336.139 179.993 335.76 179.436 335.502 178.822C335.243 178.207 335.11 177.547 335.11 176.88V171C335.11 170.333 335.243 169.673 335.502 169.058C335.76 168.444 336.139 167.887 336.617 167.421C337.094 166.955 337.659 166.59 338.28 166.346C338.9 166.101 339.563 165.984 340.23 166H358.35C359.017 165.984 359.68 166.101 360.3 166.346C360.921 166.59 361.486 166.955 361.963 167.421C362.44 167.887 362.819 168.444 363.078 169.058C363.337 169.673 363.47 170.333 363.47 171V172.58Z" fill="white"/>
<path d="M396.24 171.36C396.906 171.345 397.568 171.464 398.187 171.708C398.806 171.953 399.371 172.319 399.847 172.785C400.323 173.251 400.701 173.807 400.959 174.421C401.217 175.035 401.35 175.694 401.35 176.36V188.58C401.35 189.246 401.217 189.905 400.959 190.519C400.701 191.133 400.323 191.689 399.847 192.155C399.371 192.621 398.806 192.987 398.187 193.231C397.568 193.476 396.906 193.594 396.24 193.58H383.24C382.573 193.596 381.91 193.478 381.29 193.234C380.669 192.99 380.104 192.624 379.627 192.158C379.149 191.693 378.77 191.136 378.512 190.521C378.253 189.907 378.12 189.247 378.12 188.58V176.32C378.12 175.653 378.253 174.993 378.512 174.378C378.77 173.764 379.149 173.207 379.627 172.741C380.104 172.275 380.669 171.909 381.29 171.665C381.91 171.421 382.573 171.304 383.24 171.32L396.24 171.36ZM383.24 175.48C383.013 175.477 382.795 175.564 382.632 175.721C382.469 175.878 382.375 176.093 382.37 176.32V188.54C382.375 188.766 382.469 188.981 382.632 189.139C382.795 189.296 383.013 189.382 383.24 189.38H396.24C396.465 189.38 396.68 189.292 396.841 189.135C397.002 188.978 397.095 188.764 397.1 188.54V176.32C397.095 176.095 397.002 175.882 396.841 175.725C396.68 175.568 396.465 175.48 396.24 175.48H383.24Z" fill="white"/>
<path d="M415.26 164.1H419.51V188.54C419.515 188.766 419.61 188.982 419.772 189.139C419.935 189.296 420.154 189.383 420.38 189.38H424.63V193.5H420.38C419.713 193.516 419.05 193.399 418.43 193.154C417.809 192.91 417.244 192.545 416.767 192.079C416.29 191.613 415.91 191.056 415.652 190.442C415.393 189.827 415.26 189.167 415.26 188.5V164.1Z" fill="white"/>
<path d="M461.61 171.36V188.54C461.61 189.207 461.477 189.867 461.218 190.481C460.959 191.096 460.58 191.653 460.103 192.119C459.626 192.584 459.061 192.95 458.44 193.194C457.82 193.438 457.157 193.556 456.49 193.54H443.49C442.823 193.556 442.16 193.438 441.54 193.194C440.919 192.95 440.354 192.584 439.877 192.119C439.399 191.653 439.02 191.096 438.762 190.481C438.503 189.867 438.37 189.207 438.37 188.54V171.36H442.62V188.54C442.625 188.766 442.719 188.981 442.882 189.139C443.045 189.296 443.263 189.383 443.49 189.38H456.49C456.716 189.383 456.935 189.296 457.097 189.139C457.26 188.981 457.355 188.766 457.36 188.54V171.36H461.61Z" fill="white"/>
<path d="M480.05 175.48V188.54C480.055 188.766 480.149 188.982 480.312 189.139C480.475 189.296 480.694 189.383 480.92 189.38H489.42V193.5H480.92C480.253 193.516 479.59 193.399 478.97 193.154C478.349 192.91 477.784 192.545 477.307 192.079C476.83 191.613 476.45 191.056 476.192 190.442C475.933 189.827 475.8 189.167 475.8 188.5V164.1H480.05V171.36H489.42V175.48H480.05Z" fill="white"/>
<path d="M506.79 164.1V168.23H502.54V164.1H506.79ZM502.54 171.36H506.79V193.5H502.54V171.36Z" fill="white"/>
<path d="M539.44 171.36C540.107 171.344 540.77 171.462 541.39 171.706C542.011 171.95 542.576 172.316 543.053 172.781C543.53 173.247 543.909 173.804 544.168 174.419C544.427 175.033 544.56 175.693 544.56 176.36V188.58C544.56 189.247 544.427 189.907 544.168 190.522C543.909 191.136 543.53 191.693 543.053 192.159C542.576 192.625 542.011 192.99 541.39 193.234C540.77 193.479 540.107 193.596 539.44 193.58H526.44C525.774 193.595 525.112 193.476 524.493 193.231C523.873 192.987 523.309 192.621 522.833 192.155C522.357 191.689 521.979 191.133 521.721 190.519C521.463 189.905 521.33 189.246 521.33 188.58V176.32C521.33 175.654 521.463 174.995 521.721 174.381C521.979 173.767 522.357 173.211 522.833 172.745C523.309 172.279 523.873 171.913 524.493 171.669C525.112 171.424 525.774 171.305 526.44 171.32L539.44 171.36ZM526.44 175.48C526.215 175.48 526 175.568 525.839 175.725C525.678 175.882 525.585 176.095 525.58 176.32V188.54C525.585 188.765 525.678 188.978 525.839 189.135C526 189.292 526.215 189.38 526.44 189.38H539.44C539.666 189.383 539.885 189.296 540.048 189.139C540.21 188.982 540.305 188.766 540.31 188.54V176.32C540.305 176.094 540.21 175.879 540.048 175.721C539.885 175.564 539.666 175.477 539.44 175.48H526.44Z" fill="white"/>
<path d="M582 176.32V193.5H577.74V176.32C577.735 176.095 577.642 175.882 577.481 175.725C577.32 175.568 577.105 175.48 576.88 175.48H563.88C563.654 175.477 563.435 175.564 563.272 175.721C563.11 175.878 563.015 176.094 563.01 176.32V193.5H558.76V171.36H576.88C577.543 171.344 578.203 171.46 578.821 171.702C579.439 171.943 580.003 172.306 580.479 172.767C580.956 173.229 581.336 173.781 581.597 174.391C581.858 175.001 581.995 175.656 582 176.32Z" fill="white"/>
<path d="M619.79 177.16H615.53V176.32C615.525 176.095 615.432 175.882 615.271 175.725C615.11 175.568 614.895 175.48 614.67 175.48H601.67C601.444 175.477 601.225 175.564 601.062 175.721C600.9 175.878 600.805 176.093 600.8 176.32V179.53C600.805 179.756 600.9 179.971 601.062 180.129C601.225 180.286 601.444 180.372 601.67 180.37H614.67C615.337 180.354 616 180.471 616.62 180.715C617.241 180.959 617.806 181.325 618.283 181.791C618.76 182.257 619.139 182.814 619.398 183.428C619.657 184.043 619.79 184.703 619.79 185.37V188.58C619.79 189.247 619.657 189.907 619.398 190.521C619.139 191.136 618.76 191.693 618.283 192.158C617.806 192.624 617.241 192.99 616.62 193.234C616 193.478 615.337 193.596 614.67 193.58H601.67C601.003 193.596 600.34 193.478 599.72 193.234C599.099 192.99 598.534 192.624 598.057 192.158C597.58 191.693 597.2 191.136 596.942 190.521C596.683 189.907 596.55 189.247 596.55 188.58V187.74H600.8V188.58C600.805 188.806 600.9 189.021 601.062 189.179C601.225 189.336 601.444 189.422 601.67 189.42H614.67C614.895 189.42 615.11 189.332 615.271 189.175C615.432 189.018 615.525 188.804 615.53 188.58V185.37C615.525 185.145 615.432 184.932 615.271 184.775C615.11 184.618 614.895 184.53 614.67 184.53H601.67C601.003 184.546 600.34 184.428 599.72 184.184C599.099 183.94 598.534 183.574 598.057 183.108C597.58 182.643 597.2 182.086 596.942 181.471C596.683 180.857 596.55 180.197 596.55 179.53V176.32C596.55 175.653 596.683 174.993 596.942 174.378C597.2 173.764 597.58 173.207 598.057 172.741C598.534 172.275 599.099 171.909 599.72 171.665C600.34 171.421 601.003 171.304 601.67 171.32H614.67C615.337 171.304 616 171.421 616.62 171.665C617.241 171.909 617.806 172.275 618.283 172.741C618.76 173.207 619.139 173.764 619.398 174.378C619.657 174.993 619.79 175.653 619.79 176.32V177.16Z" fill="white"/>
<path d="M325.92 179.94H272.28C271.435 179.94 270.75 180.625 270.75 181.47C270.75 182.315 271.435 183 272.28 183H325.92C326.765 183 327.45 182.315 327.45 181.47C327.45 180.625 326.765 179.94 325.92 179.94Z" fill="white"/>
<path d="M682.61 179.94H628.97C628.125 179.94 627.44 180.625 627.44 181.47C627.44 182.315 628.125 183 628.97 183H682.61C683.455 183 684.14 182.315 684.14 181.47C684.14 180.625 683.455 179.94 682.61 179.94Z" fill="white"/>
<defs>
<linearGradient id="paint0_linear_638_3" x1="12" y1="73.9898" x2="229.96" y2="181.02" gradientUnits="userSpaceOnUse">
<stop stop-color="#24BBC4"/>
<stop offset="0.06" stop-color="#349FCF"/>
<stop offset="0.15" stop-color="#467FDC"/>
<stop offset="0.24" stop-color="#5368E5"/>
<stop offset="0.32" stop-color="#5B5AEA"/>
<stop offset="0.39" stop-color="#5E55EC"/>
<stop offset="0.57" stop-color="#5C58EB"/>
<stop offset="0.69" stop-color="#5761E7"/>
<stop offset="0.79" stop-color="#4E70E1"/>
<stop offset="0.89" stop-color="#4286D8"/>
<stop offset="0.97" stop-color="#32A2CC"/>
<stop offset="1" stop-color="#2CACC8"/>
</linearGradient>
</defs>
</svg>
