<svg width="237" height="90" viewBox="0 0 237 90" fill="none" xmlns="http://www.w3.org/2000/svg">
<path d="M60.235 0.877441L10.9688 25.9147L54.9464 27.7421C56.487 26.7956 60.6703 23.9423 62.7153 18.4498C66.0245 9.56864 60.7946 1.68231 60.235 0.877441Z" fill="#5E55EC"/>
<path d="M82.7404 56.6309C82.1566 57.6361 80.7541 59.4911 77.1098 60.7174L20.7033 59.5015C17.2006 58.7139 11.6425 56.8382 7.08966 51.964C3.01696 47.6219 -2.42023 38.5818 1.17232 32.5436C1.8376 31.4403 2.73742 30.4968 3.80801 29.7801C4.67932 29.1975 5.6176 28.722 6.60259 28.3638L65.4029 30.9304C65.8199 30.9496 66.2277 31.0592 66.5981 31.2516C66.8917 31.4036 67.2337 31.5971 67.6137 31.7871C69.3675 32.6683 71.0761 33.6367 72.7331 34.6887C74.1985 35.6731 75.5525 36.814 76.7713 38.0913C82.2119 43.6494 85.6663 51.6255 82.7404 56.6309Z" fill="url(#paint0_linear_638_25)"/>
<path d="M23.0626 89.9999L71.6864 63.7466L27.6811 63.0005C26.1646 63.985 22.0505 66.9454 20.1437 72.4827C17.0555 81.4434 22.4892 89.1985 23.0626 89.9999Z" fill="#5E55EC"/>
<path d="M119.374 37.4937H113.743V35.4211H99.1106V39.8013H114.065C115.45 39.7828 116.786 40.3135 117.781 41.2773C118.776 42.2412 119.348 43.5598 119.374 44.9448V49.8949C119.349 51.2806 118.777 52.6 117.782 53.5646C116.787 54.5293 115.45 55.0604 114.065 55.0419H98.8653C98.1786 55.0538 97.4963 54.93 96.8575 54.6775C96.2188 54.425 95.6362 54.0488 95.1432 53.5706C94.6502 53.0924 94.2565 52.5215 93.9847 51.8907C93.7129 51.2599 93.5684 50.5817 93.5594 49.8949V47.5667H99.1175V49.6186H113.75V45.2384H98.8584C98.1717 45.2503 97.4894 45.1265 96.8506 44.874C96.2119 44.6215 95.6293 44.2453 95.1363 43.7671C94.6433 43.2889 94.2496 42.718 93.9778 42.0872C93.706 41.4564 93.5615 40.7782 93.5525 40.0914V35.1551C93.5615 34.4683 93.706 33.7901 93.9778 33.1593C94.2496 32.5286 94.6433 31.9577 95.1363 31.4794C95.6293 31.0012 96.2119 30.6251 96.8506 30.3726C97.4894 30.1201 98.1717 29.9962 98.8584 30.0081H114.058C115.443 29.9905 116.779 30.522 117.774 31.4864C118.769 32.4508 119.342 33.7698 119.367 35.1551L119.374 37.4937Z" fill="#070707"/>
<path d="M143.758 30.0081C146.698 30.0081 149.102 32.3053 149.102 35.1551V55.0419H143.472V46.976H128.846V55.0419H123.281V35.1551C123.29 34.4683 123.434 33.7901 123.706 33.1593C123.978 32.5286 124.372 31.9577 124.865 31.4794C125.358 31.0012 125.94 30.6251 126.579 30.3726C127.218 30.1201 127.9 29.9962 128.587 30.0081H143.758ZM143.472 41.5526V35.4211H128.846V41.5388L143.472 41.5526Z" fill="#070707"/>
<path d="M178.834 37.4937H173.203V35.4211H158.571V39.8013H173.525C174.91 39.7828 176.246 40.3135 177.241 41.2773C178.236 42.2412 178.809 43.5598 178.834 44.9448V49.8949C178.809 51.2805 178.237 52.6 177.242 53.5646C176.247 54.5293 174.91 55.0604 173.525 55.0419H158.325C157.639 55.0524 156.958 54.9276 156.32 54.6745C155.682 54.4215 155.101 54.0451 154.609 53.5671C154.117 53.089 153.723 52.5186 153.452 51.8885C153.18 51.2584 153.036 50.581 153.026 49.8949V47.5667H158.588V49.6186H173.221V45.2384H158.318C157.633 45.248 156.952 45.1225 156.315 44.869C155.678 44.6155 155.098 44.2391 154.606 43.7611C154.115 43.2831 153.722 42.7131 153.451 42.0834C153.18 41.4538 153.036 40.7769 153.026 40.0914V35.1551C153.036 34.4682 153.181 33.7899 153.453 33.1591C153.725 32.5283 154.119 31.9574 154.612 31.4792C155.106 31.0011 155.688 30.625 156.327 30.3725C156.966 30.1201 157.649 29.9962 158.336 30.0081H173.535C174.92 29.9905 176.257 30.522 177.251 31.4864C178.246 32.4508 178.819 33.7698 178.844 35.1551L178.834 37.4937Z" fill="#070707"/>
<path d="M207.63 30.0078V31.887L198.413 42.5265C201.426 46.0361 204.631 49.6874 207.63 53.1625V55.0416H201.819L193.356 45.2381H188.299V55.0416H182.706V30.0078H188.299V39.8148H193.356C194.434 38.5954 195.508 37.3449 196.583 36.0944L201.819 30.0078H207.63Z" fill="#070707"/>
<path d="M230.978 30.0081C233.917 30.0081 236.322 32.3053 236.322 35.1551V55.0419H230.691V46.976H216.058V55.0419H210.497V35.1551C210.506 34.4682 210.651 33.7899 210.923 33.1591C211.196 32.5283 211.59 31.9574 212.083 31.4792C212.576 31.0011 213.159 30.625 213.798 30.3725C214.437 30.1201 215.119 29.9962 215.806 30.0081H230.978ZM230.691 41.5526V35.4211H216.058V41.5388L230.691 41.5526Z" fill="#070707"/>
<path d="M125.554 60.4927H124.082V59.9469C124.081 59.8693 124.048 59.7955 123.993 59.7413C123.937 59.6871 123.863 59.6567 123.785 59.6568H117.526C117.448 59.6558 117.372 59.6858 117.316 59.7401C117.26 59.7944 117.227 59.8687 117.225 59.9469V61.9781C117.228 62.056 117.261 62.1298 117.317 62.1839C117.373 62.2381 117.448 62.2683 117.526 62.2683H123.785C124.016 62.2627 124.245 62.3033 124.459 62.3876C124.673 62.472 124.869 62.5983 125.033 62.7592C125.198 62.9202 125.329 63.1125 125.419 63.3248C125.508 63.5371 125.554 63.7651 125.554 63.9954V66.0266C125.554 66.257 125.508 66.485 125.419 66.6973C125.329 66.9096 125.198 67.1019 125.033 67.2628C124.869 67.4238 124.673 67.5501 124.459 67.6344C124.245 67.7187 124.016 67.7593 123.785 67.7538H117.526C117.296 67.7593 117.067 67.7187 116.852 67.6344C116.638 67.5501 116.443 67.4238 116.278 67.2628C116.113 67.1019 115.982 66.9096 115.893 66.6973C115.803 66.485 115.757 66.257 115.757 66.0266V65.4739H117.225V66.0266C117.227 66.1048 117.26 66.1791 117.316 66.2334C117.372 66.2878 117.448 66.3177 117.526 66.3168H123.785C123.863 66.3168 123.937 66.2865 123.993 66.2322C124.048 66.178 124.081 66.1042 124.082 66.0266V63.9954C124.081 63.9179 124.048 63.8441 123.993 63.7898C123.937 63.7356 123.863 63.7053 123.785 63.7053H117.526C117.296 63.7108 117.067 63.6702 116.852 63.5859C116.638 63.5016 116.443 63.3752 116.278 63.2143C116.113 63.0534 115.982 62.8611 115.893 62.6488C115.803 62.4365 115.757 62.2084 115.757 61.9781V59.9469C115.757 59.7166 115.803 59.4885 115.893 59.2762C115.982 59.0639 116.113 58.8717 116.278 58.7107C116.443 58.5498 116.638 58.4234 116.852 58.3391C117.067 58.2548 117.296 58.2142 117.526 58.2197H123.785C124.016 58.2142 124.245 58.2548 124.459 58.3391C124.673 58.4234 124.869 58.5498 125.033 58.7107C125.198 58.8717 125.329 59.0639 125.419 59.2762C125.508 59.4885 125.554 59.7166 125.554 59.9469V60.4927Z" fill="#070707"/>
<path d="M136.874 60.0714C137.104 60.0664 137.333 60.1073 137.546 60.1918C137.76 60.2764 137.955 60.4028 138.12 60.5637C138.284 60.7246 138.415 60.9167 138.504 61.1288C138.593 61.3408 138.639 61.5686 138.639 61.7986V66.0199C138.639 66.2499 138.593 66.4777 138.504 66.6897C138.415 66.9018 138.284 67.0939 138.12 67.2548C137.955 67.4157 137.76 67.5421 137.546 67.6267C137.333 67.7112 137.104 67.7521 136.874 67.7471H132.383C132.153 67.7526 131.924 67.712 131.709 67.6277C131.495 67.5434 131.3 67.417 131.135 67.2561C130.97 67.0951 130.839 66.9029 130.75 66.6906C130.66 66.4783 130.614 66.2502 130.615 66.0199V61.7848C130.614 61.5545 130.66 61.3264 130.75 61.1141C130.839 60.9018 130.97 60.7095 131.135 60.5486C131.3 60.3877 131.495 60.2613 131.709 60.177C131.924 60.0927 132.153 60.0521 132.383 60.0576L136.874 60.0714ZM132.383 61.4946C132.305 61.4937 132.23 61.5237 132.173 61.578C132.117 61.6323 132.084 61.7066 132.083 61.7848V66.0061C132.084 66.0842 132.117 66.1586 132.173 66.2129C132.23 66.2672 132.305 66.2972 132.383 66.2962H136.874C136.951 66.2962 137.026 66.2659 137.081 66.2117C137.137 66.1574 137.169 66.0836 137.171 66.0061V61.7848C137.169 61.7072 137.137 61.6334 137.081 61.5792C137.026 61.525 136.951 61.4946 136.874 61.4946H132.383Z" fill="#070707"/>
<path d="M143.444 57.5635H144.912V66.006C144.914 66.0841 144.947 66.1585 145.003 66.2128C145.059 66.2671 145.135 66.2971 145.213 66.2961H146.681V67.7193H145.213C144.982 67.7249 144.753 67.6843 144.539 67.5999C144.325 67.5156 144.129 67.3893 143.965 67.2283C143.8 67.0674 143.669 66.8751 143.579 66.6628C143.49 66.4505 143.444 66.2225 143.444 65.9921V57.5635Z" fill="#070707"/>
<path d="M159.455 60.0713V66.0059C159.455 66.2362 159.409 66.4643 159.32 66.6766C159.23 66.8889 159.099 67.0812 158.935 67.2421C158.77 67.403 158.574 67.5294 158.36 67.6137C158.146 67.698 157.917 67.7386 157.686 67.7331H153.196C152.965 67.7386 152.736 67.698 152.522 67.6137C152.308 67.5294 152.112 67.403 151.947 67.2421C151.783 67.0812 151.652 66.8889 151.562 66.6766C151.473 66.4643 151.427 66.2362 151.427 66.0059V60.0713H152.895V66.0059C152.897 66.0841 152.929 66.1584 152.986 66.2127C153.042 66.2671 153.117 66.297 153.196 66.2961H157.686C157.765 66.297 157.84 66.2671 157.896 66.2127C157.952 66.1584 157.985 66.0841 157.987 66.0059V60.0713H159.455Z" fill="#070707"/>
<path d="M165.825 61.4945V66.006C165.827 66.0841 165.859 66.1585 165.916 66.2128C165.972 66.2671 166.047 66.2971 166.125 66.2961H169.062V67.7193H166.125C165.895 67.7249 165.666 67.6843 165.452 67.5999C165.237 67.5156 165.042 67.3893 164.877 67.2283C164.712 67.0674 164.582 66.8751 164.492 66.6628C164.403 66.4505 164.357 66.2225 164.357 65.9921V57.5635H165.825V60.0713H169.062V61.4945H165.825Z" fill="#070707"/>
<path d="M175.062 57.5635V58.9901H173.594V57.5635H175.062ZM173.594 60.0713H175.062V67.7193H173.594V60.0713Z" fill="#070707"/>
<path d="M186.34 60.0714C186.571 60.0658 186.8 60.1064 187.014 60.1907C187.229 60.2751 187.424 60.4014 187.589 60.5624C187.753 60.7233 187.884 60.9156 187.974 61.1279C188.063 61.3402 188.109 61.5682 188.109 61.7985V66.0198C188.109 66.2501 188.063 66.4782 187.974 66.6905C187.884 66.9028 187.753 67.0951 187.589 67.256C187.424 67.4169 187.229 67.5433 187.014 67.6276C186.8 67.7119 186.571 67.7525 186.34 67.747H181.85C181.62 67.752 181.391 67.7111 181.177 67.6266C180.963 67.542 180.768 67.4156 180.604 67.2547C180.439 67.0938 180.309 66.9017 180.22 66.6897C180.13 66.4776 180.085 66.2498 180.085 66.0198V61.7847C180.085 61.5547 180.13 61.3269 180.22 61.1149C180.309 60.9028 180.439 60.7107 180.604 60.5498C180.768 60.3889 180.963 60.2625 181.177 60.178C181.391 60.0934 181.62 60.0525 181.85 60.0575L186.34 60.0714ZM181.85 61.4946C181.772 61.4945 181.698 61.5249 181.642 61.5791C181.587 61.6333 181.555 61.7071 181.553 61.7847V66.006C181.555 66.0836 181.587 66.1574 181.642 66.2116C181.698 66.2658 181.772 66.2962 181.85 66.2961H186.34C186.419 66.2971 186.494 66.2671 186.55 66.2128C186.607 66.1585 186.639 66.0842 186.641 66.006V61.7847C186.639 61.7065 186.607 61.6322 186.55 61.5779C186.494 61.5236 186.419 61.4936 186.34 61.4946H181.85Z" fill="#070707"/>
<path d="M201.042 61.7847V67.7193H199.571V61.7847C199.569 61.7071 199.537 61.6333 199.481 61.5791C199.426 61.5248 199.351 61.4945 199.274 61.4945H194.783C194.705 61.4936 194.629 61.5235 194.573 61.5778C194.517 61.6322 194.484 61.7065 194.483 61.7847V67.7193H193.014V60.0713H199.274C199.503 60.0658 199.731 60.1059 199.944 60.1894C200.158 60.2729 200.352 60.398 200.517 60.5575C200.682 60.7169 200.813 60.9076 200.903 61.1183C200.993 61.3289 201.041 61.5555 201.042 61.7847Z" fill="#070707"/>
<path d="M214.096 62.075H212.625V61.7848C212.623 61.7072 212.591 61.6334 212.535 61.5792C212.48 61.525 212.405 61.4946 212.328 61.4946H207.837C207.759 61.4937 207.683 61.5237 207.627 61.578C207.571 61.6323 207.538 61.7066 207.536 61.7848V62.8937C207.538 62.9719 207.571 63.0462 207.627 63.1005C207.683 63.1548 207.759 63.1848 207.837 63.1838H212.328C212.558 63.1783 212.787 63.2189 213.001 63.3032C213.216 63.3875 213.411 63.5139 213.576 63.6748C213.741 63.8358 213.872 64.028 213.961 64.2403C214.05 64.4526 214.096 64.6807 214.096 64.911V66.0199C214.096 66.2502 214.05 66.4783 213.961 66.6906C213.872 66.9029 213.741 67.0951 213.576 67.2561C213.411 67.417 213.216 67.5434 213.001 67.6277C212.787 67.712 212.558 67.7526 212.328 67.7471H207.837C207.607 67.7526 207.378 67.712 207.163 67.6277C206.949 67.5434 206.754 67.417 206.589 67.2561C206.424 67.0951 206.293 66.9029 206.204 66.6906C206.114 66.4783 206.068 66.2502 206.068 66.0199V65.7297H207.536V66.0199C207.538 66.0981 207.571 66.1724 207.627 66.2267C207.683 66.281 207.759 66.311 207.837 66.31H212.328C212.405 66.3101 212.48 66.2797 212.535 66.2255C212.591 66.1713 212.623 66.0975 212.625 66.0199V64.911C212.623 64.8334 212.591 64.7596 212.535 64.7054C212.48 64.6512 212.405 64.6208 212.328 64.6208H207.837C207.607 64.6264 207.378 64.5858 207.163 64.5015C206.949 64.4171 206.754 64.2908 206.589 64.1299C206.424 63.9689 206.293 63.7766 206.204 63.5643C206.114 63.352 206.068 63.124 206.068 62.8937V61.7848C206.068 61.5545 206.114 61.3264 206.204 61.1141C206.293 60.9018 206.424 60.7095 206.589 60.5486C206.754 60.3877 206.949 60.2613 207.163 60.177C207.378 60.0927 207.607 60.0521 207.837 60.0576H212.328C212.558 60.0521 212.787 60.0927 213.001 60.177C213.216 60.2613 213.411 60.3877 213.576 60.5486C213.741 60.7095 213.872 60.9018 213.961 61.1141C214.05 61.3264 214.096 61.5545 214.096 61.7848V62.075Z" fill="#070707"/>
<path d="M112.583 63.0352H94.0534C93.7615 63.0352 93.5249 63.2718 93.5249 63.5637C93.5249 63.8556 93.7615 64.0922 94.0534 64.0922H112.583C112.875 64.0922 113.111 63.8556 113.111 63.5637C113.111 63.2718 112.875 63.0352 112.583 63.0352Z" fill="#070707"/>
<path d="M235.797 63.0352H217.267C216.976 63.0352 216.739 63.2718 216.739 63.5637C216.739 63.8556 216.976 64.0922 217.267 64.0922H235.797C236.089 64.0922 236.325 63.8556 236.325 63.5637C236.325 63.2718 236.089 63.0352 235.797 63.0352Z" fill="#070707"/>
<defs>
<linearGradient id="paint0_linear_638_25" x1="4.14308" y1="26.4362" x2="79.4346" y2="63.4084" gradientUnits="userSpaceOnUse">
<stop stop-color="#24BBC4"/>
<stop offset="0.06" stop-color="#349FCF"/>
<stop offset="0.15" stop-color="#467FDC"/>
<stop offset="0.24" stop-color="#5368E5"/>
<stop offset="0.32" stop-color="#5B5AEA"/>
<stop offset="0.39" stop-color="#5E55EC"/>
<stop offset="0.57" stop-color="#5C58EB"/>
<stop offset="0.69" stop-color="#5761E7"/>
<stop offset="0.79" stop-color="#4E70E1"/>
<stop offset="0.89" stop-color="#4286D8"/>
<stop offset="0.97" stop-color="#32A2CC"/>
<stop offset="1" stop-color="#2CACC8"/>
</linearGradient>
</defs>
</svg>
