<svg width="239" height="90" viewBox="0 0 239 90" fill="none" xmlns="http://www.w3.org/2000/svg">
<path d="M60.8368 0C44.2322 8.44186 27.6624 16.8488 11.0927 25.2907C25.8834 25.9186 40.7089 26.5116 55.4996 27.1395C57.0694 26.1977 61.2903 23.3023 63.3485 17.7558C66.6624 8.7907 61.395 0.802326 60.8368 0Z" fill="#5E55EC"/>
<path d="M77.5113 37.6048L7.1508 51.5932C3.03452 47.1978 -2.44223 38.0932 1.18568 31.9885C1.91824 30.8025 2.8601 29.8955 3.83684 29.1978C4.81359 28.535 5.82522 28.0815 6.66243 27.7676L66.0345 30.349C66.4531 30.3839 66.8717 30.4885 67.2555 30.6629C67.5345 30.8025 67.8834 31.0118 68.2671 31.1862C70.6741 32.4769 72.1043 33.2094 73.4299 34.1164C74.5113 34.8839 75.9415 35.9653 77.5113 37.6048Z" fill="url(#paint0_linear_357_50)"/>
<path d="M23.3019 90.0001C39.6623 81.1745 56.0228 72.314 72.4181 63.4884C57.5926 63.2442 42.8019 63 27.9763 62.7559C26.4414 63.7675 22.2902 66.7326 20.3716 72.3489C17.2321 81.3489 22.7088 89.1977 23.3019 90.0001Z" fill="#5E55EC"/>
<path d="M83.5461 56.3022C82.9531 57.3138 81.5229 59.1975 77.8601 60.4184C58.8833 59.9998 39.8717 59.6161 20.8949 59.1975C17.3717 58.3952 11.7554 56.4766 7.15076 51.5929L77.5112 37.6045C82.988 43.1859 86.5112 51.244 83.5461 56.3022Z" fill="url(#paint1_linear_357_50)"/>
<path d="M120.558 36.9765H114.872V34.8835H100.081V39.3137H115.186C118.116 39.3137 120.558 41.616 120.558 44.5114V49.4998C120.558 52.3951 118.116 54.6974 115.186 54.6974H99.8368C96.8717 54.6974 94.4647 52.3951 94.4647 49.4998V47.1626H100.081V49.2207H114.872V44.7905H99.8368C96.8717 44.7905 94.4647 42.4881 94.4647 39.5928V34.6044C94.4647 31.7091 96.8717 29.4067 99.8368 29.4067H115.186C118.116 29.4067 120.558 31.7091 120.558 34.6044V36.9765Z" fill="#070707"/>
<path d="M145.186 29.4067C148.151 29.4067 150.593 31.7091 150.593 34.6044V54.6974H144.907V46.5346H130.116V54.6974H124.5V34.6044C124.5 31.7091 126.907 29.4067 129.872 29.4067H145.186ZM144.872 41.0579V34.8835H130.116V41.0579H144.872Z" fill="#070707"/>
<path d="M180.593 36.9765H174.907V34.8835H160.116V39.3137H175.221C178.151 39.3137 180.593 41.616 180.593 44.5114V49.4998C180.593 52.3951 178.151 54.6974 175.221 54.6974H159.872C156.907 54.6974 154.5 52.3951 154.5 49.4998V47.1626H160.116V49.2207H174.907V44.7905H159.872C156.907 44.7905 154.5 42.4881 154.5 39.5928V34.6044C154.5 31.7091 156.907 29.4067 159.872 29.4067H175.221C178.151 29.4067 180.593 31.7091 180.593 34.6044V36.9765Z" fill="#070707"/>
<path d="M209.686 29.4067V31.2905L200.372 42.0346C203.407 45.5928 206.651 49.2556 209.686 52.7788V54.6626H203.825L195.279 44.7556H190.186V54.6626H184.535V29.4067H190.186V39.3137H195.279C196.36 38.0928 197.442 36.837 198.523 35.5463L203.825 29.4067H209.686Z" fill="#070707"/>
<path d="M233.267 29.4067C236.232 29.4067 238.674 31.7091 238.674 34.6044V54.6974H232.988V46.5346H218.197V54.6974H212.581V34.6044C212.581 31.7091 214.988 29.4067 217.953 29.4067H233.267ZM232.953 41.0579V34.8835H218.162V41.0579H232.953Z" fill="#070707"/>
<path d="M126.802 60.2091H125.302V59.6509C125.302 59.4765 125.162 59.3719 124.988 59.3719H118.674C118.5 59.3719 118.36 59.5114 118.36 59.6509V61.7091C118.36 61.8835 118.5 61.9881 118.674 61.9881H124.988C125.965 61.9881 126.767 62.7556 126.767 63.7323V65.7905C126.767 66.7323 125.965 67.5346 124.988 67.5346H118.674C117.697 67.5346 116.895 66.7672 116.895 65.7905V65.2323H118.395V65.7905C118.395 65.9649 118.535 66.0695 118.709 66.0695H125.023C125.197 66.0695 125.337 65.93 125.337 65.7905V63.7323C125.337 63.5579 125.197 63.4532 125.023 63.4532H118.709C117.732 63.4532 116.93 62.6858 116.93 61.7091V59.6509C116.93 58.7091 117.732 57.9067 118.709 57.9067H125.023C126 57.9067 126.802 58.6742 126.802 59.6509V60.2091Z" fill="#070707"/>
<path d="M138.209 59.7905C139.186 59.7905 139.988 60.558 139.988 61.5347V65.7905C139.988 66.7324 139.186 67.5347 138.209 67.5347H133.674C132.697 67.5347 131.895 66.7673 131.895 65.7905V61.5347C131.895 60.5929 132.697 59.7905 133.674 59.7905H138.209ZM133.674 61.2208C133.5 61.2208 133.36 61.3603 133.36 61.4998V65.7556C133.36 65.9301 133.5 66.0347 133.674 66.0347H138.209C138.383 66.0347 138.523 65.8952 138.523 65.7556V61.4998C138.523 61.3254 138.383 61.2208 138.209 61.2208H133.674Z" fill="#070707"/>
<path d="M144.872 57.2441H146.372V65.7558C146.372 65.9302 146.511 66.0348 146.686 66.0348H148.186V67.4651H146.686C145.709 67.4651 144.907 66.6976 144.907 65.7209V61.4651V57.2441H144.872Z" fill="#070707"/>
<path d="M161.023 59.7905V65.7905C161.023 66.7324 160.221 67.5347 159.244 67.5347H154.709C153.732 67.5347 152.93 66.7673 152.93 65.7905V59.7905H154.43V65.7905C154.43 65.965 154.569 66.0696 154.744 66.0696H159.279C159.453 66.0696 159.593 65.9301 159.593 65.7905V59.7905H161.023Z" fill="#070707"/>
<path d="M167.442 61.2209V65.7907C167.442 65.9651 167.581 66.0697 167.756 66.0697H170.721V67.5H167.756C166.779 67.5 165.976 66.7325 165.976 65.7558V61.5V57.2441H167.476V59.7906H170.756V61.2209H167.442Z" fill="#070707"/>
<path d="M176.79 57.2441V58.6744H175.29V57.2441H176.79ZM175.29 59.7906H176.79V67.5H175.29V59.7906Z" fill="#070707"/>
<path d="M188.162 59.7905C189.139 59.7905 189.942 60.558 189.942 61.5347V65.7905C189.942 66.7324 189.139 67.5347 188.162 67.5347H183.628C182.651 67.5347 181.849 66.7673 181.849 65.7905V61.5347C181.849 60.5929 182.651 59.7905 183.628 59.7905H188.162ZM183.628 61.2208C183.453 61.2208 183.314 61.3603 183.314 61.4998V65.7556C183.314 65.9301 183.453 66.0347 183.628 66.0347H188.162C188.337 66.0347 188.476 65.8952 188.476 65.7556V61.4998C188.476 61.3254 188.337 61.2208 188.162 61.2208H183.628Z" fill="#070707"/>
<path d="M203.023 61.4998V67.4998H201.523V61.4998C201.523 61.3254 201.383 61.2208 201.209 61.2208H196.674C196.5 61.2208 196.36 61.3603 196.36 61.4998V67.4998H194.86V59.7905H201.174C202.221 59.7905 203.023 60.558 203.023 61.4998Z" fill="#070707"/>
<path d="M216.209 61.8138H214.709V61.5347C214.709 61.3603 214.569 61.2556 214.395 61.2556H209.86C209.686 61.2556 209.546 61.3952 209.546 61.5347V62.651C209.546 62.8254 209.686 62.9301 209.86 62.9301H214.395C215.372 62.9301 216.174 63.6975 216.174 64.6742V65.7905C216.174 66.7324 215.372 67.5347 214.395 67.5347H209.86C208.883 67.5347 208.081 66.7673 208.081 65.7905V65.5115H209.581V65.7905C209.581 65.965 209.721 66.0696 209.895 66.0696H214.43C214.604 66.0696 214.744 65.9301 214.744 65.7905V64.6742C214.744 64.4998 214.604 64.3952 214.43 64.3952H209.895C208.918 64.3952 208.116 63.6277 208.116 62.651V61.5347C208.116 60.5929 208.918 59.7905 209.895 59.7905H214.43C215.407 59.7905 216.209 60.558 216.209 61.5347V61.8138Z" fill="#070707"/>
<path d="M113.686 63.837H94.988C94.7089 63.837 94.4647 63.5929 94.4647 63.3138C94.4647 63.0347 94.7089 62.7905 94.988 62.7905H113.686C113.965 62.7905 114.209 63.0347 114.209 63.3138C114.244 63.5929 114 63.837 113.686 63.837Z" fill="#070707"/>
<path d="M238.116 63.837H219.418C219.139 63.837 218.895 63.5929 218.895 63.3138C218.895 63.0347 219.139 62.7905 219.418 62.7905H238.116C238.395 62.7905 238.639 63.0347 238.639 63.3138C238.639 63.5929 238.43 63.837 238.116 63.837Z" fill="#070707"/>
<defs>
<linearGradient id="paint0_linear_357_50" x1="-8.38163" y1="18.7529" x2="101.271" y2="72.6001" gradientUnits="userSpaceOnUse">
<stop stop-color="#24BBC4"/>
<stop offset="0.2146" stop-color="#4581DB"/>
<stop offset="0.3929" stop-color="#5E55EC"/>
<stop offset="0.5069" stop-color="#5B5AEA"/>
<stop offset="0.6507" stop-color="#526AE3"/>
<stop offset="0.8105" stop-color="#4384D9"/>
<stop offset="0.9808" stop-color="#2FA7CA"/>
<stop offset="1" stop-color="#2CACC8"/>
</linearGradient>
<linearGradient id="paint1_linear_357_50" x1="-8.4744" y1="20.5256" x2="101.178" y2="74.3729" gradientUnits="userSpaceOnUse">
<stop stop-color="#24BBC4"/>
<stop offset="0.2146" stop-color="#4581DB"/>
<stop offset="0.3929" stop-color="#5E55EC"/>
<stop offset="0.5069" stop-color="#5B5AEA"/>
<stop offset="0.6507" stop-color="#526AE3"/>
<stop offset="0.8105" stop-color="#4384D9"/>
<stop offset="0.9808" stop-color="#2FA7CA"/>
<stop offset="1" stop-color="#2CACC8"/>
</linearGradient>
</defs>
</svg>
