<svg width="40" height="40" viewBox="0 0 40 40" fill="none" xmlns="http://www.w3.org/2000/svg">
<circle cx="20" cy="20" r="20" fill="url(#paint0_linear_13_8)"/>
<path d="M4.40002 28V25.9C4.40002 24.9444 4.87669 24.1667 5.83002 23.5667C6.78336 22.9667 8.04002 22.6667 9.60002 22.6667C9.88169 22.6667 10.1525 22.6722 10.4125 22.6833C10.6725 22.6944 10.9217 22.7222 11.16 22.7667C10.8567 23.2333 10.6292 23.7222 10.4775 24.2333C10.3259 24.7444 10.25 25.2778 10.25 25.8333V28H4.40002ZM12.2 28V25.8333C12.2 25.1222 12.3896 24.4722 12.7688 23.8833C13.1479 23.2944 13.6842 22.7778 14.3775 22.3333C15.0709 21.8889 15.8996 21.5556 16.8638 21.3333C17.8279 21.1111 18.8734 21 20 21C21.1484 21 22.2046 21.1111 23.1688 21.3333C24.1329 21.5556 24.9617 21.8889 25.655 22.3333C26.3484 22.7778 26.8792 23.2944 27.2475 23.8833C27.6159 24.4722 27.8 25.1222 27.8 25.8333V28H12.2ZM29.75 28V25.8333C29.75 25.2556 29.6796 24.7111 29.5388 24.2C29.3979 23.6889 29.1867 23.2111 28.905 22.7667C29.1434 22.7222 29.3871 22.6944 29.6363 22.6833C29.8854 22.6722 30.14 22.6667 30.4 22.6667C31.96 22.6667 33.2167 22.9611 34.17 23.55C35.1234 24.1389 35.6 24.9222 35.6 25.9V28H29.75ZM9.60002 21.3333C8.88502 21.3333 8.27294 21.0722 7.76377 20.55C7.25461 20.0278 7.00002 19.4 7.00002 18.6667C7.00002 17.9111 7.25461 17.2778 7.76377 16.7667C8.27294 16.2556 8.88502 16 9.60002 16C10.3367 16 10.9542 16.2556 11.4525 16.7667C11.9509 17.2778 12.2 17.9111 12.2 18.6667C12.2 19.4 11.9509 20.0278 11.4525 20.55C10.9542 21.0722 10.3367 21.3333 9.60002 21.3333ZM30.4 21.3333C29.685 21.3333 29.0729 21.0722 28.5638 20.55C28.0546 20.0278 27.8 19.4 27.8 18.6667C27.8 17.9111 28.0546 17.2778 28.5638 16.7667C29.0729 16.2556 29.685 16 30.4 16C31.1367 16 31.7542 16.2556 32.2525 16.7667C32.7509 17.2778 33 17.9111 33 18.6667C33 19.4 32.7509 20.0278 32.2525 20.55C31.7542 21.0722 31.1367 21.3333 30.4 21.3333ZM20 20C18.9167 20 17.9959 19.6111 17.2375 18.8333C16.4792 18.0556 16.1 17.1111 16.1 16C16.1 14.8667 16.4792 13.9167 17.2375 13.15C17.9959 12.3833 18.9167 12 20 12C21.105 12 22.0313 12.3833 22.7788 13.15C23.5263 13.9167 23.9 14.8667 23.9 16C23.9 17.1111 23.5263 18.0556 22.7788 18.8333C22.0313 19.6111 21.105 20 20 20Z" fill="white"/>
<defs>
<linearGradient id="paint0_linear_13_8" x1="1.49965e-07" y1="24.6" x2="40" y2="24.6" gradientUnits="userSpaceOnUse">
<stop stop-color="#85C5D3"/>
<stop offset="1" stop-color="#2CACC8"/>
</linearGradient>
</defs>
</svg>
