<svg width="855" height="522" viewBox="0 0 855 522" fill="none" xmlns="http://www.w3.org/2000/svg">
<path d="M593.281 173.276H580.119C579.152 170.453 577.973 167.707 576.592 165.061L585.841 155.812C586.516 155.173 587.053 154.403 587.42 153.549C587.788 152.695 587.977 151.775 587.977 150.845C587.977 149.915 587.788 148.995 587.42 148.141C587.053 147.287 586.516 146.517 585.841 145.878L565.169 125.207C564.531 124.532 563.761 123.994 562.908 123.627C562.054 123.26 561.135 123.071 560.206 123.071C559.276 123.071 558.357 123.26 557.504 123.627C556.65 123.994 555.88 124.532 555.242 125.207L545.66 134.795C543.173 133.728 540.326 132.661 537.832 131.594V118.071C537.834 116.18 537.085 114.364 535.75 113.024C534.415 111.684 532.602 110.928 530.711 110.923H501.491C499.6 110.93 497.79 111.687 496.456 113.027C495.122 114.367 494.375 116.181 494.376 118.071V130.847C491.563 131.92 489.042 132.987 486.582 134.054L476.96 124.445C476.324 123.76 475.553 123.213 474.696 122.839C473.839 122.465 472.914 122.273 471.979 122.273C471.044 122.273 470.119 122.465 469.262 122.839C468.405 123.213 467.634 123.76 466.998 124.445L446.327 145.083C445.652 145.725 445.115 146.498 444.748 147.354C444.381 148.21 444.192 149.132 444.192 150.064C444.192 150.995 444.381 151.917 444.748 152.773C445.115 153.63 445.652 154.402 446.327 155.045L455.609 164.3C454.278 166.951 453.091 169.674 452.055 172.454H438.92C437.024 172.454 435.206 173.207 433.865 174.548C432.525 175.888 431.771 177.707 431.771 179.603V208.782C431.779 210.672 432.535 212.483 433.875 213.816C435.215 215.15 437.029 215.898 438.92 215.896H450.988C452.016 218.806 453.202 221.658 454.542 224.438L445.647 233.333C444.254 234.753 441.665 238.932 445.647 243.261L466.319 263.932C466.957 264.607 467.727 265.144 468.581 265.511C469.434 265.879 470.353 266.068 471.283 266.068C472.212 266.068 473.131 265.879 473.985 265.511C474.838 265.144 475.608 264.607 476.247 263.932L484.788 255.397C487.583 257.056 490.571 258.368 493.683 259.304V271.053C493.68 271.993 493.861 272.924 494.218 273.793C494.574 274.662 495.098 275.452 495.76 276.119C496.422 276.785 497.209 277.314 498.076 277.677C498.942 278.039 499.872 278.227 500.811 278.229H530.031C533.945 278.229 537.146 275.022 536.792 271.855V260.113C539.64 259.046 542.84 257.585 545.687 256.199L554.229 264.707C554.865 265.387 555.633 265.929 556.487 266.299C557.341 266.67 558.262 266.861 559.193 266.861C560.124 266.861 561.045 266.67 561.899 266.299C562.753 265.929 563.521 265.387 564.157 264.707L584.828 244.069C585.503 243.427 586.04 242.654 586.407 241.798C586.774 240.942 586.964 240.02 586.964 239.088C586.964 238.157 586.774 237.235 586.407 236.379C586.04 235.523 585.503 234.75 584.828 234.108L575.933 225.274C577.353 222.392 578.42 219.579 579.494 216.732H593.302C595.193 216.725 597.004 215.968 598.339 214.629C599.674 213.289 600.423 211.475 600.423 209.583V180.377C600.411 178.491 599.653 176.686 598.315 175.356C596.977 174.025 595.168 173.278 593.281 173.276ZM516.101 235.983C507.91 235.984 499.903 233.557 493.093 229.007C486.282 224.458 480.973 217.991 477.838 210.424C474.702 202.858 473.881 194.531 475.478 186.498C477.076 178.465 481.019 171.086 486.81 165.293C492.601 159.501 499.98 155.557 508.013 153.958C516.046 152.36 524.372 153.18 531.939 156.314C539.507 159.448 545.974 164.756 550.525 171.566C555.076 178.376 557.504 186.382 557.504 194.573C557.494 205.551 553.128 216.076 545.366 223.84C537.604 231.603 527.079 235.97 516.101 235.983Z" fill="#2CACC8"/>
<path d="M516.101 155.792C508.429 155.792 500.93 158.067 494.551 162.329C488.172 166.592 483.201 172.65 480.265 179.738C477.33 186.826 476.562 194.625 478.059 202.149C479.556 209.673 483.251 216.584 488.676 222.009C494.102 227.433 501.014 231.126 508.538 232.622C516.062 234.118 523.862 233.349 530.949 230.412C538.036 227.476 544.094 222.503 548.355 216.124C552.616 209.744 554.89 202.244 554.888 194.573C554.856 184.296 550.759 174.45 543.492 167.184C536.224 159.918 526.377 155.822 516.101 155.792ZM516.101 219.511C511.167 219.518 506.342 218.061 502.236 215.325C498.131 212.589 494.929 208.696 493.036 204.14C491.144 199.583 490.645 194.568 491.603 189.728C492.562 184.888 494.934 180.442 498.421 176.95C501.907 173.459 506.351 171.081 511.189 170.116C516.028 169.151 521.044 169.643 525.603 171.529C530.162 173.416 534.058 176.612 536.8 180.714C539.542 184.816 541.006 189.639 541.006 194.573C541.006 208.095 529.623 219.484 516.101 219.484V219.511Z" fill="#2CACC8"/>
<path d="M316.021 270.299C315.987 270.89 315.96 271.454 315.899 271.991C315.873 272.531 315.814 273.069 315.722 273.602C315.598 274.661 315.419 275.714 315.185 276.755C314.907 278.068 314.334 279.3 313.51 280.36C312.686 281.419 311.633 282.278 310.429 282.871C310.152 283.014 309.863 283.133 309.566 283.224C309.361 283.298 309.153 283.36 308.94 283.407C308.661 283.492 308.374 283.551 308.084 283.584C308.002 283.632 307.907 283.654 307.812 283.645C307.341 283.728 306.864 283.766 306.385 283.761H306.12C306.263 282.544 306.413 281.233 306.474 279.833C306.508 279.154 306.535 278.474 306.508 277.842C306.481 277.21 306.474 276.565 306.447 275.967C306.447 275.512 306.417 275.058 306.358 274.608C306.352 274.36 306.332 274.112 306.297 273.867C306.134 272.418 305.543 271.05 304.598 269.939C302.475 267.445 300.001 265.273 297.253 263.49C296.815 263.197 296.361 262.927 295.894 262.682C295.225 262.279 294.531 261.923 293.814 261.615C293.4 261.438 293.012 261.255 292.625 261.105C290.418 260.15 288.038 259.655 285.633 259.651C284.797 259.644 283.962 259.715 283.139 259.862L283.078 259.801C284.892 254.296 287.868 252.244 289.193 251.504C290.711 250.675 292.399 250.21 294.127 250.145C294.487 250.145 294.84 250.145 295.2 250.145C295.561 250.145 295.975 250.145 296.39 250.206C296.689 250.206 297.015 250.267 297.307 250.294C297.599 250.321 297.932 250.382 298.231 250.444C298.53 250.505 298.856 250.566 299.182 250.654C299.518 250.714 299.848 250.803 300.168 250.919C300.629 251.042 301.083 251.192 301.527 251.368C301.792 251.456 302.091 251.572 302.39 251.694C303.911 252.309 305.366 253.076 306.732 253.984C307.18 254.249 307.595 254.548 308.043 254.874C308.535 255.195 309.001 255.554 309.436 255.948C309.824 256.247 310.238 256.573 310.626 256.926C311.013 257.28 311.461 257.674 311.876 258.088C312.23 258.408 312.568 258.746 312.889 259.101C313.257 259.465 313.605 259.851 313.928 260.256C314.875 261.496 315.509 262.946 315.776 264.483C315.808 264.68 315.826 264.88 315.831 265.081C315.865 265.461 315.892 265.882 315.919 266.297C316.025 267.628 316.059 268.964 316.021 270.299Z" fill="white"/>
<path d="M306.413 285.229H304.734L304.667 283.557C304.816 282.375 304.959 281.111 305.013 279.752C305.047 279.113 305.074 278.474 305.047 277.897C305.047 277.217 305.013 276.592 304.986 276.021C304.989 275.621 304.964 275.222 304.911 274.825C304.904 274.568 304.884 274.312 304.85 274.057C304.717 272.898 304.244 271.803 303.491 270.911C301.46 268.527 299.096 266.449 296.471 264.741C296.07 264.47 295.655 264.221 295.228 263.993C294.597 263.608 293.938 263.27 293.257 262.981L292.924 262.831L292.129 262.498C290.718 261.907 289.239 261.494 287.726 261.269C286.303 261.087 284.862 261.105 283.445 261.323L282.65 261.472L281.495 260.256L281.712 259.345C283.499 253.909 286.408 251.395 288.507 250.213C290.229 249.285 292.139 248.765 294.093 248.69C294.908 248.635 295.726 248.646 296.539 248.724C296.768 248.717 296.996 248.737 297.219 248.786C297.824 248.854 298.191 248.915 298.53 248.983C298.87 249.051 299.21 249.119 299.59 249.214C299.964 249.29 300.332 249.392 300.691 249.52C301.172 249.646 301.644 249.802 302.105 249.988C302.315 250.056 302.635 250.185 302.961 250.315C304.577 250.968 306.123 251.783 307.575 252.747C307.996 252.999 308.451 253.318 308.934 253.671C309.498 254.014 310.036 254.398 310.544 254.82C310.959 255.124 311.356 255.45 311.734 255.798C312.135 256.138 312.576 256.553 313.025 256.994C313.364 257.307 313.704 257.674 314.078 258.054C314.478 258.447 314.853 258.864 315.199 259.305C316.296 260.736 317.029 262.413 317.333 264.19C317.382 264.471 317.409 264.755 317.414 265.04L317.503 266.148C317.579 267.542 317.579 268.939 317.503 270.333C317.503 270.959 317.442 271.55 317.38 272.114C317.35 272.683 317.286 273.25 317.19 273.813C317.061 274.89 316.878 275.961 316.64 277.02C316.318 278.553 315.651 279.993 314.689 281.229C313.727 282.466 312.495 283.467 311.088 284.155C310.747 284.328 310.392 284.473 310.028 284.59C309.751 284.687 309.467 284.762 309.179 284.814C309.004 284.877 308.825 284.922 308.642 284.95L308.553 285.011L307.84 285.066C307.372 285.173 306.893 285.228 306.413 285.229ZM308.54 281.96L309.382 283.272L308.914 281.858C309.218 281.774 309.514 281.66 309.797 281.518C310.798 281.022 311.673 280.305 312.356 279.421C313.038 278.537 313.511 277.509 313.738 276.415C313.96 275.433 314.128 274.439 314.241 273.439C314.331 272.933 314.39 272.423 314.418 271.91C314.479 271.326 314.506 270.795 314.533 270.231C314.606 268.953 314.606 267.671 314.533 266.392L314.445 265.176C314.444 265.037 314.431 264.898 314.404 264.761C314.185 263.447 313.649 262.206 312.841 261.146C312.556 260.793 312.252 260.455 311.931 260.134C311.591 259.767 311.292 259.454 310.966 259.169C310.531 258.741 310.143 258.381 309.756 258.048C309.369 257.715 308.981 257.368 308.628 257.11C308.2 256.736 307.746 256.393 307.269 256.084C306.874 255.784 306.464 255.505 306.039 255.248C304.739 254.377 303.353 253.643 301.901 253.06C301.643 252.951 301.371 252.842 301.126 252.761C300.71 252.594 300.283 252.455 299.849 252.346C299.572 252.237 299.285 252.155 298.992 252.102C298.585 251.993 298.313 251.945 298.041 251.891C297.769 251.837 297.491 251.789 297.232 251.762L296.92 251.721C296.764 251.721 296.614 251.68 296.471 251.68C295.928 251.646 295.561 251.633 295.174 251.619C294.786 251.606 294.61 251.619 294.331 251.619C292.814 251.667 291.329 252.063 289.989 252.774C288.63 253.535 286.809 255.078 285.382 258.143C286.301 258.13 287.221 258.18 288.134 258.292C289.894 258.546 291.616 259.02 293.257 259.706C293.529 259.808 293.835 259.943 294.154 260.079L294.474 260.222C295.253 260.558 296.009 260.946 296.736 261.384C297.215 261.641 297.68 261.923 298.129 262.227C300.997 264.088 303.577 266.359 305.788 268.968C306.923 270.303 307.633 271.948 307.826 273.69C307.868 273.997 307.891 274.305 307.894 274.614C307.966 275.064 307.997 275.519 307.989 275.973C307.989 276.524 308.044 277.169 308.044 277.849C308.044 278.529 308.044 279.208 308.044 279.888C308.044 280.567 307.949 281.389 307.881 282.103H308.017C308.195 282.072 308.37 282.024 308.54 281.96Z" fill="#2CACC8"/>
<path d="M382.166 293.94C377.661 302.233 372.026 309.86 365.423 316.603C363.731 318.349 362.673 320.612 362.419 323.031C358.129 362.199 353.825 401.385 349.508 440.589C346.636 467.104 343.732 493.617 340.797 520.128H226.677L300.351 339.238C301.009 337.652 301.054 335.878 300.476 334.261C299.898 332.645 298.74 331.301 297.225 330.492C289.657 326.453 282.606 321.51 276.228 315.773C273.843 313.633 271.675 311.492 269.684 309.379C264.641 304.091 261.708 297.139 261.441 289.836V289.632C261.403 286.319 261.815 283.016 262.665 279.813C264.479 274.818 267.306 272.916 268.549 272.202C270.015 271.403 271.639 270.939 273.306 270.843C276.442 270.686 279.569 271.309 282.405 272.657C285.441 274.039 288.224 275.917 290.641 278.216C291.001 278.515 291.32 278.896 291.714 279.256C293.986 281.703 295.278 284.9 295.343 288.239C295.343 289.102 295.343 290.026 295.309 291.005C295.309 291.718 295.221 292.405 295.166 293.084C295.752 293.205 296.349 293.267 296.947 293.268C297.307 293.268 297.694 293.234 298.047 293.206C298.401 293.179 298.795 293.084 299.148 292.996C299.514 292.915 299.873 292.806 300.222 292.67C300.397 292.619 300.566 292.548 300.725 292.459C300.996 292.372 301.256 292.253 301.499 292.106C302.574 291.468 303.502 290.611 304.224 289.591C304.947 288.572 305.447 287.412 305.692 286.187C305.869 285.446 306.018 284.61 306.141 283.747H306.406C306.884 283.753 307.362 283.714 307.833 283.632C307.927 283.64 308.023 283.619 308.104 283.571C308.395 283.538 308.681 283.479 308.961 283.394C309.173 283.346 309.382 283.285 309.586 283.211C309.884 283.119 310.173 283.001 310.449 282.857C311.653 282.264 312.706 281.406 313.53 280.346C314.354 279.287 314.927 278.054 315.206 276.741C315.439 275.701 315.618 274.648 315.742 273.588C315.834 273.056 315.893 272.518 315.919 271.978C315.98 271.441 316.007 270.877 316.041 270.286C316.102 268.948 316.091 267.607 316.007 266.27C316.007 265.91 316.007 265.556 315.953 265.23C315.959 265.169 315.947 265.108 315.919 265.054C315.914 264.853 315.896 264.653 315.865 264.456C315.598 262.919 314.964 261.469 314.016 260.229C313.693 259.824 313.346 259.438 312.977 259.074C312.656 258.719 312.318 258.382 311.964 258.061C311.55 257.647 311.135 257.259 310.714 256.899C310.293 256.539 309.912 256.22 309.525 255.921C309.089 255.527 308.623 255.169 308.132 254.847C307.683 254.521 307.269 254.222 306.82 253.957C305.454 253.049 303.999 252.282 302.478 251.667C302.179 251.545 301.88 251.429 301.615 251.341C301.171 251.165 300.717 251.015 300.256 250.892C299.936 250.776 299.606 250.687 299.271 250.627C298.944 250.539 298.645 250.478 298.319 250.417C297.993 250.355 297.694 250.301 297.395 250.267C297.096 250.233 296.777 250.179 296.478 250.179C296.063 250.179 295.676 250.118 295.289 250.118C294.901 250.118 294.575 250.118 294.215 250.118C293.862 240.958 293.298 233.639 292.856 228.672C292.3 221.266 292.3 213.829 292.856 206.424C293.07 203.983 293.683 201.593 294.67 199.35C295.771 196.849 297.674 192.555 301.751 191.495C303.6 191.045 305.546 191.225 307.282 192.004C309.008 192.812 310.435 194.144 311.359 195.81C313.439 199.316 312.936 203.121 312.664 205.595C312.099 211.51 312.12 217.467 312.725 223.378C314.275 237.241 317.156 246.068 320.071 251.918C320.109 251.975 320.139 252.037 320.159 252.102C323.521 258.162 327.803 263.664 332.853 268.41C338.534 273.67 346.804 275.457 353.918 272.392C354.598 272.066 355.277 271.713 355.794 271.468C362.005 267.989 365.484 261.065 372.15 247.352C374.114 243.336 375.69 239.877 376.845 237.159C377.669 235.044 379.234 233.3 381.249 232.253C383.007 231.382 384.998 231.098 386.93 231.444C388.95 231.873 390.774 232.952 392.124 234.515C393.473 236.078 394.274 238.04 394.404 240.101C394.805 250.743 394.126 271.842 382.166 293.94Z" fill="white"/>
<path d="M342.128 521.616H224.461L298.992 338.68C299.51 337.434 299.545 336.04 299.092 334.769C298.638 333.498 297.728 332.441 296.539 331.803C288.858 327.699 281.702 322.68 275.229 316.854C272.946 314.815 270.717 312.62 268.59 310.371C263.294 304.816 260.219 297.512 259.946 289.842C259.888 286.324 260.315 282.814 261.217 279.412C262.651 275.443 264.914 272.535 267.808 270.884C269.469 269.97 271.312 269.436 273.204 269.321C276.585 269.146 279.957 269.814 283.016 271.264C286.199 272.718 289.12 274.688 291.66 277.095C291.898 277.292 292.21 277.604 292.516 277.917L292.767 278.168C295.308 280.892 296.759 284.454 296.845 288.178C296.845 289 296.845 289.904 296.845 290.896C296.845 291.208 296.845 291.494 296.797 291.766C297.187 291.78 297.578 291.764 297.966 291.718C298.299 291.657 298.571 291.616 298.829 291.548C299.122 291.481 299.41 291.395 299.692 291.29L300.025 291.168C300.276 291.077 300.519 290.966 300.752 290.835C301.654 290.299 302.434 289.58 303.042 288.725C303.649 287.869 304.071 286.896 304.279 285.867C304.455 285.133 304.591 284.345 304.707 283.536L304.883 282.252H306.181C306.636 282.264 307.091 282.235 307.54 282.164L307.608 282.116L307.975 282.082C308.172 282.062 308.365 282.021 308.553 281.96L309.396 283.271L308.927 281.858C309.231 281.773 309.527 281.66 309.81 281.518C310.811 281.022 311.686 280.305 312.369 279.421C313.052 278.537 313.524 277.509 313.751 276.415C313.973 275.433 314.141 274.439 314.254 273.439C314.344 272.933 314.403 272.423 314.431 271.91C314.492 271.319 314.519 270.789 314.546 270.225C314.619 268.948 314.619 267.668 314.546 266.392C314.546 266.039 314.546 265.76 314.499 265.509L314.451 265.413V265.067C314.45 264.964 314.439 264.862 314.417 264.761C314.198 263.447 313.662 262.206 312.854 261.146C312.569 260.793 312.265 260.455 311.944 260.134C311.604 259.767 311.305 259.454 310.979 259.169C310.544 258.741 310.157 258.38 309.769 258.047C309.382 257.714 308.995 257.368 308.641 257.11C308.213 256.736 307.759 256.393 307.282 256.084C306.887 255.784 306.477 255.505 306.052 255.248C304.753 254.377 303.366 253.643 301.914 253.06C301.656 252.951 301.384 252.842 301.139 252.761C300.723 252.594 300.297 252.455 299.862 252.346C299.581 252.236 299.289 252.154 298.992 252.102C298.584 251.993 298.312 251.945 298.041 251.891C297.769 251.837 297.49 251.789 297.232 251.762L296.919 251.721C296.763 251.721 296.614 251.68 296.471 251.68C295.927 251.646 295.54 251.633 295.173 251.619C294.806 251.605 294.609 251.619 294.33 251.619L292.781 251.741L292.72 250.192C292.441 242.921 291.979 235.732 291.361 228.828C290.795 221.336 290.795 213.813 291.361 206.322C291.593 203.715 292.247 201.163 293.298 198.765C294.439 196.176 296.559 191.338 301.357 190.074C303.539 189.541 305.838 189.751 307.887 190.672C309.871 191.616 311.514 193.152 312.589 195.069C314.852 198.881 314.417 202.877 314.125 205.513C313.545 211.414 313.557 217.357 314.159 223.256C315.457 234.869 317.876 244.321 321.355 251.259L321.525 251.619C324.825 257.438 328.993 262.72 333.886 267.282C339.322 272.29 346.933 273.738 353.341 270.986C353.816 270.768 354.278 270.537 354.7 270.306L355.148 270.082C360.802 266.908 364.043 260.602 370.832 246.638C373.026 242.146 374.583 238.647 375.5 236.5C376.372 234.202 378.024 232.285 380.167 231.081C382.309 229.878 384.806 229.465 387.222 229.915C389.57 230.398 391.694 231.639 393.267 233.448C394.84 235.256 395.774 237.532 395.927 239.924C396.457 253.44 394.731 273.846 383.498 294.606C378.926 303.018 373.209 310.754 366.51 317.594C365.05 319.103 364.138 321.058 363.921 323.146C359.64 362.314 355.336 401.5 351.01 440.704C348.378 464.936 345.728 489.159 343.059 513.373L342.128 521.616ZM228.885 518.639H339.458L340.069 513.074C342.733 488.851 345.386 464.628 348.027 440.405C352.339 401.237 356.643 362.051 360.938 322.847C361.226 320.104 362.421 317.535 364.335 315.549C370.847 308.906 376.403 301.388 380.841 293.213C391.713 273.051 393.433 253.209 392.916 240.121C392.803 238.397 392.13 236.757 390.999 235.451C389.868 234.145 388.341 233.244 386.651 232.885C385.033 232.598 383.367 232.836 381.894 233.564C380.206 234.464 378.897 235.94 378.204 237.723C377.273 239.897 375.697 243.444 373.448 247.99C366.877 261.513 363.255 268.961 356.46 272.752L355.97 273.004C355.522 273.228 355.026 273.479 354.482 273.731C346.96 276.972 338.065 275.301 331.793 269.484C326.608 264.649 322.206 259.037 318.746 252.849C314.99 245.338 312.453 235.587 311.135 223.595C310.517 217.578 310.497 211.514 311.074 205.493C311.359 202.836 311.72 199.574 309.96 196.611C309.191 195.211 308.003 194.087 306.562 193.397C305.139 192.761 303.544 192.615 302.029 192.983C298.632 193.88 296.94 197.705 295.914 199.995C295.001 202.088 294.43 204.313 294.222 206.587C293.673 213.875 293.673 221.193 294.222 228.481C294.813 235.079 295.255 241.827 295.54 248.65L296.484 248.711C296.713 248.703 296.941 248.724 297.164 248.772C297.769 248.84 298.136 248.901 298.476 248.969C298.815 249.037 299.155 249.105 299.536 249.2C299.909 249.276 300.277 249.378 300.636 249.506C301.117 249.632 301.589 249.789 302.05 249.975C302.26 250.043 302.58 250.172 302.906 250.301C304.522 250.954 306.068 251.769 307.52 252.734C307.941 252.985 308.397 253.304 308.879 253.658C309.462 254.003 310.019 254.391 310.544 254.82C310.958 255.123 311.355 255.45 311.733 255.798C312.134 256.138 312.576 256.552 313.024 256.994C313.364 257.307 313.704 257.674 314.077 258.054C314.478 258.447 314.852 258.864 315.199 259.305C316.296 260.736 317.028 262.413 317.332 264.19C317.332 264.367 317.38 264.51 317.394 264.646V264.686V265.216C317.433 265.562 317.453 265.909 317.455 266.256C317.532 267.614 317.532 268.975 317.455 270.333C317.455 270.972 317.394 271.563 317.332 272.127C317.302 272.697 317.238 273.264 317.142 273.826C317.013 274.904 316.83 275.974 316.592 277.033C316.27 278.567 315.603 280.006 314.641 281.243C313.679 282.479 312.447 283.48 311.04 284.168C310.699 284.341 310.344 284.487 309.98 284.603C309.703 284.7 309.419 284.775 309.131 284.828C308.956 284.89 308.777 284.936 308.594 284.963L308.505 285.025L307.792 285.079C307.656 285.115 307.517 285.14 307.377 285.154C307.289 285.623 307.201 286.071 307.099 286.513C306.811 287.94 306.225 289.29 305.378 290.474C304.531 291.658 303.443 292.65 302.186 293.383C301.688 293.649 301.17 293.876 300.636 294.062C300.26 294.208 299.874 294.326 299.481 294.416C299.141 294.504 298.802 294.565 298.442 294.62L298.129 294.667C297.029 294.773 295.92 294.725 294.833 294.524L293.529 294.266L293.644 292.941C293.698 292.262 293.76 291.582 293.787 290.903C293.787 289.876 293.841 289.041 293.787 288.252C293.731 285.274 292.582 282.42 290.559 280.234L290.321 279.989C290.109 279.749 289.882 279.522 289.642 279.31C287.33 277.101 284.666 275.293 281.759 273.962C279.147 272.707 276.262 272.125 273.367 272.27C271.913 272.352 270.495 272.756 269.215 273.452C266.932 274.764 265.172 277.061 264.01 280.248C263.213 283.276 262.831 286.399 262.875 289.53C263.088 296.536 265.88 303.218 270.717 308.292C272.755 310.473 274.95 312.593 277.166 314.598C283.466 320.252 290.427 325.123 297.898 329.106C299.744 330.084 301.157 331.719 301.859 333.687C302.56 335.655 302.5 337.814 301.69 339.74L228.885 518.639Z" fill="#2CACC8"/>
<path d="M315.98 266.283C315.98 265.869 315.926 265.447 315.892 265.067C315.92 265.121 315.932 265.183 315.926 265.244C315.98 265.57 315.98 265.923 315.98 266.283Z" fill="white"/>
<path d="M314.506 266.372L313.826 257.626L317.36 264.7V265.23C317.399 265.576 317.419 265.923 317.421 266.27L314.506 266.372Z" fill="#2CACC8"/>
<path d="M275.84 292.425C275.806 292.785 275.779 293.138 275.779 293.498C275.779 293.859 275.779 294.266 275.779 294.654C275.937 297.194 276.98 299.599 278.728 301.449C280.007 302.81 281.663 303.757 283.485 304.167C284.653 304.453 285.868 304.493 287.053 304.283C288.978 303.883 290.738 302.912 292.102 301.496C293.466 300.079 294.37 298.284 294.697 296.346C294.874 295.422 294.996 294.443 295.112 293.431" fill="white"/>
<path d="M285.544 305.913C285.226 305.912 284.909 305.894 284.593 305.859C284.113 305.819 283.638 305.74 283.172 305.621C281.068 305.135 279.155 304.035 277.675 302.461C275.701 300.365 274.517 297.648 274.325 294.776C274.291 294.348 274.291 293.919 274.291 293.498C274.291 293.077 274.291 292.73 274.352 292.35C274.388 291.958 274.577 291.597 274.877 291.343C275.176 291.089 275.564 290.962 275.956 290.991C276.345 291.02 276.706 291.203 276.961 291.498C277.216 291.794 277.343 292.178 277.315 292.567V292.622C277.315 292.921 277.267 293.22 277.267 293.525C277.267 293.831 277.267 294.205 277.267 294.565C277.398 296.752 278.29 298.824 279.788 300.423C280.87 301.579 282.27 302.39 283.811 302.753C284.146 302.836 284.487 302.893 284.83 302.923C285.494 302.995 286.165 302.97 286.821 302.848C288.441 302.498 289.917 301.669 291.059 300.47C292.202 299.27 292.958 297.755 293.229 296.121C293.406 295.211 293.522 294.266 293.637 293.288C293.655 293.092 293.713 292.902 293.807 292.729C293.901 292.557 294.029 292.405 294.184 292.284C294.338 292.162 294.516 292.074 294.706 292.023C294.896 291.972 295.094 291.961 295.288 291.99C295.68 292.036 296.038 292.235 296.283 292.545C296.527 292.855 296.639 293.249 296.593 293.641C296.464 294.687 296.342 295.679 296.158 296.665C295.766 298.894 294.715 300.954 293.14 302.579C291.565 304.205 289.54 305.321 287.324 305.784C286.735 305.872 286.14 305.915 285.544 305.913Z" fill="#2CACC8"/>
<path d="M306.535 277.822C306.535 278.447 306.535 279.133 306.501 279.813C306.44 281.212 306.29 282.531 306.148 283.74C306.025 284.603 305.876 285.439 305.699 286.18C305.454 287.405 304.954 288.565 304.231 289.584C303.509 290.604 302.581 291.46 301.507 292.098C301.263 292.246 301.003 292.365 300.732 292.452C300.573 292.541 300.404 292.612 300.229 292.662C299.88 292.799 299.521 292.908 299.155 292.989C298.802 293.077 298.415 293.138 298.055 293.199C297.694 293.26 297.314 293.26 296.954 293.26C296.356 293.26 295.759 293.198 295.173 293.077C295.228 292.397 295.289 291.718 295.316 290.998C295.35 290.019 295.377 289.095 295.35 288.232C295.277 284.905 293.986 281.721 291.721 279.283C291.361 278.929 291.008 278.542 290.648 278.243C288.231 275.944 285.448 274.065 282.412 272.684C279.576 271.336 276.449 270.713 273.313 270.87C273.49 270.095 273.666 269.348 273.843 268.696C275.657 263.667 278.457 261.764 279.735 261.085C280.806 260.488 281.975 260.086 283.187 259.896C284.01 259.749 284.844 259.678 285.68 259.685C288.086 259.689 290.465 260.183 292.673 261.139C293.06 261.289 293.447 261.472 293.862 261.649C294.578 261.957 295.273 262.313 295.941 262.716C296.409 262.96 296.862 263.23 297.3 263.524C300.048 265.307 302.523 267.479 304.646 269.973C305.59 271.084 306.182 272.452 306.345 273.901C306.38 274.146 306.4 274.394 306.406 274.641C306.465 275.092 306.495 275.546 306.494 276C306.501 276.564 306.535 277.169 306.535 277.822Z" fill="white"/>
<path d="M296.953 294.742C296.258 294.742 295.563 294.674 294.881 294.538L293.576 294.28L293.692 292.955C293.746 292.275 293.807 291.595 293.834 290.916C293.834 289.89 293.889 289.054 293.834 288.266C293.778 285.288 292.63 282.434 290.607 280.247L290.369 280.003C290.156 279.763 289.929 279.536 289.689 279.323C287.378 277.114 284.714 275.307 281.807 273.975C279.194 272.72 276.309 272.138 273.415 272.283L271.376 272.433L271.831 270.462C272.015 269.674 272.198 268.906 272.382 268.24C274.23 263.116 276.996 260.765 279.007 259.705C280.219 259.024 281.542 258.564 282.914 258.346C284.625 258.069 286.367 258.044 288.086 258.271C289.846 258.525 291.568 259 293.209 259.685C293.481 259.787 293.787 259.923 294.106 260.059L294.426 260.201C295.205 260.537 295.961 260.925 296.688 261.363C297.167 261.621 297.631 261.902 298.081 262.206C300.967 264.07 303.564 266.348 305.787 268.967C306.922 270.303 307.632 271.948 307.826 273.69C307.867 273.996 307.89 274.305 307.894 274.614C307.965 275.063 307.997 275.518 307.989 275.973C307.989 276.51 308.043 277.149 308.043 277.815C308.043 278.481 308.043 279.174 308.043 279.908C307.982 281.341 307.826 282.694 307.676 283.944C307.547 284.882 307.391 285.765 307.201 286.553C306.913 287.98 306.327 289.331 305.48 290.515C304.633 291.699 303.545 292.69 302.288 293.423C301.79 293.69 301.272 293.917 300.738 294.103C300.362 294.248 299.976 294.366 299.583 294.456C299.243 294.545 298.904 294.606 298.543 294.66L298.231 294.708C297.782 294.714 297.354 294.742 296.953 294.742ZM296.763 291.765C297.153 291.78 297.544 291.764 297.932 291.718C298.265 291.657 298.537 291.616 298.795 291.548C299.088 291.481 299.376 291.394 299.658 291.29L299.991 291.167C300.242 291.077 300.485 290.966 300.718 290.834C301.62 290.299 302.4 289.58 303.008 288.724C303.615 287.869 304.037 286.895 304.245 285.867C304.421 285.133 304.557 284.345 304.673 283.536C304.816 282.374 304.958 281.11 305.013 279.751C305.047 279.113 305.074 278.474 305.047 277.896V277.821C305.047 277.196 305.013 276.592 304.985 276.021C304.988 275.621 304.963 275.221 304.911 274.825C304.904 274.568 304.883 274.312 304.849 274.057C304.716 272.897 304.243 271.803 303.49 270.911C301.46 268.527 299.096 266.449 296.471 264.741C296.07 264.47 295.655 264.221 295.227 263.993C294.596 263.608 293.937 263.27 293.257 262.981L292.924 262.831L292.129 262.498C290.718 261.907 289.239 261.494 287.725 261.268C286.303 261.086 284.862 261.105 283.444 261.323C282.39 261.483 281.373 261.831 280.441 262.349C279.157 263.028 276.799 264.829 275.229 269.144L275.188 269.3C277.895 269.46 280.548 270.126 283.009 271.264C286.193 272.717 289.113 274.687 291.653 277.094C291.891 277.291 292.203 277.604 292.509 277.917L292.761 278.168C295.301 280.892 296.752 284.454 296.838 288.177C296.838 289 296.838 289.903 296.838 290.896C296.797 291.208 296.784 291.514 296.763 291.765Z" fill="#2CACC8"/>
<path d="M275.841 292.425C275.872 291.846 275.94 291.269 276.045 290.699C276.137 290.272 276.38 289.892 276.73 289.63C277.079 289.368 277.512 289.241 277.947 289.272L282.826 289.632" fill="white"/>
<path d="M275.841 293.913H275.766C275.571 293.904 275.379 293.857 275.202 293.774C275.025 293.691 274.867 293.574 274.735 293.429C274.604 293.284 274.503 293.115 274.437 292.931C274.371 292.747 274.342 292.552 274.353 292.357C274.388 291.716 274.465 291.078 274.584 290.447C274.733 289.656 275.17 288.948 275.81 288.459C276.449 287.97 277.247 287.734 278.049 287.797L282.935 288.15C283.329 288.179 283.695 288.363 283.953 288.662C284.211 288.961 284.34 289.35 284.311 289.744C284.282 290.138 284.098 290.504 283.799 290.762C283.5 291.02 283.111 291.149 282.718 291.12L277.845 290.767C277.669 290.767 277.54 290.841 277.506 290.998C277.413 291.496 277.351 292 277.322 292.506C277.301 292.885 277.136 293.242 276.861 293.504C276.585 293.765 276.22 293.912 275.841 293.913Z" fill="#2CACC8"/>
<path d="M295.35 288.232C295.277 284.905 293.986 281.721 291.721 279.283C291.721 279.283 291.721 279.283 291.782 279.317C292.854 280.307 293.719 281.501 294.325 282.829C294.932 284.156 295.269 285.591 295.316 287.05C295.35 287.396 295.35 287.818 295.35 288.232Z" fill="white"/>
<path d="M293.862 288.259C293.8 285.29 292.652 282.447 290.634 280.268L288.29 277.761H292.319L292.808 278.202C294.021 279.324 294.998 280.675 295.684 282.178C296.37 283.68 296.751 285.304 296.804 286.955C296.804 287.322 296.838 287.777 296.838 288.232L293.862 288.259Z" fill="#2CACC8"/>
<path d="M315.98 266.283C315.98 265.869 315.926 265.447 315.892 265.067C315.92 265.121 315.932 265.183 315.926 265.244C315.98 265.57 315.98 265.923 315.98 266.283Z" fill="white"/>
<path d="M314.506 266.372L313.826 257.626L317.36 264.7V265.23C317.399 265.576 317.419 265.923 317.421 266.27L314.506 266.372Z" fill="#2CACC8"/>
<path d="M295.173 293.077C295.173 293.199 295.139 293.315 295.139 293.437L295.173 293.077Z" fill="white"/>
<path d="M295.14 294.912C294.745 294.91 294.368 294.753 294.089 294.474C293.811 294.195 293.653 293.818 293.651 293.424C293.651 293.362 293.651 293.125 293.651 293.07C293.651 292.676 293.808 292.297 294.087 292.018C294.366 291.739 294.745 291.582 295.14 291.582C295.534 291.582 295.913 291.739 296.192 292.018C296.471 292.297 296.628 292.676 296.628 293.07C296.628 293.125 296.628 293.369 296.628 293.424C296.626 293.818 296.469 294.195 296.19 294.474C295.911 294.753 295.534 294.91 295.14 294.912Z" fill="#2CACC8"/>
<path d="M294.188 251.721C293.997 251.73 293.806 251.701 293.627 251.634C293.447 251.568 293.283 251.466 293.144 251.335C293.005 251.203 292.894 251.045 292.818 250.87C292.742 250.695 292.701 250.506 292.7 250.314V250.165C292.7 249.77 292.857 249.392 293.136 249.113C293.415 248.834 293.793 248.677 294.188 248.677C294.583 248.677 294.961 248.834 295.24 249.113C295.519 249.392 295.676 249.77 295.676 250.165C295.678 250.567 295.524 250.953 295.246 251.244C294.969 251.534 294.589 251.705 294.188 251.721Z" fill="#2CACC8"/>
<path d="M513.832 440.568C504.522 461.002 484.612 474.545 462.527 475.455C438.744 476.434 416.428 462.633 406.317 440.568H431.092V410.561C440.608 416.849 451.732 420.268 463.137 420.41C474.542 420.553 485.747 417.412 495.416 411.362C495.478 416.799 495.539 422.276 495.627 427.719C495.627 432 495.715 436.287 495.777 440.568H513.832Z" fill="white"/>
<path d="M460.088 477.025C436.474 477.025 415.021 463.183 404.964 441.221L403.993 439.114H429.604V407.856L431.908 409.378C441.018 415.398 451.644 418.724 462.561 418.973C473.878 419.166 485.012 416.1 494.635 410.139L496.877 408.739V411.383C496.938 416.941 497 422.357 497.088 427.739C497.115 431.54 497.158 435.334 497.217 439.121H516.115L515.157 441.221C505.643 462.035 485.026 476.074 462.554 476.977C461.752 476.971 460.917 477.025 460.088 477.025ZM408.681 442.091C418.99 462.476 439.811 475.007 462.466 474.028C483.056 473.199 502.048 460.757 511.467 442.091H494.309V440.623C494.247 436.321 494.193 432.047 494.159 427.766C494.084 423.186 494.03 418.579 493.982 413.985C484.371 419.346 473.518 422.083 462.514 421.922C451.968 421.676 441.667 418.7 432.614 413.285V442.091H408.681Z" fill="#2CACC8"/>
<path d="M600.023 520.127H340.797C343.714 493.599 346.618 467.079 349.508 440.568H406.317C416.428 462.633 438.73 476.434 462.527 475.455C484.626 474.558 504.522 461.002 513.832 440.568H532.981C545.395 440.393 557.592 443.833 568.085 450.469C571.92 452.839 575.395 455.745 578.407 459.099C582.212 463.346 584.625 467.75 586.765 472.744V472.805L600.023 520.127Z" fill="#2CACC8"/>
<path d="M602.007 521.616H339.132L340.07 513.074C342.733 488.851 345.386 464.628 348.027 440.405L348.17 439.046H407.288L407.689 439.916C417.597 461.539 439.124 474.959 462.486 473.933C483.844 473.07 503.475 459.717 512.493 439.916L512.894 439.046H533.001C545.712 438.866 558.201 442.391 568.941 449.191C572.884 451.635 576.46 454.625 579.562 458.073C583.041 461.967 585.617 466.166 588.172 472.126L602.007 521.616ZM342.428 518.639H598.086L585.379 473.206C583.001 467.688 580.575 463.693 577.32 460.084C574.389 456.838 571.015 454.022 567.297 451.719C557.046 445.241 545.133 441.884 533.008 442.056H514.776C505.12 462.388 484.741 476.033 462.582 476.937C450.675 477.374 438.903 474.301 428.729 468.099C418.556 461.897 410.431 452.841 405.365 442.056H350.84C348.253 465.844 345.651 489.628 343.032 513.407L342.428 518.639Z" fill="#2CACC8"/>
<path d="M538.899 371.984C537.715 375.002 535.473 377.487 532.593 378.976C528.815 380.104 525.927 381.205 520.755 379.153C520.521 379.061 520.271 379.017 520.02 379.023C519.769 379.029 519.521 379.084 519.292 379.187C519.062 379.289 518.855 379.436 518.683 379.62C518.511 379.803 518.377 380.018 518.289 380.254C513.864 392.633 505.913 403.447 495.416 411.362C485.745 417.412 474.539 420.553 463.133 420.411C451.727 420.269 440.602 416.85 431.085 410.561C426.386 406.857 422.264 402.476 418.854 397.561C415.674 392.953 413.157 387.921 411.379 382.612C411.166 381.993 410.752 381.463 410.202 381.107C409.653 380.751 409 380.589 408.348 380.648C405.13 380.895 401.91 380.186 399.093 378.609C397.938 377.93 391.87 374.444 391.618 367.696C391.542 365.572 392.021 363.464 393.008 361.582C393.995 359.699 395.455 358.106 397.245 356.959C398.924 355.96 400.824 355.389 402.776 355.295C403.286 355.274 403.776 355.092 404.176 354.776C404.576 354.46 404.866 354.025 405.005 353.535C412.14 328.229 427.817 312.464 441.917 313.327C445.333 313.571 448.629 314.687 451.491 316.568C452.699 317.34 454.132 317.684 455.558 317.544C456.985 317.405 458.324 316.791 459.36 315.8C460.177 314.967 460.942 314.084 461.65 313.157C462.779 311.673 463.756 310.08 464.565 308.4C464.958 307.585 465.597 306.914 466.392 306.481C467.187 306.048 468.098 305.876 468.996 305.988C475.037 306.763 510.012 311.424 517.922 338.884C519.333 343.838 519.794 349.014 519.281 354.139C519.257 354.355 519.293 354.574 519.385 354.771C519.477 354.968 519.622 355.135 519.803 355.255C519.984 355.376 520.195 355.443 520.412 355.451C520.629 355.46 520.844 355.408 521.034 355.301C523.172 354.21 525.567 353.722 527.961 353.89C530.356 354.058 532.66 354.874 534.625 356.253C540 360.146 540.74 367.193 538.899 371.984Z" fill="white"/>
<path d="M463.791 421.902H462.486C450.772 421.751 439.4 417.927 429.976 410.967C420.551 404.008 413.55 394.266 409.959 383.114C409.845 382.816 409.639 382.562 409.369 382.39C409.1 382.219 408.782 382.139 408.464 382.163C404.943 382.438 401.42 381.657 398.346 379.92C395.961 378.561 390.375 374.702 390.103 367.77C390.018 365.383 390.556 363.015 391.666 360.9C392.775 358.785 394.417 356.996 396.429 355.709C398.32 354.583 400.457 353.937 402.654 353.827C402.854 353.822 403.048 353.753 403.206 353.631C403.365 353.509 403.481 353.339 403.537 353.147C410.665 327.869 426.417 310.874 441.971 311.839C445.635 312.095 449.173 313.286 452.246 315.297C453.169 315.906 454.273 316.183 455.374 316.082C456.476 315.981 457.51 315.507 458.307 314.74C459.075 313.95 459.799 313.117 460.475 312.246C461.542 310.844 462.469 309.339 463.241 307.755C463.767 306.659 464.625 305.756 465.694 305.177C466.763 304.597 467.988 304.37 469.193 304.527C481.798 306.137 511.922 312.681 519.356 338.503C520.775 343.518 521.258 348.752 520.783 353.942C523.105 352.755 525.71 352.234 528.31 352.436C530.91 352.637 533.403 353.554 535.515 355.084C541.407 359.371 542.371 367.098 540.272 372.52C538.935 375.968 536.345 378.783 533.021 380.403L532.342 380.607C528.842 381.66 525.546 382.645 520.185 380.539C520.136 380.517 520.082 380.506 520.029 380.506C519.975 380.506 519.922 380.517 519.872 380.539C517.389 387.186 513.973 393.445 509.727 399.131C505.879 404.189 501.359 408.7 496.293 412.538C486.533 418.603 475.282 421.844 463.791 421.902ZM408.62 379.173C409.534 379.177 410.425 379.465 411.168 379.997C411.912 380.529 412.472 381.279 412.772 382.142C414.508 387.324 416.97 392.234 420.084 396.725C423.406 401.517 427.423 405.788 432.003 409.398C441.101 415.376 451.698 418.673 462.581 418.912C473.899 419.106 485.033 416.039 494.655 410.078C504.868 402.339 512.604 391.79 516.916 379.723C517.069 379.301 517.305 378.915 517.611 378.586C517.917 378.258 518.286 377.995 518.697 377.814C519.109 377.628 519.553 377.527 520.005 377.515C520.456 377.503 520.906 377.582 521.327 377.746C525.716 379.492 528.156 378.745 531.519 377.746L532.199 377.542C534.629 376.177 536.515 374.018 537.54 371.426C539.225 367.064 538.478 360.866 533.803 357.462C532.052 356.246 530.006 355.527 527.879 355.381C525.753 355.235 523.627 355.668 521.727 356.633C521.289 356.859 520.798 356.961 520.306 356.928C519.814 356.896 519.34 356.731 518.935 356.45C518.539 356.177 518.226 355.801 518.031 355.362C517.835 354.923 517.765 354.439 517.827 353.962C518.315 349.037 517.877 344.063 516.536 339.298C509.584 315.189 480.874 309.005 468.847 307.469C468.257 307.388 467.657 307.498 467.135 307.783C466.613 308.068 466.195 308.513 465.945 309.053C465.089 310.813 464.06 312.484 462.874 314.04C462.129 315.011 461.328 315.937 460.475 316.813C459.204 318.063 457.546 318.844 455.773 319.028C454 319.212 452.217 318.788 450.717 317.825C448.062 316.077 445.005 315.034 441.835 314.795C427.946 313.952 413.071 330.424 406.439 353.928C406.217 354.717 405.752 355.415 405.11 355.923C404.468 356.432 403.683 356.726 402.865 356.762C401.153 356.842 399.486 357.341 398.013 358.216C396.443 359.219 395.162 360.614 394.295 362.263C393.429 363.913 393.008 365.759 393.073 367.621C393.29 373.057 397.829 376.19 399.813 377.291C402.369 378.745 405.301 379.401 408.233 379.173H408.62Z" fill="#2CACC8"/>
<path d="M546.34 381.891C548.648 386.671 549.596 391.994 549.078 397.277C548.56 402.559 546.597 407.597 543.404 411.838C540.211 416.078 535.912 419.357 530.978 421.314C526.044 423.272 520.666 423.833 515.435 422.935C514.307 422.744 513.149 422.829 512.061 423.184C510.973 423.539 509.988 424.153 509.19 424.973C507.59 426.683 505.522 427.884 503.244 428.425C500.689 429.025 498.009 428.787 495.599 427.746C495.511 422.31 495.45 416.833 495.389 411.39C505.891 403.479 513.843 392.664 518.262 380.281C518.35 380.045 518.484 379.83 518.656 379.647C518.828 379.464 519.035 379.317 519.265 379.214C519.494 379.112 519.742 379.056 519.993 379.05C520.244 379.044 520.494 379.088 520.728 379.18C525.906 381.219 528.794 380.131 532.566 379.003C535.448 377.517 537.69 375.031 538.872 372.011C540.72 367.254 539.973 360.201 534.618 356.307C532.653 354.927 530.35 354.11 527.955 353.942C525.56 353.774 523.165 354.263 521.027 355.356C520.838 355.462 520.622 355.514 520.405 355.506C520.188 355.498 519.977 355.43 519.796 355.31C519.615 355.19 519.47 355.022 519.378 354.825C519.286 354.628 519.25 354.41 519.274 354.194C519.78 349.068 519.319 343.894 517.915 338.938C509.999 311.485 475.023 306.817 468.989 306.042C468.091 305.929 467.18 306.101 466.385 306.534C465.59 306.967 464.951 307.639 464.559 308.455C463.749 310.134 462.772 311.728 461.643 313.211C460.931 314.135 460.166 315.018 459.353 315.855C458.315 316.856 456.969 317.478 455.533 317.618C454.098 317.759 452.657 317.411 451.444 316.63C448.579 314.748 445.281 313.632 441.862 313.388C427.789 312.471 412.113 328.209 404.998 353.541C404.857 354.032 404.566 354.466 404.164 354.782C403.763 355.098 403.273 355.28 402.762 355.301C400.81 355.397 398.911 355.968 397.231 356.966C395.442 358.114 393.984 359.707 392.998 361.59C392.013 363.472 391.535 365.579 391.611 367.703C391.876 374.45 397.945 377.964 399.086 378.616C401.901 380.192 405.118 380.901 408.335 380.655C408.987 380.597 409.641 380.759 410.191 381.115C410.741 381.47 411.157 382 411.372 382.618C413.145 387.93 415.661 392.963 418.847 397.568C422.257 402.483 426.38 406.864 431.078 410.567V429.091C428.22 429.212 425.371 428.686 422.744 427.553C420.117 426.42 417.779 424.709 415.905 422.547C415.157 421.667 414.16 421.033 413.045 420.731C411.93 420.429 410.75 420.472 409.66 420.855C399.609 424.253 388.547 422.106 381.167 415.113C372.184 406.579 370.193 392.186 376.648 380.587C377.189 379.606 377.414 378.483 377.292 377.37C377.171 376.257 376.708 375.209 375.969 374.369C370.533 367.886 368.324 359.351 370.254 351.353C372.666 341.296 381.317 333.502 392.06 331.647C393.362 331.45 394.591 330.919 395.627 330.106C396.664 329.292 397.471 328.224 397.972 327.006C402.934 313.99 411.707 302.775 423.146 294.826C434.584 286.877 448.155 282.565 462.083 282.452C476.012 282.34 489.651 286.433 501.216 294.197C512.781 301.96 521.734 313.033 526.905 325.966C527.463 327.414 528.354 328.71 529.506 329.749C530.659 330.788 532.04 331.541 533.537 331.946C537.855 333.01 541.832 335.153 545.094 338.176C548.356 341.199 550.795 345.002 552.184 349.226V349.315C552.24 349.417 552.281 349.527 552.306 349.641C552.483 350.266 552.659 350.891 552.809 351.516V351.578C553.66 355.51 553.601 359.586 552.636 363.492C551.672 367.398 549.827 371.033 547.244 374.118C546.353 375.185 545.793 376.489 545.632 377.87C545.471 379.25 545.717 380.648 546.34 381.891Z" fill="#2CACC8"/>
<path d="M713.572 520.128H600.023L586.786 472.805V472.744L552.911 351.612V351.55C552.762 350.925 552.585 350.3 552.408 349.675C552.384 349.561 552.343 349.451 552.286 349.349V349.26L546.755 329.452C545.558 325.304 544.829 321.035 544.58 316.725V316.602C544.376 312.824 543.901 303.25 547.407 293.58C549.446 287.899 553.74 282.606 562.248 272.256C567.304 266.1 571.646 261.255 574.622 258.041C574.742 257.655 574.829 257.259 574.88 256.858C574.944 256.465 574.965 256.067 574.941 255.669L573.345 233.075C572.966 227.892 570.774 223.009 567.154 219.28L560.556 212.485C559.229 211.177 558.205 209.594 557.556 207.846C556.908 206.099 556.652 204.231 556.805 202.374V202.258C556.986 200.778 557.387 199.333 557.994 197.97C558.114 197.721 558.288 197.503 558.505 197.331C558.721 197.159 558.974 197.039 559.243 196.98C559.513 196.92 559.793 196.923 560.061 196.987C560.33 197.052 560.58 197.177 560.794 197.352L566.325 201.81C564.962 200.372 564.007 198.596 563.559 196.666C563.328 195.59 563.266 194.485 563.376 193.39C563.546 191.699 564.106 190.071 565.014 188.634C565.167 188.39 565.37 188.182 565.609 188.023C565.848 187.863 566.119 187.756 566.403 187.709C566.686 187.661 566.977 187.674 567.255 187.747C567.533 187.82 567.793 187.951 568.017 188.131C573.671 192.661 579.334 197.212 585.005 201.783C583.312 200.459 582.201 198.529 581.907 196.401C581.697 194.548 581.747 192.675 582.056 190.835C582.38 188.793 583.056 186.823 584.054 185.012C584.195 184.748 584.395 184.52 584.639 184.345C584.882 184.171 585.162 184.054 585.458 184.005C585.753 183.956 586.056 183.975 586.342 184.061C586.629 184.147 586.892 184.298 587.112 184.502C592.765 189.617 598.428 194.752 604.1 199.907C606.746 202.324 608.863 205.262 610.318 208.537C611.357 210.827 612.356 213.171 613.348 215.611C614.66 218.852 615.876 222.067 616.977 225.192C618.828 222.442 619.803 219.197 619.777 215.883C619.654 209.876 616.06 205.69 613.858 203.719C612.204 202.279 611.048 200.352 610.555 198.215C610.074 196.113 610.24 193.915 611.031 191.909C611.759 190.162 612.93 188.634 614.429 187.479C614.685 187.294 614.998 187.205 615.313 187.226C615.628 187.247 615.925 187.377 616.155 187.594C621.482 192.745 626.925 198.276 632.423 204.195C635.141 207.14 637.789 210.084 640.366 213.029C641.301 214.103 641.904 215.424 642.104 216.834C642.304 218.243 642.093 219.681 641.494 220.972C629.956 246.129 618.436 271.271 606.934 296.4C606.261 297.859 605.925 299.451 605.951 301.058C605.977 302.665 606.364 304.245 607.083 305.682L713.572 520.128Z" fill="white"/>
<path d="M715.97 521.616H598.922L551.355 351.734L551.403 351.632C551.273 351.122 551.124 350.606 550.975 350.09L550.852 349.736L545.294 329.86C544.064 325.604 543.319 321.223 543.072 316.799C542.868 312.994 542.324 303.168 545.98 293.077C548.086 287.26 552.13 282.205 561.072 271.332C565.149 266.385 569.227 261.656 573.304 257.273C573.373 257.064 573.43 256.85 573.474 256.634C573.497 256.374 573.497 256.113 573.474 255.853L571.863 233.245C571.513 228.413 569.473 223.859 566.101 220.381L559.489 213.586C558.009 212.125 556.869 210.355 556.15 208.403C555.431 206.451 555.151 204.365 555.33 202.292C555.513 200.615 555.956 198.976 556.642 197.434C556.853 196.976 557.166 196.573 557.557 196.255C557.948 195.937 558.407 195.713 558.898 195.599C559.391 195.492 559.902 195.498 560.392 195.615C560.883 195.733 561.341 195.96 561.731 196.279L561.996 196.496C561.53 193.531 562.158 190.497 563.763 187.961C564.024 187.546 564.37 187.189 564.777 186.916C565.184 186.642 565.645 186.456 566.128 186.371C566.618 186.282 567.122 186.296 567.606 186.413C568.091 186.53 568.546 186.747 568.941 187.051C572.765 190.136 576.593 193.212 580.425 196.279C580.249 194.414 580.315 192.534 580.622 190.686C580.973 188.477 581.704 186.346 582.783 184.387C583.027 183.933 583.371 183.54 583.789 183.239C584.207 182.938 584.688 182.735 585.195 182.647C585.719 182.551 586.258 182.578 586.77 182.725C587.282 182.873 587.752 183.137 588.145 183.497C593.798 188.611 599.461 193.746 605.133 198.902C607.909 201.431 610.135 204.505 611.67 207.932C612.71 210.222 613.708 212.587 614.714 215.047C615.62 217.249 616.458 219.407 617.228 221.523C617.952 219.741 618.31 217.833 618.282 215.91C618.173 210.474 614.83 206.614 612.845 204.82C610.955 203.17 609.637 200.962 609.081 198.514C608.546 196.125 608.74 193.63 609.638 191.352C610.473 189.36 611.812 187.619 613.525 186.303C614.062 185.904 614.723 185.706 615.391 185.745C616.059 185.783 616.693 186.055 617.181 186.514C622.705 191.848 628.196 197.454 633.489 203.183C636.242 206.132 638.926 209.088 641.46 212.016C642.581 213.302 643.306 214.884 643.547 216.572C643.788 218.26 643.535 219.982 642.819 221.53C631.281 246.695 619.761 271.837 608.259 296.957C607.675 298.214 607.383 299.586 607.406 300.971C607.428 302.356 607.764 303.718 608.388 304.955L715.97 521.616ZM601.178 518.639H711.173L605.765 306.321C604.94 304.687 604.496 302.887 604.468 301.057C604.44 299.226 604.828 297.413 605.602 295.755C617.104 270.63 628.622 245.488 640.156 220.327C640.636 219.297 640.807 218.149 640.648 217.024C640.488 215.899 640.006 214.844 639.259 213.987C636.71 211.079 634.074 208.143 631.349 205.214C626.062 199.52 620.606 193.961 615.135 188.675C613.979 189.745 613.054 191.039 612.417 192.48C611.738 194.21 611.601 196.106 612.023 197.916C612.445 199.751 613.443 201.404 614.87 202.632C617.201 204.745 621.142 209.278 621.278 215.863C621.319 219.479 620.257 223.023 618.234 226.021L616.583 228.522L615.591 225.695C614.517 222.651 613.301 219.444 611.982 216.182C610.984 213.776 610.012 211.425 608.979 209.162C607.612 206.066 605.615 203.289 603.115 201.008C597.429 195.88 591.771 190.754 586.14 185.63C586.084 185.575 586.015 185.534 585.939 185.511C585.863 185.489 585.783 185.485 585.705 185.501C585.639 185.511 585.576 185.536 585.521 185.575C585.467 185.614 585.423 185.666 585.393 185.725C584.473 187.395 583.85 189.211 583.551 191.094C583.261 192.8 583.215 194.539 583.415 196.258C583.666 197.992 584.576 199.562 585.957 200.641L584.095 202.965L581.886 201.198C576.939 197.239 572.004 193.277 567.079 189.313C567.016 189.265 566.944 189.23 566.867 189.212C566.789 189.193 566.709 189.191 566.631 189.205C566.556 189.217 566.484 189.245 566.421 189.288C566.358 189.33 566.304 189.385 566.264 189.449C565.482 190.68 564.998 192.076 564.85 193.526C564.756 194.462 564.806 195.406 565 196.326C565.393 198.003 566.223 199.546 567.405 200.797L565.367 202.965L559.836 198.501C559.794 198.468 559.746 198.444 559.694 198.431C559.643 198.418 559.589 198.416 559.537 198.426C558.855 199.664 558.421 201.024 558.259 202.428C558.118 204.083 558.345 205.749 558.921 207.306C559.498 208.863 560.411 210.275 561.596 211.439L568.2 218.234C572.06 222.216 574.398 227.428 574.806 232.959L576.409 255.567C576.442 256.071 576.419 256.577 576.341 257.076C576.25 257.578 576.108 258.069 575.92 258.544L575.628 259.006C571.632 263.361 567.405 268.254 563.328 273.167C554.61 283.774 550.676 288.694 548.739 294.056C545.287 303.569 545.803 312.953 546.021 316.48C546.249 320.724 546.961 324.928 548.141 329.011L553.672 348.819C553.748 348.964 553.801 349.12 553.829 349.281C553.998 349.858 554.182 350.49 554.331 351.122V351.197L601.178 518.639Z" fill="#2CACC8"/>
<path d="M585.032 201.816C587.322 203.658 589.612 205.472 591.875 207.321L598.12 212.315C599.915 213.759 601.181 215.757 601.721 217.996L609.366 250.328" fill="white"/>
<path d="M609.36 251.803C609.025 251.801 608.7 251.687 608.437 251.479C608.175 251.271 607.99 250.98 607.912 250.654L600.274 218.329C599.811 216.413 598.729 214.703 597.196 213.464L590.944 208.469C589.477 207.266 588.002 206.084 586.521 204.902L584.102 202.965C583.793 202.717 583.596 202.357 583.554 201.964C583.511 201.571 583.626 201.177 583.874 200.869C584.122 200.561 584.482 200.363 584.875 200.321C585.268 200.278 585.662 200.393 585.97 200.641L588.383 202.585C589.864 203.774 591.345 204.956 592.813 206.152L599.051 211.14C601.103 212.791 602.551 215.075 603.169 217.636L610.814 249.968C610.865 250.187 610.866 250.415 610.817 250.635C610.768 250.854 610.669 251.06 610.53 251.236C610.39 251.413 610.212 251.555 610.009 251.653C609.807 251.751 609.585 251.802 609.36 251.803Z" fill="#2CACC8"/>
<path d="M622.209 242.133C620.782 236.751 619.056 231.098 616.977 225.213L622.209 242.133Z" fill="white"/>
<path d="M622.209 243.621C621.882 243.62 621.564 243.511 621.305 243.311C621.045 243.11 620.859 242.83 620.776 242.513C619.294 236.941 617.548 231.281 615.577 225.709C615.49 225.521 615.444 225.317 615.44 225.11C615.437 224.903 615.476 224.698 615.556 224.507C615.637 224.317 615.756 224.145 615.906 224.003C616.057 223.86 616.235 223.751 616.43 223.682C616.625 223.613 616.832 223.585 617.039 223.6C617.245 223.616 617.446 223.674 617.628 223.771C617.811 223.869 617.971 224.003 618.099 224.166C618.227 224.329 618.319 224.516 618.37 224.717C620.368 230.37 622.142 236.099 623.643 241.752C623.693 241.942 623.706 242.139 623.68 242.333C623.654 242.527 623.59 242.714 623.491 242.883C623.393 243.052 623.262 243.2 623.106 243.319C622.95 243.437 622.773 243.524 622.583 243.574C622.461 243.606 622.336 243.622 622.209 243.621Z" fill="#2CACC8"/>
<path d="M552.592 351.605L551.967 349.403L552.517 349.186C552.584 349.309 552.632 349.442 552.66 349.58C552.837 350.191 553.02 350.823 553.17 351.448L552.592 351.605Z" fill="#2CACC8"/>
<path d="M566.325 201.816L585.155 216.983C587.758 219.098 589.631 221.976 590.51 225.213C593.54 236.336 597.169 245.021 597.196 251.204" fill="white"/>
<path d="M597.196 252.693C596.803 252.691 596.428 252.534 596.15 252.257C595.873 251.98 595.716 251.604 595.714 251.211C595.714 247.257 594.022 241.916 592.093 235.725C591.114 232.613 590.054 229.236 589.069 225.6C588.271 222.662 586.572 220.047 584.21 218.125L565.367 202.965C565.059 202.717 564.861 202.357 564.819 201.964C564.776 201.571 564.891 201.177 565.139 200.869C565.387 200.561 565.747 200.363 566.14 200.321C566.533 200.278 566.927 200.393 567.235 200.641L586.058 215.815C588.905 218.132 590.954 221.283 591.916 224.825C592.894 228.413 593.954 231.757 594.899 234.835C596.985 241.521 598.636 246.801 598.657 251.198C598.658 251.393 598.62 251.587 598.546 251.768C598.472 251.949 598.363 252.113 598.226 252.252C598.088 252.391 597.925 252.501 597.744 252.577C597.564 252.653 597.371 252.692 597.175 252.693H597.196Z" fill="#2CACC8"/>
<path d="M441.864 341.417C444.871 341.275 447.176 338.356 447.013 334.896C446.851 331.436 444.282 328.745 441.275 328.886C438.269 329.028 435.963 331.947 436.126 335.407C436.288 338.867 438.858 341.558 441.864 341.417Z" fill="#2CACC8"/>
<path d="M491.306 341.42C494.313 341.279 496.618 338.359 496.456 334.899C496.293 331.439 493.724 328.748 490.718 328.89C487.711 329.031 485.406 331.951 485.568 335.411C485.731 338.871 488.3 341.561 491.306 341.42Z" fill="#2CACC8"/>
<path d="M440.157 360.615C435.735 360.615 431.413 359.304 427.736 356.847C424.06 354.391 421.194 350.899 419.502 346.814C417.81 342.729 417.367 338.234 418.23 333.897C419.093 329.561 421.222 325.577 424.348 322.45C427.475 319.324 431.458 317.195 435.795 316.332C440.132 315.469 444.627 315.912 448.712 317.604C452.797 319.296 456.289 322.162 458.745 325.838C461.202 329.515 462.513 333.837 462.513 338.259C462.506 344.186 460.148 349.868 455.957 354.059C451.766 358.25 446.084 360.608 440.157 360.615ZM440.157 319.769C436.501 319.776 432.93 320.866 429.894 322.901C426.857 324.937 424.493 327.827 423.099 331.207C421.704 334.586 421.343 338.302 422.06 341.887C422.777 345.471 424.541 348.763 427.128 351.345C429.716 353.928 433.01 355.685 436.596 356.396C440.182 357.107 443.898 356.738 447.274 355.338C450.651 353.938 453.537 351.568 455.567 348.528C457.597 345.488 458.681 341.914 458.681 338.259C458.673 333.351 456.718 328.647 453.245 325.18C449.772 321.713 445.064 319.767 440.157 319.769Z" fill="#238297"/>
<path d="M495.171 360.615C490.75 360.615 486.427 359.304 482.751 356.847C479.074 354.391 476.209 350.899 474.517 346.814C472.825 342.729 472.382 338.234 473.245 333.897C474.107 329.561 476.236 325.577 479.363 322.45C482.49 319.324 486.473 317.195 490.81 316.332C495.147 315.469 499.642 315.912 503.727 317.604C507.812 319.296 511.304 322.162 513.76 325.838C516.217 329.515 517.528 333.837 517.528 338.259C517.521 344.186 515.163 349.868 510.972 354.059C506.781 358.25 501.098 360.608 495.171 360.615ZM495.171 319.769C491.514 319.769 487.94 320.853 484.899 322.885C481.858 324.917 479.488 327.804 478.089 331.183C476.689 334.562 476.323 338.279 477.037 341.866C477.75 345.453 479.511 348.747 482.097 351.333C484.683 353.919 487.977 355.68 491.564 356.393C495.151 357.107 498.869 356.741 502.247 355.341C505.626 353.942 508.513 351.572 510.545 348.531C512.577 345.491 513.661 341.916 513.661 338.259C513.654 333.357 511.704 328.658 508.238 325.192C504.772 321.726 500.073 319.776 495.171 319.769Z" fill="#238297"/>
<path d="M474.752 335.874H459.748V340.651H474.752V335.874Z" fill="#238297"/>
<path d="M404.55 353.963L419.737 335.874L420.247 342.764L404.55 356.918V353.963Z" fill="#238297"/>
<path d="M447.741 361.234C455.203 364.698 463.386 366.329 471.606 365.991C471.545 366.956 471.477 367.92 471.409 368.885C463.122 369.285 454.85 367.83 447.197 364.625C447.381 363.544 447.557 362.375 447.741 361.234Z" fill="#2CACC8"/>
<path d="M848.444 413.272H836.892C836.043 410.797 835.01 408.389 833.8 406.069L841.934 397.955C842.527 397.396 842.999 396.721 843.321 395.972C843.644 395.224 843.81 394.418 843.81 393.603C843.81 392.788 843.644 391.981 843.321 391.233C842.999 390.485 842.527 389.81 841.934 389.25L823.811 371.121C823.25 370.53 822.575 370.059 821.827 369.738C821.079 369.416 820.273 369.251 819.459 369.251C818.644 369.251 817.838 369.416 817.09 369.738C816.342 370.059 815.667 370.53 815.106 371.121L806.68 379.547C804.499 378.609 801.998 377.678 799.817 376.74V364.903C799.819 363.245 799.163 361.655 797.994 360.48C796.824 359.306 795.236 358.643 793.579 358.638H767.961C766.303 358.643 764.716 359.306 763.546 360.48C762.377 361.655 761.721 363.245 761.723 364.903V376.108C759.256 377.046 757.041 377.977 754.887 378.915L746.467 370.489C745.907 369.892 745.23 369.416 744.478 369.091C743.727 368.765 742.917 368.598 742.098 368.598C741.279 368.598 740.469 368.765 739.717 369.091C738.966 369.416 738.289 369.892 737.729 370.489L719.619 388.564C719.027 389.127 718.555 389.805 718.232 390.556C717.91 391.307 717.744 392.116 717.744 392.933C717.744 393.751 717.91 394.56 718.232 395.311C718.555 396.062 719.027 396.74 719.619 397.303L727.774 405.416C726.6 407.748 725.559 410.144 724.655 412.592H713.096C711.433 412.592 709.839 413.252 708.663 414.427C707.487 415.602 706.826 417.195 706.824 418.857V444.442C706.831 446.1 707.495 447.689 708.67 448.859C709.846 450.029 711.437 450.686 713.096 450.686H723.696C724.597 453.234 725.639 455.729 726.815 458.161L719.014 465.962C717.798 467.213 715.528 470.875 719.014 474.674L737.137 492.797C737.699 493.388 738.374 493.858 739.123 494.18C739.872 494.501 740.678 494.667 741.493 494.667C742.308 494.667 743.115 494.501 743.863 494.18C744.612 493.858 745.288 493.388 745.849 492.797L753.324 485.322C755.775 486.771 758.395 487.912 761.125 488.72V499.042C761.123 500.7 761.778 502.291 762.948 503.467C764.117 504.642 765.705 505.306 767.363 505.314H792.974C796.372 505.314 799.212 502.507 798.9 499.728V489.426C801.4 488.495 804.207 487.218 806.701 486.029L814.175 493.503C814.732 494.101 815.407 494.578 816.156 494.904C816.905 495.231 817.714 495.399 818.531 495.399C819.348 495.399 820.157 495.231 820.906 494.904C821.656 494.578 822.33 494.101 822.887 493.503L841.01 475.408C841.601 474.844 842.071 474.166 842.392 473.414C842.714 472.663 842.879 471.855 842.879 471.038C842.879 470.221 842.714 469.413 842.392 468.662C842.071 467.911 841.601 467.233 841.01 466.669L833.209 458.902C834.375 456.465 835.416 453.97 836.328 451.427H848.437C850.096 451.422 851.686 450.758 852.857 449.582C854.027 448.407 854.684 446.814 854.682 445.155V419.51C854.677 417.857 854.018 416.273 852.849 415.105C851.68 413.936 850.097 413.277 848.444 413.272ZM780.777 468.266C773.595 468.266 766.576 466.136 760.605 462.146C754.634 458.157 749.98 452.486 747.233 445.851C744.485 439.217 743.766 431.916 745.168 424.873C746.569 417.83 750.028 411.361 755.106 406.283C760.184 401.206 766.654 397.748 773.698 396.348C780.741 394.948 788.041 395.668 794.676 398.417C801.31 401.166 806.98 405.821 810.968 411.792C814.957 417.764 817.085 424.784 817.084 431.965C817.075 441.591 813.246 450.82 806.439 457.626C799.632 464.432 790.403 468.259 780.777 468.266Z" fill="#2CACC8"/>
<path d="M780.777 397.956C774.058 397.956 767.491 399.947 761.904 403.679C756.317 407.411 751.962 412.716 749.39 418.922C746.817 425.128 746.142 431.958 747.451 438.548C748.759 445.138 751.991 451.192 756.74 455.945C761.488 460.698 767.539 463.936 774.127 465.251C780.716 466.566 787.546 465.898 793.755 463.332C799.964 460.765 805.273 456.416 809.01 450.833C812.748 445.25 814.746 438.684 814.753 431.966C814.726 422.96 811.139 414.33 804.774 407.959C798.409 401.587 789.783 397.991 780.777 397.956ZM780.777 453.833C776.451 453.838 772.22 452.561 768.62 450.161C765.021 447.761 762.214 444.348 760.555 440.353C758.895 436.358 758.458 431.96 759.299 427.716C760.14 423.473 762.22 419.574 765.277 416.513C768.335 413.452 772.231 411.367 776.473 410.521C780.716 409.675 785.114 410.106 789.111 411.761C793.109 413.415 796.525 416.218 798.929 419.814C801.333 423.411 802.617 427.64 802.617 431.966C802.61 443.817 792.628 453.833 780.777 453.833Z" fill="#2CACC8"/>
<path d="M641.834 34.374H619.682V38.7434H641.834V34.374Z" fill="#2CACC8"/>
<path d="M698.703 34.374H676.551V38.7434H698.703V34.374Z" fill="#2CACC8"/>
<path d="M651.416 20.8889L639.167 2.43115L635.526 4.84721L647.775 23.305L651.416 20.8889Z" fill="#2CACC8"/>
<path d="M682.861 68.2654L670.612 49.8076L666.971 52.2237L679.221 70.6815L682.861 68.2654Z" fill="#2CACC8"/>
<path d="M668.692 21.86L678.285 1.89209L674.347 2.64525e-05L664.754 19.9679L668.692 21.86Z" fill="#2CACC8"/>
<path d="M644.061 73.1236L653.653 53.1558L649.715 51.2637L640.122 71.2316L644.061 73.1236Z" fill="#2CACC8"/>
<path d="M137.462 356.008H111.021V361.227H137.462V356.008Z" fill="#2CACC8"/>
<path d="M205.34 356.008H178.899V361.227H205.34V356.008Z" fill="#2CACC8"/>
<path d="M148.896 339.914L134.276 317.884L129.928 320.77L144.548 342.8L148.896 339.914Z" fill="#2CACC8"/>
<path d="M186.434 396.468L171.813 374.438L167.465 377.324L182.086 399.354L186.434 396.468Z" fill="#2CACC8"/>
<path d="M169.501 341.077L180.95 317.245L176.246 314.985L164.797 338.818L169.501 341.077Z" fill="#2CACC8"/>
<path d="M140.103 402.259L151.553 378.426L146.849 376.166L135.399 399.999L140.103 402.259Z" fill="#2CACC8"/>
<path d="M754.35 281.267V270.15H742.322C741.736 267.56 740.721 265.087 739.319 262.832L747.826 254.324L739.889 246.38L731.375 254.861C729.106 253.448 726.612 252.433 724.002 251.857V239.83H712.967V251.823C710.372 252.418 707.891 253.43 705.621 254.82L697.113 246.339L689.115 254.337L697.623 262.845C696.249 265.105 695.236 267.565 694.619 270.137H682.592V281.254H694.619C695.228 283.849 696.252 286.329 697.65 288.599L689.142 297.107L697.086 305.023L705.594 296.543C707.864 297.96 710.356 298.985 712.967 299.574V311.574H724.002V299.587C726.619 298.978 729.119 297.945 731.402 296.529L739.917 305.037L747.799 297.121L739.326 288.64C740.739 286.368 741.764 283.876 742.356 281.267H754.35ZM718.471 289.421C715.76 289.419 713.11 288.613 710.857 287.105C708.604 285.597 706.849 283.455 705.813 280.95C704.777 278.445 704.506 275.689 705.036 273.03C705.565 270.371 706.871 267.929 708.788 266.012C710.705 264.095 713.147 262.789 715.806 262.26C718.465 261.73 721.221 262.001 723.726 263.037C726.231 264.073 728.373 265.829 729.881 268.082C731.388 270.335 732.195 272.984 732.197 275.695C732.2 277.499 731.847 279.286 731.158 280.953C730.469 282.62 729.459 284.136 728.184 285.412C726.909 286.688 725.395 287.7 723.728 288.391C722.061 289.081 720.275 289.436 718.471 289.435V289.421Z" fill="#2CACC8"/>
<path d="M385.849 214.863V203.746H373.822C373.23 201.157 372.213 198.684 370.811 196.428L379.326 187.92L371.382 179.976L362.868 188.457C360.595 187.047 358.1 186.032 355.488 185.453V173.426H344.466V185.419C341.871 186.02 339.391 187.037 337.12 188.43L328.606 179.949L320.608 187.947L329.122 196.455C327.744 198.713 326.728 201.173 326.112 203.746H314.084V214.863H326.112C326.721 217.458 327.747 219.936 329.15 222.202L320.642 230.71L328.579 238.626L337.093 230.146C339.363 231.565 341.856 232.592 344.466 233.183V245.177H355.495V233.19C358.113 232.576 360.615 231.541 362.902 230.126L371.409 238.633L379.299 230.717L370.784 222.236C372.2 219.965 373.227 217.473 373.822 214.863H385.849ZM349.97 223.018C347.259 223.015 344.61 222.209 342.357 220.701C340.104 219.193 338.348 217.051 337.312 214.546C336.276 212.041 336.006 209.285 336.535 206.626C337.065 203.967 338.37 201.525 340.287 199.608C342.204 197.691 344.647 196.386 347.305 195.856C349.964 195.327 352.72 195.597 355.225 196.633C357.73 197.669 359.872 199.425 361.38 201.678C362.888 203.931 363.694 206.58 363.697 209.291C363.7 211.097 363.347 212.885 362.658 214.554C361.969 216.222 360.957 217.738 359.68 219.015C358.404 220.291 356.888 221.303 355.219 221.993C353.55 222.682 351.762 223.035 349.957 223.031L349.97 223.018Z" fill="#2CACC8"/>
<path d="M71.7581 260.936V249.839H59.7372C59.1465 247.249 58.1292 244.776 56.7269 242.52L65.2346 234.006L57.2977 226.069L48.7833 234.55C46.5129 233.138 44.0202 232.12 41.4104 231.539V219.484H30.3749V231.512C27.7794 232.111 25.2985 233.128 23.0292 234.522L14.5215 226.042L6.52346 234.04L15.0311 242.548C13.6577 244.807 12.6444 247.267 12.0276 249.839H0V260.936H12.0276C12.6366 263.531 13.66 266.011 15.0583 268.281L6.55064 276.809L14.4943 284.719L23.002 276.238C25.271 277.66 27.7636 278.69 30.3749 279.283V291.283H41.4104V279.283C44.0294 278.67 46.5311 277.635 48.8172 276.218L57.3249 284.719L65.2346 276.809L56.6997 268.329C58.1137 266.049 59.1401 263.551 59.7372 260.936H71.7581ZM35.879 269.09C33.1666 269.087 30.5159 268.28 28.2622 266.771C26.0085 265.261 24.253 263.118 23.2178 260.611C22.1826 258.103 21.9141 255.346 22.4464 252.686C22.9787 250.026 24.2878 247.584 26.2082 245.669C28.1286 243.753 30.5739 242.45 33.2349 241.924C35.8959 241.398 38.653 241.674 41.1576 242.715C43.6621 243.757 45.8016 245.517 47.3053 247.775C48.809 250.032 49.6095 252.685 49.6055 255.397C49.6064 257.2 49.2519 258.986 48.5624 260.651C47.8729 262.317 46.8619 263.831 45.5871 265.105C44.3123 266.38 42.7987 267.391 41.133 268.081C39.4672 268.77 37.6819 269.125 35.879 269.124V269.09Z" fill="#2CACC8"/>
<path d="M179.001 140.428L175.937 139.103L193.482 98.5286L178.777 93.6088L168.19 136.555L164.942 135.753L175.597 92.542L170.718 90.9111C168.993 90.3573 167.51 89.2273 166.518 87.7106C165.795 86.6098 165.359 85.3459 165.248 84.0337C165.137 82.7214 165.356 81.4022 165.884 80.1959C166.413 78.9896 167.234 77.9342 168.273 77.1256C169.313 76.317 170.538 75.7807 171.837 75.5654C173.136 75.3501 174.468 75.4626 175.713 75.8927C176.958 76.3228 178.075 77.0569 178.965 78.0283C179.854 78.9998 180.486 80.1779 180.805 81.4557C181.123 82.7335 181.118 84.0707 180.788 85.3458L179.559 90.3471L194.794 95.4504L196.832 90.6937C197.65 88.8273 199.158 87.3493 201.04 86.5681C202.923 85.7869 205.034 85.763 206.933 86.5014C208.833 87.2397 210.373 88.6833 211.234 90.5306C212.094 92.3779 212.208 94.4862 211.551 96.4153C210.857 98.3766 209.413 99.9828 207.537 100.882C205.661 101.781 203.505 101.9 201.541 101.213L196.635 99.5683L179.001 140.428ZM197.994 96.49L202.669 98.053C203.793 98.4508 205.029 98.3883 206.107 97.8792C207.185 97.3701 208.018 96.4556 208.425 95.3349C208.778 94.3508 208.778 93.2746 208.425 92.2906C208.13 91.4186 207.576 90.6576 206.837 90.1096C206.097 89.5616 205.208 89.2528 204.288 89.2247C203.368 89.1966 202.461 89.4505 201.69 89.9524C200.918 90.4542 200.319 91.18 199.972 92.0324L197.994 96.49ZM174.639 79.0398L174.36 78.9515C173.734 78.7865 173.08 78.7582 172.442 78.8684C171.804 78.9787 171.198 79.2248 170.664 79.5902C169.662 80.2445 168.96 81.2694 168.713 82.4401C168.466 83.6108 168.693 84.8317 169.345 85.8351C169.919 86.7084 170.776 87.3584 171.771 87.6766L176.406 89.2259L177.581 84.4692C177.873 83.3597 177.731 82.1809 177.184 81.1723C176.638 80.1637 175.727 79.4012 174.639 79.0398Z" fill="#2CACC8"/>
<path d="M190.751 144.213L187.584 143.153C192.456 128.577 206.135 118.724 217.123 110.801C219.447 109.129 221.642 107.546 223.545 106.044C231.497 99.8592 237.227 91.2604 239.874 81.5401C245.65 60.5495 238.562 35.0673 209.696 25.4044C182.909 16.4482 159.825 27.9254 150.883 54.6241C147.903 63.4428 147.666 72.9578 150.203 81.9139C150.808 84.068 151.562 86.3987 152.323 88.8722C156.401 101.783 161.456 117.874 156.496 132.702L153.322 131.642C157.943 117.84 153.057 102.334 149.136 89.8779C148.348 87.3773 147.601 85.0193 146.982 82.8244C144.27 73.2171 144.53 63.0135 147.73 53.5572C152.269 39.9667 160.532 29.7737 171.608 24.0182C183.038 18.0859 196.581 17.4607 210.77 22.2106C224.584 26.8314 234.852 35.4138 240.465 47.0337C245.555 57.5596 246.492 70.1377 243.115 82.3691C240.292 92.8206 234.146 102.07 225.604 108.721C223.653 110.243 221.431 111.84 219.087 113.532C208.48 121.157 195.283 130.663 190.751 144.213Z" fill="#2CACC8"/>
<path d="M158.759 177.564C154.976 176.299 151.851 173.585 150.067 170.018C148.284 166.451 147.988 162.322 149.245 158.538L152.419 159.598C151.932 161.057 151.737 162.597 151.846 164.132C151.954 165.666 152.364 167.164 153.052 168.54C153.739 169.915 154.691 171.142 155.852 172.15C157.014 173.159 158.363 173.928 159.822 174.415C161.281 174.902 162.822 175.096 164.356 174.988C165.89 174.879 167.388 174.469 168.764 173.782C170.14 173.094 171.367 172.143 172.375 170.981C173.383 169.819 174.152 168.47 174.639 167.011L177.812 168.071C176.542 171.855 173.822 174.98 170.249 176.759C166.677 178.539 162.544 178.829 158.759 177.564Z" fill="#2CACC8"/>
<path d="M178.852 170.192L147.152 159.584C144.213 158.595 141.785 156.482 140.402 153.706C139.019 150.93 138.792 147.719 139.773 144.777L141.893 138.437C142.88 135.497 144.993 133.068 147.77 131.684C150.546 130.301 153.757 130.075 156.7 131.058L188.4 141.658C191.339 142.647 193.766 144.761 195.15 147.536C196.533 150.312 196.759 153.523 195.779 156.465L193.666 162.805C192.679 165.747 190.564 168.178 187.787 169.563C185.01 170.947 181.796 171.174 178.852 170.192ZM155.612 134.224C153.51 133.524 151.216 133.686 149.232 134.674C147.249 135.663 145.739 137.397 145.032 139.497L142.912 145.837C142.212 147.939 142.374 150.232 143.362 152.214C144.351 154.196 146.085 155.706 148.185 156.411L179.885 167.018C180.929 167.368 182.031 167.509 183.129 167.433C184.227 167.356 185.299 167.064 186.284 166.572C187.269 166.08 188.147 165.399 188.868 164.567C189.589 163.735 190.139 162.769 190.486 161.725L192.613 155.385C193.313 153.283 193.151 150.99 192.162 149.008C191.174 147.026 189.439 145.516 187.339 144.811L155.612 134.224Z" fill="#2CACC8"/>
</svg>
