<svg width="521" height="469" viewBox="0 0 521 469" fill="none" xmlns="http://www.w3.org/2000/svg">
<path d="M158.422 299.882C158.064 302.499 157.281 305.04 156.105 307.405C155.02 309.589 153.532 311.549 151.719 313.181L142.592 316.425H143.305L144.731 316.176C145.545 316.033 146.377 316.033 147.191 316.176C147.45 316.209 147.703 316.281 147.94 316.39L148.653 316.675L149.331 317.138C152.575 319.955 150.079 327.05 148.51 330.223C148.157 330.952 147.752 331.655 147.298 332.327C146.947 332.89 146.553 333.427 146.122 333.931L145.622 334.466C145.332 334.816 145.023 335.149 144.695 335.464C144.04 336.108 143.35 336.715 142.628 337.283L141.023 338.459L139.276 339.6L137.565 340.634L134.356 342.453C130.131 344.805 125.659 346.682 121.021 348.05C119.88 348.407 118.704 348.728 117.456 349.013V361.528C112.721 361.075 108.225 359.237 104.528 356.244C100.831 353.251 98.0979 349.236 96.6694 344.699C95.1645 338.903 95.9431 332.751 98.8443 327.514C97.0175 325.302 95.659 322.743 94.8511 319.991C93.6261 315.712 93.7255 311.162 95.1363 306.941L121.021 299.632L151.256 291.111C151.755 291.325 152.218 291.61 152.682 291.86C153.041 292.089 153.386 292.339 153.716 292.608C154.073 292.864 154.407 293.15 154.714 293.464L155.285 294.034C155.463 294.248 155.677 294.462 155.82 294.676C155.955 294.78 156.065 294.915 156.14 295.068C156.399 295.37 156.615 295.706 156.782 296.067C157.074 296.463 157.313 296.894 157.495 297.35C157.674 297.679 157.818 298.025 157.923 298.384C158.137 298.812 158.28 299.347 158.422 299.882Z" fill="white" stroke="black" stroke-width="0.5" stroke-miterlimit="10"/>
<path d="M139.81 268.114C139.81 270.859 136.993 272.749 136.566 273.034L121.02 277.206L95.1356 284.337C94.151 280.15 94.451 275.764 95.9966 271.751C97.5421 267.738 100.261 264.283 103.8 261.839C106.562 260.184 109.655 259.157 112.859 258.83C116.063 258.503 119.3 258.886 122.34 259.949C123.965 260.038 125.583 260.217 127.189 260.484C131.322 260.827 135.247 262.447 138.42 265.119C139.222 265.922 139.714 266.983 139.81 268.114Z" fill="white" stroke="black" stroke-width="0.5" stroke-miterlimit="10"/>
<path d="M163.093 277.42C163.093 277.812 163.093 278.204 163.093 278.596C163.054 279.052 162.982 279.505 162.879 279.951C162.665 280.843 162.415 281.77 162.095 282.732C161.774 283.695 161.56 284.194 161.239 284.907C161.09 285.301 160.911 285.682 160.704 286.048L160.134 287.153L151.398 290.968L121.021 299.525L95.1362 306.834C94.3602 302.949 93.9898 298.994 94.0309 295.033C94.0489 291.44 94.4191 287.857 95.1362 284.337L121.021 277.206L136.566 272.927L147.262 269.362L152.432 267.579C154.074 266.985 155.837 266.801 157.566 267.044L158.351 267.223H158.921L159.349 267.437H159.563H159.777C159.835 267.422 159.897 267.422 159.955 267.437L160.561 267.936C160.86 268.198 161.123 268.498 161.346 268.827C161.605 269.174 161.831 269.544 162.023 269.932C162.137 270.133 162.221 270.349 162.273 270.574C162.437 270.876 162.558 271.2 162.629 271.537C162.75 271.871 162.834 272.218 162.879 272.571C163.21 274.165 163.282 275.802 163.093 277.42Z" fill="white" stroke="black" stroke-width="0.5" stroke-miterlimit="10"/>
<path d="M142.591 316.425L98.9507 327.513" stroke="black" stroke-width="0.5" stroke-miterlimit="10" stroke-linecap="round"/>
<path d="M448.041 209.819C444.356 213.113 439.8 215.276 434.919 216.047C430.037 216.819 425.036 216.167 420.516 214.169C420.604 217.227 419.613 220.218 417.715 222.617C415.818 225.016 413.136 226.671 410.14 227.29C410.14 227.931 409.891 228.538 409.784 229.179C403.636 235.673 396.485 241.138 388.605 245.366C383.572 248.073 378.266 250.236 372.775 251.82C371.458 248.663 369.19 245.996 366.286 244.19C363.051 242.526 359.674 241.154 356.196 240.089L304.426 239.269C294.601 230.087 288.083 217.917 285.886 204.649C284.424 193.383 287.49 186.074 292.161 165.145C294.407 155.09 297.188 141.007 299.506 123.715C303.739 114.315 310.084 106.018 318.046 99.4698C322.831 95.5608 328.149 92.3553 333.841 89.9502C332.277 94.0355 331.961 98.4927 332.932 102.758C333.903 107.023 336.118 110.904 339.296 113.91C341.743 115.956 344.6 117.454 347.676 118.303C350.751 119.152 353.972 119.332 357.123 118.83L357.444 126.638C361.615 131.095 365.751 135.587 369.923 140.08H389.568L390.103 154.341L399.373 165.501C399.373 175.128 399.765 184.719 399.943 194.31L407.074 197.875C405.199 192.324 405.233 186.305 407.171 180.775C409.109 175.245 412.84 170.521 417.77 167.355C420.451 165.833 423.408 164.859 426.469 164.492C429.529 164.125 432.633 164.371 435.597 165.216C439.401 166.213 442.954 167.998 446.025 170.454C449.096 172.911 451.616 175.985 453.424 179.478C455.909 184.442 456.727 190.074 455.757 195.54C454.787 201.005 452.081 206.013 448.041 209.819Z" fill="white" stroke="black" stroke-width="0.5" stroke-miterlimit="10"/>
<path d="M434.136 276.849C428.689 285.425 421.886 293.059 413.992 299.454C402.546 308.67 389.123 315.113 374.772 318.279C374.772 299.026 374.951 279.844 375.022 260.591C382.69 258.166 389.751 254.132 395.734 248.758C401.717 243.384 406.483 236.794 409.713 229.429C406.433 248.255 411.211 265.083 422.656 272.713C426.113 274.958 430.042 276.374 434.136 276.849Z" fill="white" stroke="black" stroke-width="0.5" stroke-miterlimit="10"/>
<path d="M519.706 468.704H421.586C431.583 464.843 439.952 457.669 445.296 448.381C447.685 443.995 450.43 436.936 449.789 419.358C448.862 392.547 448.291 376.574 436.918 365.022C423.048 350.831 398.375 348.514 374.772 356.429V318.279C389.123 315.113 402.546 308.67 413.992 299.454C421.899 293.062 428.714 285.427 434.172 276.849C451.108 277.34 467.481 283.043 481.057 293.179C505.338 312.361 510.115 342.702 516.462 387.484C520.258 414.38 521.344 441.59 519.706 468.704Z" fill="black" stroke="black" stroke-width="0.5" stroke-miterlimit="10"/>
<path d="M449.645 419.358C448.718 392.547 448.148 376.573 436.774 365.022C423.047 350.831 398.375 348.514 374.772 356.429C371.943 356.286 369.167 357.235 367.018 359.079C364.868 360.924 363.509 363.523 363.22 366.341C363.183 366.744 363.183 367.15 363.22 367.553C363.265 369.02 363.603 370.464 364.212 371.799C364.822 373.135 365.692 374.336 366.77 375.331C367.849 376.327 369.115 377.098 370.495 377.599C371.875 378.1 373.341 378.321 374.807 378.249C393.419 377.695 412.001 380.102 429.857 385.38L374.772 386.093L354.591 386.378C353.638 389.235 353.357 392.273 353.771 395.256C354.242 398.368 355.466 401.318 357.337 403.849C355.804 412.192 358.656 415.971 359.583 417.041C362.186 420.036 366.714 420.927 374.772 422.104L376.412 422.318H374.772L372.739 422.104L365.609 421.284C365.588 423.198 365.89 425.102 366.5 426.917C368.058 430.984 370.949 434.403 374.7 436.615V468.704H421.585C431.582 464.843 439.951 457.669 445.295 448.381C447.684 443.995 450.43 436.936 449.645 419.358Z" fill="white" stroke="black" stroke-width="0.5" stroke-miterlimit="10"/>
<path d="M249.018 260.484V283.231C249.018 275.649 249.018 268.066 249.018 260.484Z" stroke="black" stroke-width="0.3" stroke-miterlimit="10"/>
<path d="M249.52 364.594V468.704H117.6V362.954H171.081V372.758C166.898 376.371 163.697 380.982 161.775 386.164C160.034 390.591 159.34 395.361 159.75 400.1C160.16 404.84 161.662 409.42 164.139 413.481C166.615 417.543 169.999 420.976 174.024 423.511C178.049 426.046 182.607 427.615 187.339 428.094C193.845 427.298 199.941 424.494 204.778 420.072C209.616 415.649 212.955 409.829 214.33 403.421C214.856 400.709 214.977 397.933 214.686 395.185C214.215 390.786 212.853 386.529 210.683 382.673C208.513 378.817 205.581 375.444 202.065 372.758V364.594H249.52Z" fill="white" stroke="black" stroke-width="0.5" stroke-miterlimit="10"/>
<path d="M429.787 385.309L374.772 386.093V378.214C393.384 377.66 411.966 380.067 429.822 385.344L429.787 385.309Z" fill="black" stroke="black" stroke-width="0.3" stroke-miterlimit="10"/>
<path d="M374.772 422.14L376.413 422.354H374.772" stroke="black" stroke-width="0.3" stroke-miterlimit="10"/>
<path d="M435.383 165.466C432.418 164.621 429.315 164.374 426.254 164.742C423.193 165.109 420.237 166.082 417.556 167.605C412.625 170.771 408.895 175.495 406.957 181.025C405.019 186.554 404.985 192.573 406.86 198.125L399.729 194.559C399.729 184.969 399.337 175.378 399.158 165.751L389.888 154.591L389.354 140.151H369.815C365.644 135.659 361.508 131.167 357.336 126.71L356.944 118.83C353.794 119.332 350.572 119.152 347.497 118.303C344.422 117.455 341.564 115.956 339.117 113.91C335.939 110.904 333.725 107.023 332.754 102.758C331.783 98.493 332.099 94.0357 333.662 89.9504C327.971 92.3555 322.652 95.5611 317.867 99.4701C309.905 106.018 303.56 114.315 299.327 123.715C294.971 117.367 293.043 109.665 293.894 102.013C294.745 94.3617 298.318 87.2711 303.962 82.0352C309.429 77.208 316.377 74.387 323.662 74.037C330.946 73.687 338.133 75.829 344.037 80.1099C346.778 77.1425 350.405 75.1413 354.377 74.4053C358.719 73.7477 363.155 74.6172 366.927 76.8654C374.058 80.6804 374.058 85.7789 379.442 90.7348C384.936 95.3365 391.923 97.7711 399.087 97.5804C399.426 97.2574 399.698 96.8707 399.888 96.4425C400.078 96.0142 400.181 95.5528 400.192 95.0846C400.192 93.3019 397.982 92.6601 396.627 89.7365C396.299 89.1241 396.036 88.4788 395.843 87.8112C398.032 91.0136 401.234 93.3869 404.934 94.5498C407.056 95.2025 409.29 95.4088 411.495 95.1559C411.129 95.6859 410.67 96.145 410.14 96.5108C409.07 97.2239 408.322 97.0812 407.894 97.616C407.466 98.1509 407.466 98.8639 408.5 100.825C420.22 105.19 429.834 113.861 435.383 125.07C438.217 131.426 439.682 138.308 439.682 145.268C439.682 152.227 438.217 159.109 435.383 165.466Z" fill="black"/>
<path d="M409.782 229.144C406.578 236.575 401.811 243.23 395.807 248.656C389.802 254.082 382.701 258.152 374.984 260.591V258.309C374.476 256.063 373.735 253.877 372.773 251.784C378.264 250.201 383.571 248.038 388.604 245.331C396.484 241.103 403.634 235.638 409.782 229.144Z" fill="black"/>
<path d="M412.601 405.239L357.551 403.599" stroke="black" stroke-width="0.5" stroke-miterlimit="10" stroke-linecap="round"/>
<path d="M417.769 424.136C409.729 424.561 401.672 424.561 393.631 424.136C383.297 423.612 373.007 422.421 362.826 420.571" stroke="black" stroke-width="0.5" stroke-miterlimit="10" stroke-linecap="round"/>
<path d="M374.772 436.472C389.747 446.241 418.057 445.778 420.124 445.707" stroke="black" stroke-width="0.5" stroke-miterlimit="10"/>
<path d="M354.557 386.378C353.603 389.235 353.322 392.273 353.737 395.256C354.208 398.368 355.432 401.318 357.302 403.849C355.769 412.192 358.621 415.971 359.549 417.041C362.151 420.036 366.679 420.927 374.737 422.104L372.705 421.89L365.574 421.07C365.554 422.984 365.855 424.888 366.465 426.703C368.023 430.77 370.914 434.189 374.666 436.401V468.49H249.52V364.594H293.66V356.429C289.954 353.528 286.954 349.824 284.887 345.596C282.819 341.368 281.737 336.726 281.722 332.02C281.707 327.313 282.76 322.665 284.8 318.424C286.841 314.183 289.817 310.46 293.504 307.535C297.192 304.61 301.494 302.56 306.088 301.538C310.682 300.516 315.448 300.549 320.028 301.634C324.607 302.72 328.881 304.83 332.527 307.806C336.174 310.781 339.098 314.545 341.08 318.814C343.92 325.167 344.618 332.272 343.068 339.057C341.518 345.842 337.805 351.939 332.487 356.429V366.341H363.221C363.184 366.744 363.184 367.15 363.221 367.553C363.266 369.02 363.604 370.464 364.214 371.799C364.823 373.135 365.693 374.336 366.771 375.331C367.85 376.327 369.116 377.098 370.496 377.599C371.876 378.1 373.342 378.321 374.808 378.249V386.129L354.557 386.378Z" fill="black" stroke="black" stroke-width="0.5" stroke-miterlimit="10"/>
<path d="M374.986 258.309V260.591C374.986 279.844 374.986 299.026 374.736 318.279V356.429C371.914 356.296 369.147 357.249 367.005 359.092C364.863 360.936 363.509 363.529 363.22 366.341H332.486V356.429C337.804 351.939 341.518 345.842 343.068 339.057C344.618 332.272 343.92 325.167 341.079 318.814C339.172 314.398 336.274 310.481 332.609 307.365C328.945 304.25 324.612 302.019 319.947 300.847C315.283 299.675 310.41 299.592 305.708 300.605C301.006 301.618 296.601 303.699 292.832 306.689C289.064 309.678 286.034 313.494 283.978 317.842C281.921 322.19 280.893 326.953 280.973 331.763C281.053 336.572 282.239 341.298 284.439 345.576C286.639 349.853 289.794 353.567 293.659 356.429V364.594H247.309V322.094H239.287C235.773 326.745 231.046 330.34 225.625 332.485C220.205 334.629 214.298 335.24 208.553 334.252C202.091 332.846 196.228 329.461 191.78 324.567C187.332 319.673 184.52 313.515 183.736 306.949C182.951 300.382 184.233 293.735 187.403 287.931C190.573 282.127 195.473 277.456 201.422 274.567C207.813 271.674 214.976 270.954 221.814 272.519C228.653 274.084 234.79 277.846 239.287 283.231H249.092V260.484C249.092 253.353 249.092 246.614 249.092 239.662H253.941L304.569 239.305L356.339 240.125C359.817 241.19 363.194 242.562 366.429 244.225C369.333 246.032 371.602 248.699 372.918 251.855C373.826 253.93 374.519 256.093 374.986 258.309Z" fill="white" stroke="black" stroke-width="0.5" stroke-miterlimit="10"/>
<path d="M249.018 260.484V283.231C249.018 275.649 249.018 268.066 249.018 260.484Z" stroke="black" stroke-width="0.3" stroke-miterlimit="10"/>
<path d="M183.63 303.696C183.707 310.877 186.217 317.82 190.75 323.389C195.283 328.959 201.572 332.826 208.588 334.359C214.338 335.329 220.243 334.697 225.658 332.534C231.073 330.371 235.788 326.759 239.286 322.094H247.451V364.593H202.099V372.758C205.615 375.444 208.547 378.817 210.717 382.673C212.887 386.528 214.249 390.786 214.72 395.185C214.999 397.934 214.867 400.71 214.328 403.421C212.937 409.871 209.556 415.721 204.662 420.148C199.769 424.574 193.61 427.354 187.053 428.093C182.32 427.614 177.762 426.046 173.737 423.511C169.712 420.976 166.329 417.543 163.852 413.481C161.376 409.419 159.874 404.839 159.464 400.1C159.054 395.361 159.747 390.591 161.489 386.164C163.421 380.978 166.634 376.366 170.83 372.758V362.953H117.349V348.692C118.597 348.407 119.774 348.086 120.915 347.729C125.552 346.361 130.024 344.483 134.249 342.131L137.458 340.313L139.169 339.279L140.916 338.138L142.521 336.962C143.243 336.394 143.934 335.787 144.589 335.143C144.916 334.828 145.226 334.495 145.516 334.145L146.015 333.61C146.447 333.105 146.84 332.569 147.192 332.006C147.645 331.334 148.05 330.631 148.404 329.902C149.973 326.729 152.468 319.634 149.224 316.817L148.689 316.425L147.976 316.14C149.305 315.274 150.558 314.296 151.72 313.216C153.532 311.584 155.02 309.624 156.105 307.44C157.281 305.075 158.064 302.534 158.423 299.917C158.322 299.38 158.167 298.854 157.959 298.348C157.854 297.989 157.71 297.643 157.531 297.314C157.349 296.858 157.11 296.426 156.818 296.031C156.651 295.67 156.435 295.334 156.176 295.032C156.101 294.879 155.991 294.744 155.856 294.64C155.856 294.426 155.499 294.212 155.321 293.998L154.75 293.428C154.434 293.1 154.087 292.801 153.716 292.537C153.387 292.267 153.041 292.017 152.682 291.788C152.219 291.538 151.755 291.253 151.256 291.039L159.991 287.224L160.562 286.119C160.769 285.753 160.948 285.371 161.097 284.978C161.418 284.265 161.703 283.516 161.952 282.803C162.287 281.898 162.549 280.968 162.737 280.022C162.84 279.576 162.912 279.123 162.951 278.667C162.951 278.275 162.951 277.883 162.951 277.491C163.065 276.12 162.993 274.741 162.737 273.39C162.706 273.035 162.622 272.687 162.487 272.356C162.415 272.02 162.295 271.696 162.131 271.394C162.079 271.169 161.995 270.953 161.881 270.752C161.711 270.352 161.483 269.98 161.204 269.647C160.981 269.317 160.718 269.018 160.419 268.755C160.249 268.554 160.044 268.384 159.813 268.256C159.755 268.241 159.693 268.241 159.635 268.256H159.421H159.207L158.779 268.042H158.209L157.424 267.864C155.695 267.62 153.932 267.804 152.29 268.399L147.12 270.181L136.424 273.747C136.852 273.462 139.776 271.572 139.669 268.827C139.582 267.7 139.103 266.64 138.314 265.832C135.141 263.16 131.216 261.54 127.083 261.197C125.477 260.929 123.859 260.751 122.234 260.662C123.731 255.356 126.772 250.616 130.969 247.042C134.343 243.831 138.497 241.558 143.02 240.446H143.519C180.243 240.161 216.967 239.911 253.69 239.697H248.841C248.841 246.828 248.841 253.567 248.841 260.519C248.841 268.078 248.841 275.66 248.841 283.267H239.286C234.792 277.955 228.692 274.248 221.908 272.705C215.123 271.161 208.021 271.865 201.671 274.71C196.206 277.309 191.601 281.421 188.403 286.559C185.205 291.697 183.548 297.645 183.63 303.696Z" fill="black" stroke="black" stroke-width="0.5" stroke-miterlimit="10"/>
<path d="M143.021 240.482H143.52L253.691 239.733" stroke="black" stroke-width="0.3" stroke-miterlimit="10"/>
<path d="M295.834 188.249C308.594 188.249 318.938 177.905 318.938 165.145C318.938 152.385 308.594 142.041 295.834 142.041C283.074 142.041 272.73 152.385 272.73 165.145C272.73 177.905 283.074 188.249 295.834 188.249Z" stroke="black" stroke-width="1.5" stroke-miterlimit="10"/>
<path d="M305.353 174.522C307.775 174.522 309.739 170.691 309.739 165.965C309.739 161.239 307.775 157.408 305.353 157.408C302.931 157.408 300.968 161.239 300.968 165.965C300.968 170.691 302.931 174.522 305.353 174.522Z" fill="black"/>
<path d="M339.473 178.194C342.584 178.194 345.106 174.363 345.106 169.637C345.106 164.911 342.584 161.08 339.473 161.08C336.361 161.08 333.839 164.911 333.839 169.637C333.839 174.363 336.361 178.194 339.473 178.194Z" fill="black"/>
<path d="M350.419 193.811C363.179 193.811 373.523 183.467 373.523 170.707C373.523 157.947 363.179 147.603 350.419 147.603C337.659 147.603 327.315 157.947 327.315 170.707C327.315 183.467 337.659 193.811 350.419 193.811Z" stroke="black" stroke-width="1.5" stroke-miterlimit="10"/>
<path d="M292.98 135.303C296.638 133.971 300.602 133.723 304.397 134.59C308.192 135.456 311.656 137.4 314.373 140.187" stroke="black" stroke-miterlimit="10" stroke-linecap="round"/>
<path d="M341.611 137.727C344.492 136.633 347.573 136.169 350.649 136.365C353.724 136.562 356.721 137.415 359.438 138.868C362.315 140.616 364.696 143.07 366.355 145.999" stroke="black" stroke-miterlimit="10" stroke-linecap="round"/>
<path d="M415.203 194.559C414.753 191.449 415.034 188.276 416.024 185.292C417.014 182.309 418.687 179.598 420.908 177.374C424.541 174.128 429.265 172.371 434.136 172.454" stroke="black" stroke-miterlimit="10" stroke-linecap="round"/>
<path d="M373.522 170.707L409.248 169.637" stroke="black" stroke-width="1.5" stroke-miterlimit="10"/>
<path d="M310.949 199.658C314.056 200.597 317.335 200.816 320.54 200.3C323.867 199.738 327.016 198.407 329.738 196.413C330.041 196.365 330.351 196.395 330.638 196.502C330.925 196.608 331.18 196.786 331.378 197.02C332.341 198.66 327.813 203.901 322.857 206.29C319.383 207.851 315.517 208.323 311.769 207.645C311.098 207.144 310.549 206.501 310.16 205.76C309.771 205.02 309.554 204.202 309.522 203.366C309.518 201.995 310.027 200.673 310.949 199.658Z" fill="black"/>
<path d="M462.201 35.0356H448V37.8366H462.201V35.0356Z" fill="black"/>
<path d="M498.657 35.0356H484.456V37.8366H498.657V35.0356Z" fill="black"/>
<path d="M468.647 25.4735L460.795 13.6411L458.461 15.1899L466.314 27.0224L468.647 25.4735Z" fill="black"/>
<path d="M488.501 56.7621L480.649 44.9297L478.315 46.4785L486.168 58.311L488.501 56.7621Z" fill="black"/>
<path d="M479.418 27.0134L485.568 14.2129L483.043 13L476.894 25.8005L479.418 27.0134Z" fill="black"/>
<path d="M463.628 59.8762L469.778 47.0757L467.253 45.8628L461.104 58.6633L463.628 59.8762Z" fill="black"/>
<path d="M26.4404 245.023H0V250.242H26.4404V245.023Z" fill="black"/>
<path d="M94.3183 245.023H67.8779V250.242H94.3183V245.023Z" fill="black"/>
<path d="M37.8743 228.929L23.2539 206.899L18.9056 209.785L33.5259 231.815L37.8743 228.929Z" fill="black"/>
<path d="M75.4124 285.483L60.792 263.453L56.4437 266.338L71.064 288.369L75.4124 285.483Z" fill="black"/>
<path d="M58.4792 230.093L69.9287 206.26L65.2246 204L53.7751 227.833L58.4792 230.093Z" fill="black"/>
<path d="M29.0818 291.274L40.5312 267.441L35.8272 265.182L24.3777 289.014L29.0818 291.274Z" fill="black"/>
<path d="M178.758 41.4512V30.3545H166.737C166.146 27.765 165.129 25.2917 163.727 23.036L172.235 14.5215L164.298 6.58462L155.783 15.0651C153.513 13.6532 151.02 12.6354 148.41 12.0548V0H137.375V12.0276C134.779 12.6265 132.298 13.6432 130.029 15.0379L121.521 6.55743L113.523 14.5555L122.031 23.0632C120.658 25.323 119.644 27.7829 119.028 30.3545H107V41.4512H119.028C119.637 44.0466 120.66 46.527 122.058 48.7968L113.551 57.3249L121.494 65.2346L130.002 56.7541C132.271 58.1761 134.764 59.2053 137.375 59.7984V71.7988H148.41V59.7984C151.029 59.1859 153.531 58.1508 155.817 56.7337L164.325 65.2346L172.235 57.3249L163.7 48.8444C165.114 46.5647 166.14 44.0665 166.737 41.4512H178.758ZM142.879 49.6055C140.167 49.6028 137.516 48.7957 135.262 47.2864C133.008 45.7771 131.253 43.6333 130.218 41.1262C129.183 38.6191 128.914 35.8612 129.446 33.2015C129.979 30.5418 131.288 28.0998 133.208 26.1842C135.129 24.2686 137.574 22.9655 140.235 22.4398C142.896 21.9141 145.653 22.1894 148.158 23.2308C150.662 24.2722 152.802 26.033 154.305 28.2904C155.809 30.5479 156.61 33.2006 156.605 35.913C156.606 37.7158 156.252 39.5012 155.562 41.167C154.873 42.8327 153.862 44.3463 152.587 45.6211C151.312 46.8959 149.799 47.9069 148.133 48.5964C146.467 49.2859 144.682 49.6403 142.879 49.6395V49.6055Z" fill="black"/>
</svg>
