<svg width="30" height="30" viewBox="0 0 30 30" fill="none" xmlns="http://www.w3.org/2000/svg">
<path d="M14.8198 0C6.63419 0 0 6.63419 0 14.8198C0 23.0055 6.63419 29.6396 14.8198 29.6396C23.0055 29.6396 29.6396 23.0055 29.6396 14.8198C29.6396 6.63419 23.0055 0 14.8198 0ZM24.0706 24.0648C22.8665 25.269 21.4714 26.2126 19.9141 26.8667C18.3048 27.5498 16.5913 27.8914 14.8198 27.8914C13.0542 27.8914 11.3406 27.544 9.72551 26.8667C8.16827 26.2068 6.76733 25.2632 5.56901 24.0648C4.3649 22.8607 3.42129 21.4656 2.76714 19.9083C2.08404 18.299 1.7367 16.5855 1.7367 14.8198C1.7367 13.0542 2.08404 11.3406 2.76135 9.72551C3.42129 8.16827 4.3649 6.76733 5.56322 5.56901C6.77312 4.3649 8.16827 3.42129 9.72551 2.76135C11.3406 2.08404 13.0542 1.7367 14.8198 1.7367C16.5855 1.7367 18.299 2.08404 19.9141 2.76135C21.4714 3.42129 22.8723 4.3649 24.0706 5.56322C25.2747 6.76733 26.2183 8.16248 26.8725 9.71972C27.5556 11.3291 27.8972 13.0426 27.8972 14.814C27.8972 16.5797 27.5498 18.2932 26.8725 19.9083C26.2126 21.4656 25.2689 22.8665 24.0706 24.0648Z" fill="#6C15F0"/>
<path d="M21.8419 9.73121C21.2514 10.0786 20.603 10.3333 19.9083 10.4722C19.3526 9.88173 18.5595 9.51123 17.6854 9.51123C16.0066 9.51123 14.6404 10.8774 14.6404 12.5562C14.6404 12.7936 14.6635 13.0251 14.7214 13.2509C12.1916 13.1236 9.94549 11.9137 8.44614 10.067C8.18564 10.5185 8.03512 11.0395 8.03512 11.6011C8.03512 12.6547 8.5735 13.5867 9.38975 14.1366C8.89189 14.1193 8.42299 13.9803 8.01197 13.7546V13.7893C8.01197 15.2655 9.05977 16.4985 10.4549 16.7764C10.2002 16.8459 9.92812 16.8864 9.65025 16.8864C9.45343 16.8864 9.26239 16.869 9.07714 16.8343C9.465 18.0442 10.5881 18.9241 11.9195 18.9473C10.8775 19.7635 9.56342 20.2498 8.13933 20.2498C7.89619 20.2498 7.65305 20.2382 7.40991 20.2093C8.75875 21.0718 10.3565 21.5755 12.0758 21.5755C17.6796 21.5755 20.742 16.9327 20.742 12.9094C20.742 12.7762 20.742 12.6431 20.7362 12.5157C21.3324 12.0815 21.8477 11.549 22.2529 10.9353C21.7087 11.1785 21.1182 11.3406 20.5046 11.4158C21.1356 11.0395 21.6161 10.4433 21.8419 9.73121Z" fill="#6C15F0"/>
</svg>
