<svg width="42" height="42" viewBox="0 0 42 42" fill="none" xmlns="http://www.w3.org/2000/svg">
<path d="M28.2941 35.2426C28.0765 35.1102 27.8869 34.9327 27.7362 34.7175C27.6665 34.6183 27.6077 34.5134 27.559 34.405H2.82866V10.0294H36.3966V25.9458C37.1132 26.0105 37.7145 26.4812 37.9669 27.1257C38.1905 27.0032 38.4396 26.9275 38.7015 26.9044C38.8786 26.889 39.0545 26.9 39.2251 26.9337V3.9569C39.2251 2.65708 38.1679 1.59961 36.8682 1.59961H2.35719C1.05747 1.59961 0 2.65708 0 3.9569V34.8766C0 36.1764 1.05747 37.2338 2.35719 37.2338H28.0793C27.8786 36.8273 27.831 36.3684 27.9491 35.9269C28.0172 35.673 28.135 35.4414 28.2941 35.2426ZM33.8081 5.55796C33.8081 5.07728 34.1977 4.68752 34.6784 4.68752H35.5487C36.0295 4.68752 36.4191 5.07718 36.4191 5.55796V6.54442C36.4191 7.0251 36.0294 7.41476 35.5487 7.41476H34.6784C34.1976 7.41476 33.8081 7.0251 33.8081 6.54442V5.55796ZM29.7609 5.55796C29.7609 5.07728 30.1506 4.68752 30.6312 4.68752H31.5017C31.9825 4.68752 32.372 5.07718 32.372 5.55796V6.54442C32.372 7.0251 31.9824 7.41476 31.5017 7.41476H30.6312C30.1506 7.41476 29.7609 7.0251 29.7609 6.54442V5.55796ZM25.7136 5.55796C25.7136 5.07728 26.1034 4.68752 26.584 4.68752H27.4543C27.9351 4.68752 28.3248 5.07718 28.3248 5.55796V6.54442C28.3248 7.0251 27.9351 7.41476 27.4543 7.41476H26.584C26.1034 7.41476 25.7136 7.0251 25.7136 6.54442V5.55796Z" fill="black"/>
<path d="M41.9944 33.5824L41.7329 32.0992C41.6976 31.8994 41.5072 31.766 41.3073 31.8012L39.9883 32.0337C39.8299 31.6621 39.6277 31.314 39.3877 30.9955L40.2492 29.9685C40.3118 29.8941 40.3423 29.7976 40.3339 29.7005C40.3253 29.6034 40.2785 29.5138 40.2039 29.451L39.0503 28.4829C38.9757 28.4203 38.879 28.3899 38.782 28.3984C38.6849 28.4069 38.5952 28.4536 38.5326 28.5282L37.6719 29.5544C37.3185 29.3743 36.9406 29.2355 36.5446 29.1439V27.8045C36.5446 27.6016 36.3801 27.437 36.1772 27.437H34.671C34.4683 27.437 34.3036 27.6016 34.3036 27.8045V29.1439C33.9075 29.2354 33.5299 29.3743 33.1764 29.5544L32.3154 28.5283C32.185 28.3729 31.9533 28.3527 31.7978 28.483L30.6441 29.451C30.5695 29.5138 30.5228 29.6034 30.5142 29.7005C30.5058 29.7976 30.5362 29.8942 30.5988 29.9688L31.4605 30.9956C31.2208 31.3141 31.0182 31.6623 30.8599 32.0338L29.5409 31.8012C29.3414 31.7661 29.1507 31.8994 29.1153 32.0992L28.8538 33.5824C28.8369 33.6783 28.8588 33.777 28.9146 33.8569C28.9707 33.9368 29.0556 33.9911 29.1516 34.008L30.4716 34.2406C30.4931 34.6496 30.5643 35.0453 30.6789 35.422L29.5188 36.0916C29.4343 36.1401 29.3728 36.2206 29.3475 36.3146C29.3223 36.4087 29.3356 36.5089 29.3842 36.5933L30.1373 37.8976C30.1858 37.982 30.2662 38.0436 30.3602 38.0688C30.3915 38.0772 30.4234 38.0813 30.4553 38.0813C30.5192 38.0813 30.5825 38.0647 30.6389 38.0321L31.8 37.3616C32.0731 37.6542 32.3813 37.9134 32.7182 38.1327L32.2597 39.3922C32.2265 39.4838 32.2308 39.5848 32.272 39.6731C32.3132 39.7614 32.3877 39.8297 32.4792 39.863L33.8943 40.3779C33.9349 40.3927 33.9775 40.4003 34.02 40.4003C34.073 40.4003 34.1263 40.3888 34.1754 40.3658C34.2637 40.3247 34.3318 40.2501 34.3651 40.1585L34.8235 38.899C35.0201 38.9228 35.2201 38.9351 35.423 38.9351C35.626 38.9351 35.826 38.9226 36.0225 38.899L36.481 40.1585C36.5142 40.2501 36.5826 40.3247 36.6707 40.3658C36.7197 40.3887 36.7728 40.4003 36.8261 40.4003C36.8686 40.4003 36.9112 40.3929 36.9518 40.3779L38.367 39.863C38.4583 39.8297 38.5329 39.7612 38.574 39.6731C38.6152 39.5848 38.6196 39.4838 38.5863 39.3922L38.1279 38.1329C38.4644 37.9136 38.7727 37.6542 39.046 37.3618L40.2071 38.0323C40.2634 38.0647 40.3268 38.0815 40.3907 38.0815C40.4225 38.0815 40.4547 38.0772 40.4859 38.069C40.58 38.0438 40.6602 37.982 40.7088 37.8978L41.4618 36.5933C41.5104 36.5091 41.5237 36.4087 41.4985 36.3146C41.4732 36.2208 41.4117 36.1403 41.3273 36.0916L40.1673 35.4222C40.2819 35.0454 40.3529 34.6497 40.3744 34.2408L41.6945 34.0081C41.7905 33.9912 41.8757 33.9369 41.9315 33.857C41.9894 33.777 42.0113 33.6783 41.9944 33.5824ZM35.4242 35.9394C34.3085 35.9394 33.4039 35.0348 33.4039 33.919C33.4039 32.8032 34.3086 31.8986 35.4242 31.8986C36.54 31.8986 37.4447 32.8032 37.4447 33.919C37.4447 35.0348 36.54 35.9394 35.4242 35.9394Z" fill="black"/>
<path d="M16.4722 23.5414C16.4722 23.0662 16.1937 22.6296 15.7625 22.4294L11.8164 20.5959L15.7626 18.7622C16.1937 18.5617 16.4722 18.1253 16.4722 17.6502V17.6183C16.4722 17.1972 16.2603 16.8106 15.9056 16.5847C15.7094 16.4594 15.4809 16.3931 15.2449 16.3931C15.0671 16.3931 14.8886 16.4322 14.7288 16.5064L8.42001 19.4402C7.98904 19.6406 7.71069 20.0771 7.71069 20.552V20.6398C7.71069 21.1141 7.98894 21.5503 8.42011 21.7517L14.7295 24.6858C14.8927 24.7613 15.0664 24.7996 15.2458 24.7996C15.4797 24.7996 15.7075 24.7332 15.9056 24.6072C16.2605 24.3804 16.4723 23.9941 16.4723 23.5735L16.4722 23.5414Z" fill="black"/>
<path d="M22.6969 13.4035C22.4668 13.0884 22.0966 12.9004 21.7067 12.9004H21.6753C21.1398 12.9004 20.6703 13.2429 20.5072 13.7521L16.3505 26.6314C16.2322 27.0033 16.2988 27.4129 16.5286 27.7278C16.7587 28.0427 17.1289 28.2308 17.5189 28.2308H17.5504C18.0857 28.2308 18.5548 27.8882 18.7178 27.3791L22.8739 14.5008C22.9934 14.1292 22.9272 13.719 22.6969 13.4035Z" fill="black"/>
<path d="M30.8052 19.44L24.4963 16.5062C24.337 16.4322 24.1588 16.3931 23.981 16.3931C23.7451 16.3931 23.5165 16.4592 23.3204 16.5843C22.9651 16.8106 22.7532 17.1971 22.7532 17.6182V17.6501C22.7532 18.1248 23.0315 18.5613 23.463 18.7626L27.409 20.5959L23.4629 22.4293C23.0317 22.6295 22.7532 23.0661 22.7532 23.5413V23.5734C22.7532 23.994 22.9651 24.3802 23.3202 24.6072C23.5176 24.733 23.7456 24.7995 23.9798 24.7995C24.159 24.7995 24.3325 24.7612 24.4968 24.6854L30.806 21.7513C31.2368 21.5504 31.5149 21.1141 31.5149 20.6398V20.5521C31.5146 20.077 31.2363 19.6405 30.8052 19.44Z" fill="black"/>
</svg>
