<svg width="42" height="42" viewBox="0 0 42 42" fill="none" xmlns="http://www.w3.org/2000/svg">
<g clip-path="url(#clip0_610_3692)">
<path fill-rule="evenodd" clip-rule="evenodd" d="M27.2029 39.6245L21.99 25.7077L16.021 39.6665C13.7629 39.6097 12.4535 38.2484 12.4535 38.2484L3.55689 10.3159C3.55689 10.3159 3.20608 8.9299 1.21972 8.9299H-0.000732422L0.809627 6.82495H12.1793V8.9299C12.1793 8.9299 11.0502 9.83906 11.3145 11.0991C11.5814 12.3591 16.1322 30.508 16.1322 30.508L20.52 20.7961L18.4842 14.3726C17.7035 12.3986 17.0612 10.4962 16.5497 9.99223C15.8283 9.20906 14.514 8.9299 14.514 8.9299V6.82495H28.5222V8.9299H26.2048C26.2048 8.9299 24.9843 9.17446 24.8781 10.9681C24.8559 11.3288 25.0659 12.5839 25.0659 12.5839L30.5011 30.4536C30.5011 30.4536 36.0847 20.2007 36.1637 17.9673C36.2453 15.7388 35.3806 12.0898 32.9421 10.6321C29.041 8.28259 30.0268 3.60823 33.0335 1.9554C34.3182 1.25129 35.4621 1.22412 36.7641 1.22412C41.3544 1.22412 41.8708 6.42718 41.8708 6.42718C42.1747 8.22084 41.9597 11.272 41.095 13.9625C38.8369 20.9592 33.2484 33.5468 31.0842 38.3398C29.3449 40.0667 27.2029 39.6245 27.2029 39.6245" fill="black"/>
</g>
<defs>
<clipPath id="clip0_610_3692">
<rect width="42" height="42" fill="white"/>
</clipPath>
</defs>
</svg>
